<ttFont>
    <TTGlyph name="A" xMin="-75" yMin="0" xMax="1175" yMax="1264">
      <contour>
        <pt x="857" y="470" on="1"/>
        <pt x="857" y="1037" on="1"/>
        <pt x="503" y="470" on="1"/>
      </contour>
      <contour>
        <pt x="667" y="0" on="1"/>
        <pt x="660" y="0" on="0"/>
        <pt x="660" y="43" on="0"/>
        <pt x="678" y="74" on="1"/>
        <pt x="814" y="74" on="0"/>
        <pt x="840" y="180" on="1"/>
        <pt x="851" y="228" on="0"/>
        <pt x="851" y="367" on="0"/>
        <pt x="854" y="408" on="1"/>
        <pt x="451" y="408" on="1"/>
        <pt x="444" y="396" on="0"/>
        <pt x="415" y="354" on="1"/>
        <pt x="296" y="184" on="0"/>
        <pt x="296" y="143" on="1"/>
        <pt x="296" y="74" on="0"/>
        <pt x="440" y="74" on="1"/>
        <pt x="449" y="68" on="0"/>
        <pt x="449" y="50" on="1"/>
        <pt x="449" y="30" on="1"/>
        <pt x="449" y="0" on="0"/>
        <pt x="440" y="0" on="1"/>
        <pt x="-67" y="0" on="1"/>
        <pt x="-75" y="0" on="0"/>
        <pt x="-75" y="46" on="0"/>
        <pt x="-56" y="74" on="1"/>
        <pt x="27" y="74" on="0"/>
        <pt x="134" y="139" on="0"/>
        <pt x="180" y="211" on="1"/>
        <pt x="864" y="1264" on="1"/>
        <pt x="1027" y="1264" on="1"/>
        <pt x="1000" y="201" on="1"/>
        <pt x="1000" y="93" on="0"/>
        <pt x="1098" y="78" on="1"/>
        <pt x="1128" y="74" on="0"/>
        <pt x="1165" y="74" on="1"/>
        <pt x="1175" y="69" on="0"/>
        <pt x="1175" y="51" on="1"/>
        <pt x="1175" y="30" on="1"/>
        <pt x="1175" y="0" on="0"/>
        <pt x="1165" y="0" on="1"/>
      </contour>
    </TTGlyph>
    <TTGlyph name="AE" xMin="-110" yMin="28" xMax="1995" yMax="1208">
      <contour>
        <pt x="642" y="555" on="1"/>
        <pt x="974" y="555" on="1"/>
        <pt x="1181" y="1063" on="1"/>
        <pt x="1119" y="1063" on="1"/>
      </contour>
      <contour>
        <pt x="1734" y="329" on="1"/>
        <pt x="1606" y="29" on="1"/>
        <pt x="639" y="29" on="1"/>
        <pt x="672" y="99" on="1"/>
        <pt x="730" y="99" on="0"/>
        <pt x="759" y="118" on="1"/>
        <pt x="814" y="153" on="0"/>
        <pt x="844" y="232" on="1"/>
        <pt x="944" y="491" on="1"/>
        <pt x="571" y="491" on="1"/>
        <pt x="327" y="231" on="1"/>
        <pt x="311" y="214" on="0"/>
        <pt x="280" y="180" on="0"/>
        <pt x="280" y="123" on="0"/>
        <pt x="341" y="101" on="0"/>
        <pt x="393" y="99" on="1"/>
        <pt x="374" y="28" on="1"/>
        <pt x="-110" y="28" on="1"/>
        <pt x="-84" y="98" on="1"/>
        <pt x="37" y="98" on="0"/>
        <pt x="158" y="222" on="1"/>
        <pt x="934" y="1014" on="1"/>
        <pt x="958" y="1040" on="0"/>
        <pt x="958" y="1064" on="1"/>
        <pt x="956" y="1063" on="1"/>
        <pt x="956" y="1129" on="0"/>
        <pt x="842" y="1139" on="1"/>
        <pt x="858" y="1208" on="1"/>
        <pt x="1995" y="1208" on="1"/>
        <pt x="1934" y="929" on="1"/>
        <pt x="1929" y="914" on="0"/>
        <pt x="1880" y="894" on="0"/>
        <pt x="1869" y="894" on="1"/>
        <pt x="1838" y="894" on="0"/>
        <pt x="1837" y="918" on="1"/>
        <pt x="1830" y="1041" on="0"/>
        <pt x="1816" y="1075" on="1"/>
        <pt x="1789" y="1140" on="0"/>
        <pt x="1717" y="1140" on="1"/>
        <pt x="1422" y="1140" on="1"/>
        <pt x="1370" y="1140" on="0"/>
        <pt x="1342" y="1069" on="1"/>
        <pt x="1204" y="722" on="1"/>
        <pt x="1489" y="722" on="1"/>
        <pt x="1568" y="722" on="0"/>
        <pt x="1633" y="820" on="1"/>
        <pt x="1645" y="838" on="0"/>
        <pt x="1657" y="838" on="1"/>
        <pt x="1719" y="838" on="1"/>
        <pt x="1635" y="508" on="1"/>
        <pt x="1581" y="508" on="1"/>
        <pt x="1559" y="661" on="0"/>
        <pt x="1483" y="661" on="1"/>
        <pt x="1181" y="661" on="1"/>
        <pt x="993" y="184" on="1"/>
        <pt x="986" y="166" on="0"/>
        <pt x="983" y="140" on="1"/>
        <pt x="983" y="138" on="1"/>
        <pt x="983" y="100" on="0"/>
        <pt x="1027" y="100" on="1"/>
        <pt x="1332" y="100" on="1"/>
        <pt x="1523" y="100" on="0"/>
        <pt x="1610" y="306" on="1"/>
        <pt x="1620" y="330" on="0"/>
        <pt x="1689" y="348" on="0"/>
        <pt x="1734" y="348" on="0"/>
      </contour>
    </TTGlyph>
    <TTGlyph name="Aacute" xMin="-75" yMin="0" xMax="1295" yMax="1828">
      <component glyphName="A" x="0" y="0" flags="0x1004"/>
      <component glyphName="acute" x="789" y="392" flags="0x1004"/>
    </TTGlyph>
    <TTGlyph name="Abreve" xMin="-75" yMin="0" xMax="1246" yMax="1602">
      <component glyphName="A" x="0" y="0" flags="0x1004"/>
      <component glyphName="breve" x="605" y="392" flags="0x1004"/>
    </TTGlyph>
    <TTGlyph name="Acircumflex" xMin="-75" yMin="0" xMax="1298" yMax="1814">
      <component glyphName="A" x="0" y="0" flags="0x1004"/>
      <component glyphName="circumflex" x="529" y="392" flags="0x1004"/>
    </TTGlyph>
    <TTGlyph name="Adieresis" xMin="-75" yMin="0" xMax="1413" yMax="1692">
      <component glyphName="A" x="0" y="0" flags="0x1004"/>
      <component glyphName="dieresis" x="564" y="393" flags="0x1004"/>
    </TTGlyph>
    <TTGlyph name="Agrave" xMin="-75" yMin="0" xMax="1239" yMax="1829">
      <component glyphName="A" x="0" y="0" flags="0x1004"/>
      <component glyphName="grave" x="610" y="393" flags="0x1004"/>
    </TTGlyph>
    <TTGlyph name="Amacron" xMin="-75" yMin="0" xMax="1248" yMax="1502">
      <component glyphName="A" x="0" y="0" flags="0x1204"/>
      <component glyphName="macron" x="460" y="373" flags="0x1004"/>
    </TTGlyph>
    <TTGlyph name="Aogonek" xMin="-75" yMin="-355" xMax="1175" yMax="1264">
      <component glyphName="A" x="0" y="0" flags="0x1004"/>
      <component glyphName="ogonek" x="279" y="0" flags="0x1004"/>
    </TTGlyph>
    <TTGlyph name="Aring" xMin="-75" yMin="0" xMax="1218" yMax="1740">
      <component glyphName="A" x="0" y="0" flags="0x1004"/>
      <component glyphName="ring" x="634" y="393" flags="0x1004"/>
    </TTGlyph>
    <TTGlyph name="Atilde" xMin="-75" yMin="0" xMax="1392" yMax="1599">
      <component glyphName="A" x="0" y="0" flags="0x1004"/>
      <component glyphName="tilde" x="545" y="393" flags="0x1004"/>
    </TTGlyph>
    <TTGlyph name="B" xMin="-60" yMin="0" xMax="1197" yMax="1264">
      <contour>
        <pt x="-53" y="0" on="1"/>
        <pt x="-60" y="0" on="0"/>
        <pt x="-60" y="48" on="0"/>
        <pt x="-41" y="74" on="1"/>
        <pt x="45" y="74" on="0"/>
        <pt x="79" y="97" on="1"/>
        <pt x="139" y="138" on="0"/>
        <pt x="173" y="301" on="0"/>
        <pt x="204" y="438" on="1"/>
        <pt x="249" y="632" on="0"/>
        <pt x="328" y="1022" on="0"/>
        <pt x="328" y="1122" on="0"/>
        <pt x="305" y="1158" on="0"/>
        <pt x="272" y="1176" on="0"/>
        <pt x="232" y="1183" on="0"/>
        <pt x="176" y="1191" on="0"/>
        <pt x="176" y="1209" on="1"/>
        <pt x="176" y="1236" on="0"/>
        <pt x="187" y="1264" on="1"/>
        <pt x="728" y="1264" on="1"/>
        <pt x="1086" y="1264" on="0"/>
        <pt x="1175" y="1086" on="1"/>
        <pt x="1197" y="1042" on="0"/>
        <pt x="1197" y="982" on="1"/>
        <pt x="1197" y="868" on="0"/>
        <pt x="1010" y="700" on="0"/>
        <pt x="887" y="676" on="1"/>
        <pt x="1134" y="595" on="0"/>
        <pt x="1134" y="374" on="1"/>
        <pt x="1134" y="131" on="0"/>
        <pt x="887" y="50" on="1"/>
        <pt x="757" y="8" on="0"/>
        <pt x="494" y="0" on="0"/>
        <pt x="421" y="0" on="1"/>
      </contour>
      <contour>
        <pt x="969" y="377" on="1"/>
        <pt x="969" y="634" on="0"/>
        <pt x="611" y="634" on="1"/>
        <pt x="408" y="634" on="1"/>
        <pt x="380" y="494" on="0"/>
        <pt x="330" y="225" on="0"/>
        <pt x="301" y="88" on="1"/>
        <pt x="503" y="88" on="1"/>
        <pt x="785" y="88" on="0"/>
        <pt x="893" y="187" on="1"/>
        <pt x="969" y="256" on="0"/>
      </contour>
      <contour>
        <pt x="600" y="706" on="1"/>
        <pt x="835" y="706" on="0"/>
        <pt x="950" y="801" on="1"/>
        <pt x="1025" y="863" on="0"/>
        <pt x="1025" y="958" on="1"/>
        <pt x="1025" y="1114" on="0"/>
        <pt x="840" y="1170" on="1"/>
        <pt x="774" y="1190" on="0"/>
        <pt x="718" y="1190" on="1"/>
        <pt x="617" y="1190" on="0"/>
        <pt x="579" y="1168" on="1"/>
        <pt x="528" y="1140" on="0"/>
        <pt x="506" y="1054" on="1"/>
        <pt x="459" y="878" on="0"/>
        <pt x="423" y="706" on="1"/>
      </contour>
    </TTGlyph>
    <TTGlyph name="C" xMin="101" yMin="-34" xMax="1254" yMax="1301">
      <contour>
        <pt x="592" y="-34" on="1"/>
        <pt x="487" y="-34" on="0"/>
        <pt x="298" y="73" on="0"/>
        <pt x="233" y="160" on="1"/>
        <pt x="101" y="335" on="0"/>
        <pt x="101" y="574" on="1"/>
        <pt x="101" y="753" on="0"/>
        <pt x="278" y="1091" on="0"/>
        <pt x="588" y="1301" on="0"/>
        <pt x="950" y="1301" on="0"/>
        <pt x="1088" y="1222" on="1"/>
        <pt x="1254" y="1129" on="0"/>
        <pt x="1254" y="961" on="1"/>
        <pt x="1254" y="927" on="0"/>
        <pt x="1212" y="877" on="0"/>
        <pt x="1147" y="877" on="0"/>
        <pt x="1111" y="905" on="0"/>
        <pt x="1088" y="950" on="0"/>
        <pt x="1070" y="1008" on="0"/>
        <pt x="1058" y="1038" on="1"/>
        <pt x="997" y="1199" on="0"/>
        <pt x="816" y="1199" on="1"/>
        <pt x="570" y="1199" on="0"/>
        <pt x="426" y="960" on="1"/>
        <pt x="384" y="891" on="0"/>
        <pt x="299" y="660" on="0"/>
        <pt x="299" y="546" on="1"/>
        <pt x="299" y="330" on="0"/>
        <pt x="374" y="217" on="1"/>
        <pt x="463" y="84" on="0"/>
        <pt x="638" y="84" on="1"/>
        <pt x="773" y="84" on="0"/>
        <pt x="1027" y="249" on="0"/>
        <pt x="1098" y="372" on="1"/>
        <pt x="1183" y="304" on="1"/>
        <pt x="1093" y="153" on="0"/>
        <pt x="783" y="-34" on="0"/>
      </contour>
    </TTGlyph>
    <TTGlyph name="Cacute" xMin="101" yMin="-34" xMax="1254" yMax="1828">
      <component glyphName="C" x="0" y="0" flags="0x1204"/>
      <component glyphName="acute" x="633" y="392" flags="0x1004"/>
    </TTGlyph>
    <TTGlyph name="Ccaron" xMin="101" yMin="-34" xMax="1254" yMax="1857">
      <component glyphName="C" x="0" y="0" flags="0x1204"/>
      <component glyphName="caron" x="388" y="392" flags="0x1004"/>
    </TTGlyph>
    <TTGlyph name="Ccedilla" xMin="101" yMin="-451" xMax="1254" yMax="1301">
      <component glyphName="C" x="0" y="0" flags="0x1204"/>
      <component glyphName="cedilla" x="317" y="0" flags="0x1004"/>
    </TTGlyph>
    <TTGlyph name="Ccircumflex" xMin="101" yMin="-34" xMax="1254" yMax="1814">
      <component glyphName="C" x="0" y="0" flags="0x1204"/>
      <component glyphName="circumflex" x="373" y="392" flags="0x1004"/>
    </TTGlyph>
    <TTGlyph name="D" xMin="-60" yMin="0" xMax="1302" yMax="1264">
      <contour>
        <pt x="617" y="88" on="1"/>
        <pt x="767" y="88" on="0"/>
        <pt x="886" y="224" on="1"/>
        <pt x="988" y="339" on="0"/>
        <pt x="1105" y="694" on="0"/>
        <pt x="1105" y="910" on="0"/>
        <pt x="1061" y="1039" on="0"/>
        <pt x="1018" y="1087" on="1"/>
        <pt x="927" y="1190" on="0"/>
        <pt x="765" y="1190" on="1"/>
        <pt x="678" y="1190" on="1"/>
        <pt x="611" y="1190" on="0"/>
        <pt x="534" y="1154" on="0"/>
        <pt x="519" y="1097" on="1"/>
        <pt x="303" y="88" on="1"/>
      </contour>
      <contour>
        <pt x="756" y="1264" on="1"/>
        <pt x="982" y="1264" on="0"/>
        <pt x="1302" y="983" on="0"/>
        <pt x="1302" y="762" on="1"/>
        <pt x="1302" y="579" on="0"/>
        <pt x="1128" y="225" on="0"/>
        <pt x="823" y="0" on="0"/>
        <pt x="635" y="0" on="1"/>
        <pt x="-53" y="0" on="1"/>
        <pt x="-60" y="18" on="1"/>
        <pt x="-42" y="73" on="1"/>
        <pt x="43" y="73" on="0"/>
        <pt x="77" y="95" on="1"/>
        <pt x="132" y="131" on="0"/>
        <pt x="155" y="213" on="1"/>
        <pt x="346" y="950" on="0"/>
        <pt x="346" y="1094" on="1"/>
        <pt x="346" y="1172" on="0"/>
        <pt x="261" y="1182" on="1"/>
        <pt x="239" y="1184" on="0"/>
        <pt x="176" y="1191" on="0"/>
        <pt x="176" y="1209" on="1"/>
        <pt x="176" y="1240" on="0"/>
        <pt x="197" y="1264" on="1"/>
      </contour>
    </TTGlyph>
    <TTGlyph name="Dcaron" xMin="-60" yMin="0" xMax="1302" yMax="1857">
      <component glyphName="D" x="0" y="0" flags="0x1204"/>
      <component glyphName="caron" x="209" y="392" flags="0x1004"/>
    </TTGlyph>
    <TTGlyph name="Dcroat" xMin="-60" yMin="0" xMax="1302" yMax="1521">
      <component glyphName="D" x="0" y="0" flags="0x1204"/>
      <component glyphName="macron" x="184" y="392" flags="0x1004"/>
    </TTGlyph>
    <TTGlyph name="E" xMin="-60" yMin="0" xMax="1192" yMax="1264">
      <contour>
        <pt x="1192" y="969" on="1"/>
        <pt x="1164" y="943" on="0"/>
        <pt x="1108" y="943" on="0"/>
        <pt x="1090" y="961" on="1"/>
        <pt x="1081" y="996" on="0"/>
        <pt x="1072" y="1036" on="1"/>
        <pt x="1035" y="1190" on="0"/>
        <pt x="925" y="1190" on="1"/>
        <pt x="591" y="1190" on="1"/>
        <pt x="532" y="1190" on="0"/>
        <pt x="516" y="1110" on="1"/>
        <pt x="421" y="703" on="1"/>
        <pt x="726" y="703" on="1"/>
        <pt x="780" y="703" on="0"/>
        <pt x="828" y="749" on="0"/>
        <pt x="851" y="780" on="0"/>
        <pt x="897" y="826" on="0"/>
        <pt x="949" y="826" on="1"/>
        <pt x="857" y="476" on="1"/>
        <pt x="811" y="476" on="1"/>
        <pt x="802" y="574" on="0"/>
        <pt x="756" y="612" on="1"/>
        <pt x="737" y="628" on="0"/>
        <pt x="710" y="628" on="1"/>
        <pt x="404" y="628" on="1"/>
        <pt x="391" y="568" on="0"/>
        <pt x="354" y="443" on="0"/>
        <pt x="298" y="229" on="0"/>
        <pt x="298" y="128" on="1"/>
        <pt x="298" y="110" on="0"/>
        <pt x="326" y="88" on="0"/>
        <pt x="349" y="88" on="1"/>
        <pt x="673" y="88" on="1"/>
        <pt x="837" y="88" on="0"/>
        <pt x="920" y="208" on="1"/>
        <pt x="946" y="246" on="0"/>
        <pt x="959" y="296" on="1"/>
        <pt x="998" y="313" on="0"/>
        <pt x="1049" y="313" on="0"/>
        <pt x="1076" y="307" on="0"/>
        <pt x="1088" y="305" on="1"/>
        <pt x="976" y="0" on="1"/>
        <pt x="-53" y="0" on="1"/>
        <pt x="-60" y="19" on="1"/>
        <pt x="-60" y="49" on="0"/>
        <pt x="-39" y="75" on="1"/>
        <pt x="38" y="75" on="0"/>
        <pt x="121" y="140" on="0"/>
        <pt x="153" y="274" on="0"/>
        <pt x="193" y="419" on="0"/>
        <pt x="214" y="498" on="1"/>
        <pt x="334" y="937" on="0"/>
        <pt x="334" y="1062" on="1"/>
        <pt x="334" y="1129" on="0"/>
        <pt x="320" y="1147" on="1"/>
        <pt x="292" y="1185" on="0"/>
        <pt x="192" y="1190" on="1"/>
        <pt x="185" y="1204" on="0"/>
        <pt x="185" y="1238" on="0"/>
        <pt x="206" y="1264" on="1"/>
        <pt x="1191" y="1264" on="1"/>
      </contour>
    </TTGlyph>
    <TTGlyph name="Eacute" xMin="-60" yMin="0" xMax="1192" yMax="1828">
      <component glyphName="E" x="0" y="0" flags="0x1204"/>
      <component glyphName="acute" x="399" y="392" flags="0x1004"/>
    </TTGlyph>
    <TTGlyph name="Ecaron" xMin="-60" yMin="0" xMax="1192" yMax="1857">
      <component glyphName="E" x="0" y="0" flags="0x1204"/>
      <component glyphName="caron" x="154" y="392" flags="0x1004"/>
    </TTGlyph>
    <TTGlyph name="Ecircumflex" xMin="16" yMin="370" xMax="1638" yMax="503">
      <contour>
        <pt x="16" y="451" on="1"/>
        <pt x="16" y="503" on="0"/>
        <pt x="50" y="503" on="1"/>
        <pt x="1594" y="503" on="1"/>
        <pt x="1618" y="503" on="0"/>
        <pt x="1634" y="422" on="1"/>
        <pt x="1638" y="405" on="0"/>
        <pt x="1638" y="392" on="0"/>
        <pt x="1636" y="392" on="1"/>
        <pt x="58" y="370" on="1"/>
        <pt x="28" y="370" on="0"/>
        <pt x="18" y="426" on="1"/>
        <pt x="16" y="440" on="0"/>
      </contour>
    </TTGlyph>
    <TTGlyph name="Edieresis" xMin="-60" yMin="0" xMax="1192" yMax="1692">
      <component glyphName="E" x="0" y="0" flags="0x1204"/>
      <component glyphName="dieresis" x="174" y="393" flags="0x1004"/>
    </TTGlyph>
    <TTGlyph name="Egrave" xMin="-60" yMin="0" xMax="1192" yMax="1829">
      <component glyphName="E" x="0" y="0" flags="0x1204"/>
      <component glyphName="grave" x="220" y="393" flags="0x1004"/>
    </TTGlyph>
    <TTGlyph name="Emacron" xMin="-60" yMin="0" xMax="1192" yMax="1502">
      <component glyphName="E" x="0" y="0" flags="0x1204"/>
      <component glyphName="macron" x="70" y="373" flags="0x1004"/>
    </TTGlyph>
    <TTGlyph name="Eogonek" xMin="-60" yMin="-355" xMax="1192" yMax="1264">
      <component glyphName="E" x="0" y="0" flags="0x1204"/>
      <component glyphName="ogonek" x="295" y="0" flags="0x1004"/>
    </TTGlyph>
    <TTGlyph name="Eth" xMin="-60" yMin="0" xMax="1302" yMax="1264">
      <contour>
        <pt x="-53" y="0" on="1"/>
        <pt x="-60" y="0" on="0"/>
        <pt x="-60" y="11" on="1"/>
        <pt x="-60" y="29" on="0"/>
        <pt x="-45" y="73" on="0"/>
        <pt x="-37" y="73" on="1"/>
        <pt x="44" y="73" on="0"/>
        <pt x="78" y="96" on="1"/>
        <pt x="138" y="135" on="0"/>
        <pt x="166" y="261" on="0"/>
        <pt x="217" y="474" on="0"/>
        <pt x="248" y="610" on="1"/>
        <pt x="81" y="610" on="1"/>
        <pt x="88" y="645" on="1"/>
        <pt x="104" y="725" on="0"/>
        <pt x="116" y="725" on="1"/>
        <pt x="274" y="725" on="1"/>
        <pt x="346" y="1032" on="0"/>
        <pt x="346" y="1127" on="0"/>
        <pt x="321" y="1162" on="0"/>
        <pt x="283" y="1180" on="0"/>
        <pt x="239" y="1184" on="0"/>
        <pt x="176" y="1191" on="0"/>
        <pt x="176" y="1209" on="1"/>
        <pt x="176" y="1240" on="0"/>
        <pt x="197" y="1264" on="1"/>
        <pt x="756" y="1264" on="1"/>
        <pt x="982" y="1264" on="0"/>
        <pt x="1302" y="984" on="0"/>
        <pt x="1302" y="762" on="1"/>
        <pt x="1302" y="579" on="0"/>
        <pt x="1128" y="225" on="0"/>
        <pt x="823" y="0" on="0"/>
        <pt x="635" y="0" on="1"/>
      </contour>
      <contour>
        <pt x="640" y="725" on="1"/>
        <pt x="617" y="610" on="0"/>
        <pt x="603" y="610" on="1"/>
        <pt x="414" y="610" on="1"/>
        <pt x="300" y="74" on="1"/>
        <pt x="614" y="74" on="1"/>
        <pt x="762" y="74" on="0"/>
        <pt x="986" y="333" on="0"/>
        <pt x="1105" y="693" on="0"/>
        <pt x="1105" y="804" on="1"/>
        <pt x="1105" y="1002" on="0"/>
        <pt x="927" y="1213" on="0"/>
        <pt x="765" y="1213" on="1"/>
        <pt x="678" y="1213" on="1"/>
        <pt x="607" y="1213" on="0"/>
        <pt x="580" y="1195" on="1"/>
        <pt x="532" y="1163" on="0"/>
        <pt x="519" y="1097" on="1"/>
        <pt x="439" y="725" on="1"/>
      </contour>
    </TTGlyph>
    <TTGlyph name="Euro" xMin="38" yMin="-6" xMax="1130" yMax="1273">
      <contour>
        <pt x="122" y="716" on="1"/>
        <pt x="97" y="727" on="0"/>
        <pt x="97" y="762" on="0"/>
        <pt x="123" y="772" on="0"/>
        <pt x="178" y="772" on="1"/>
        <pt x="237" y="772" on="1"/>
        <pt x="316" y="988" on="0"/>
        <pt x="634" y="1273" on="0"/>
        <pt x="1041" y="1273" on="0"/>
        <pt x="1110" y="1169" on="1"/>
        <pt x="1130" y="1139" on="0"/>
        <pt x="1130" y="1079" on="1"/>
        <pt x="1126" y="972" on="1"/>
        <pt x="1126" y="957" on="1"/>
        <pt x="1035" y="957" on="1"/>
        <pt x="1001" y="1230" on="0"/>
        <pt x="799" y="1230" on="1"/>
        <pt x="612" y="1230" on="0"/>
        <pt x="479" y="974" on="1"/>
        <pt x="437" y="894" on="0"/>
        <pt x="406" y="794" on="1"/>
        <pt x="399" y="772" on="1"/>
        <pt x="605" y="772" on="1"/>
        <pt x="764" y="772" on="0"/>
        <pt x="866" y="754" on="1"/>
        <pt x="845" y="716" on="0"/>
        <pt x="803" y="716" on="1"/>
        <pt x="384" y="716" on="1"/>
        <pt x="371" y="662" on="1"/>
        <pt x="364" y="633" on="0"/>
        <pt x="357" y="581" on="0"/>
        <pt x="353" y="553" on="1"/>
        <pt x="549" y="553" on="1"/>
        <pt x="701" y="553" on="0"/>
        <pt x="797" y="537" on="1"/>
        <pt x="791" y="531" on="0"/>
        <pt x="786" y="524" on="1"/>
        <pt x="767" y="497" on="0"/>
        <pt x="732" y="497" on="1"/>
        <pt x="346" y="497" on="1"/>
        <pt x="343" y="458" on="0"/>
        <pt x="343" y="399" on="1"/>
        <pt x="343" y="253" on="0"/>
        <pt x="465" y="46" on="0"/>
        <pt x="725" y="46" on="0"/>
        <pt x="839" y="160" on="1"/>
        <pt x="870" y="191" on="0"/>
        <pt x="891" y="221" on="1"/>
        <pt x="966" y="199" on="1"/>
        <pt x="861" y="64" on="0"/>
        <pt x="690" y="12" on="1"/>
        <pt x="628" y="-6" on="0"/>
        <pt x="547" y="-6" on="1"/>
        <pt x="377" y="-6" on="0"/>
        <pt x="176" y="238" on="0"/>
        <pt x="176" y="438" on="1"/>
        <pt x="176" y="468" on="0"/>
        <pt x="178" y="496" on="1"/>
        <pt x="108" y="496" on="1"/>
        <pt x="55" y="496" on="0"/>
        <pt x="38" y="503" on="1"/>
        <pt x="56" y="552" on="0"/>
        <pt x="101" y="552" on="1"/>
        <pt x="181" y="552" on="1"/>
        <pt x="192" y="637" on="0"/>
        <pt x="211" y="694" on="1"/>
        <pt x="218" y="716" on="1"/>
      </contour>
    </TTGlyph>
    <TTGlyph name="F" xMin="-60" yMin="0" xMax="1159" yMax="1264">
      <contour>
        <pt x="1159" y="965" on="1"/>
        <pt x="1131" y="939" on="0"/>
        <pt x="1076" y="939" on="0"/>
        <pt x="1058" y="957" on="1"/>
        <pt x="1049" y="991" on="0"/>
        <pt x="1040" y="1032" on="1"/>
        <pt x="1003" y="1190" on="0"/>
        <pt x="892" y="1190" on="1"/>
        <pt x="605" y="1190" on="1"/>
        <pt x="546" y="1190" on="0"/>
        <pt x="530" y="1110" on="1"/>
        <pt x="425" y="646" on="1"/>
        <pt x="764" y="646" on="1"/>
        <pt x="827" y="646" on="0"/>
        <pt x="880" y="707" on="1"/>
        <pt x="900" y="730" on="0"/>
        <pt x="929" y="768" on="0"/>
        <pt x="940" y="768" on="1"/>
        <pt x="1007" y="768" on="1"/>
        <pt x="914" y="419" on="1"/>
        <pt x="858" y="419" on="1"/>
        <pt x="849" y="523" on="0"/>
        <pt x="804" y="564" on="1"/>
        <pt x="785" y="581" on="0"/>
        <pt x="757" y="581" on="1"/>
        <pt x="409" y="581" on="1"/>
        <pt x="398" y="530" on="0"/>
        <pt x="368" y="426" on="0"/>
        <pt x="321" y="251" on="0"/>
        <pt x="321" y="82" on="0"/>
        <pt x="486" y="74" on="1"/>
        <pt x="487" y="67" on="0"/>
        <pt x="490" y="52" on="0"/>
        <pt x="490" y="16" on="0"/>
        <pt x="476" y="0" on="1"/>
        <pt x="-52" y="0" on="1"/>
        <pt x="-60" y="19" on="1"/>
        <pt x="-60" y="51" on="0"/>
        <pt x="-38" y="75" on="1"/>
        <pt x="47" y="75" on="0"/>
        <pt x="82" y="98" on="1"/>
        <pt x="140" y="136" on="0"/>
        <pt x="174" y="273" on="0"/>
        <pt x="214" y="418" on="0"/>
        <pt x="236" y="498" on="1"/>
        <pt x="354" y="939" on="0"/>
        <pt x="354" y="1064" on="1"/>
        <pt x="354" y="1128" on="0"/>
        <pt x="329" y="1165" on="0"/>
        <pt x="285" y="1184" on="0"/>
        <pt x="213" y="1190" on="1"/>
        <pt x="208" y="1207" on="0"/>
        <pt x="208" y="1249" on="0"/>
        <pt x="223" y="1264" on="1"/>
        <pt x="1159" y="1264" on="1"/>
      </contour>
    </TTGlyph>
    <TTGlyph name="G" xMin="101" yMin="-34" xMax="1297" yMax="1301">
      <contour>
        <pt x="950" y="431" on="1"/>
        <pt x="950" y="525" on="0"/>
        <pt x="800" y="531" on="1"/>
        <pt x="816" y="607" on="1"/>
        <pt x="1297" y="607" on="1"/>
        <pt x="1274" y="531" on="1"/>
        <pt x="1167" y="531" on="0"/>
        <pt x="1108" y="355" on="1"/>
        <pt x="1080" y="272" on="0"/>
        <pt x="1047" y="121" on="0"/>
        <pt x="1038" y="92" on="1"/>
        <pt x="853" y="-34" on="0"/>
        <pt x="640" y="-34" on="1"/>
        <pt x="382" y="-34" on="0"/>
        <pt x="101" y="320" on="0"/>
        <pt x="101" y="586" on="1"/>
        <pt x="101" y="769" on="0"/>
        <pt x="195" y="936" on="1"/>
        <pt x="339" y="1190" on="0"/>
        <pt x="607" y="1274" on="1"/>
        <pt x="695" y="1301" on="0"/>
        <pt x="780" y="1301" on="1"/>
        <pt x="960" y="1301" on="0"/>
        <pt x="1085" y="1216" on="1"/>
        <pt x="1228" y="1120" on="0"/>
        <pt x="1228" y="958" on="1"/>
        <pt x="1228" y="925" on="0"/>
        <pt x="1186" y="874" on="0"/>
        <pt x="1151" y="874" on="1"/>
        <pt x="1116" y="874" on="0"/>
        <pt x="1083" y="922" on="0"/>
        <pt x="1060" y="994" on="0"/>
        <pt x="1047" y="1036" on="1"/>
        <pt x="997" y="1199" on="0"/>
        <pt x="794" y="1199" on="1"/>
        <pt x="646" y="1199" on="0"/>
        <pt x="418" y="992" on="0"/>
        <pt x="295" y="687" on="0"/>
        <pt x="295" y="365" on="0"/>
        <pt x="384" y="230" on="1"/>
        <pt x="486" y="74" on="0"/>
        <pt x="656" y="74" on="1"/>
        <pt x="789" y="74" on="0"/>
        <pt x="887" y="139" on="1"/>
        <pt x="897" y="173" on="0"/>
        <pt x="908" y="210" on="1"/>
        <pt x="950" y="349" on="0"/>
      </contour>
    </TTGlyph>
    <TTGlyph name="Gcedilla" xMin="101" yMin="-561" xMax="1297" yMax="1301">
      <component glyphName="G" x="0" y="0" flags="0x1204"/>
      <component glyphName="commaaccent" x="271" y="0" flags="0x1004"/>
    </TTGlyph>
    <TTGlyph name="H" xMin="-60" yMin="0" xMax="1481" yMax="1264">
      <contour>
        <pt x="1226" y="74" on="1"/>
        <pt x="1231" y="57" on="0"/>
        <pt x="1231" y="14" on="0"/>
        <pt x="1215" y="0" on="1"/>
        <pt x="702" y="0" on="1"/>
        <pt x="694" y="19" on="1"/>
        <pt x="714" y="74" on="1"/>
        <pt x="795" y="74" on="0"/>
        <pt x="827" y="98" on="1"/>
        <pt x="881" y="139" on="0"/>
        <pt x="900" y="217" on="1"/>
        <pt x="998" y="632" on="1"/>
        <pt x="427" y="632" on="1"/>
        <pt x="413" y="576" on="0"/>
        <pt x="377" y="459" on="0"/>
        <pt x="321" y="257" on="0"/>
        <pt x="321" y="132" on="0"/>
        <pt x="337" y="114" on="1"/>
        <pt x="370" y="79" on="0"/>
        <pt x="480" y="74" on="1"/>
        <pt x="481" y="67" on="0"/>
        <pt x="484" y="52" on="0"/>
        <pt x="484" y="16" on="0"/>
        <pt x="468" y="0" on="1"/>
        <pt x="-53" y="0" on="1"/>
        <pt x="-60" y="19" on="1"/>
        <pt x="-39" y="75" on="1"/>
        <pt x="46" y="75" on="0"/>
        <pt x="79" y="98" on="1"/>
        <pt x="135" y="137" on="0"/>
        <pt x="168" y="273" on="0"/>
        <pt x="208" y="419" on="0"/>
        <pt x="230" y="500" on="1"/>
        <pt x="279" y="675" on="0"/>
        <pt x="353" y="1009" on="0"/>
        <pt x="353" y="1105" on="1"/>
        <pt x="353" y="1179" on="0"/>
        <pt x="244" y="1187" on="1"/>
        <pt x="216" y="1189" on="0"/>
        <pt x="194" y="1190" on="1"/>
        <pt x="193" y="1198" on="0"/>
        <pt x="190" y="1211" on="0"/>
        <pt x="190" y="1248" on="0"/>
        <pt x="206" y="1264" on="1"/>
        <pt x="719" y="1264" on="1"/>
        <pt x="726" y="1250" on="0"/>
        <pt x="726" y="1220" on="0"/>
        <pt x="706" y="1190" on="1"/>
        <pt x="623" y="1190" on="0"/>
        <pt x="591" y="1166" on="1"/>
        <pt x="538" y="1128" on="0"/>
        <pt x="520" y="1046" on="1"/>
        <pt x="439" y="691" on="1"/>
        <pt x="1010" y="691" on="1"/>
        <pt x="1022" y="741" on="0"/>
        <pt x="1053" y="843" on="0"/>
        <pt x="1099" y="1018" on="0"/>
        <pt x="1099" y="1133" on="0"/>
        <pt x="1066" y="1168" on="0"/>
        <pt x="1013" y="1186" on="0"/>
        <pt x="940" y="1189" on="1"/>
        <pt x="939" y="1197" on="0"/>
        <pt x="936" y="1211" on="0"/>
        <pt x="936" y="1248" on="0"/>
        <pt x="952" y="1264" on="1"/>
        <pt x="1473" y="1264" on="1"/>
        <pt x="1481" y="1244" on="1"/>
        <pt x="1460" y="1188" on="1"/>
        <pt x="1373" y="1188" on="0"/>
        <pt x="1340" y="1166" on="1"/>
        <pt x="1286" y="1128" on="0"/>
        <pt x="1267" y="1047" on="1"/>
        <pt x="1255" y="1000" on="0"/>
        <pt x="1216" y="854" on="0"/>
        <pt x="1194" y="768" on="1"/>
        <pt x="1067" y="275" on="0"/>
        <pt x="1067" y="181" on="1"/>
        <pt x="1067" y="131" on="0"/>
        <pt x="1084" y="114" on="1"/>
        <pt x="1116" y="79" on="0"/>
      </contour>
    </TTGlyph>
    <TTGlyph name="I" xMin="-61" yMin="0" xMax="709" yMax="1264">
      <contour>
        <pt x="-52" y="0" on="1"/>
        <pt x="-61" y="10" on="0"/>
        <pt x="-61" y="52" on="0"/>
        <pt x="-39" y="76" on="1"/>
        <pt x="46" y="76" on="0"/>
        <pt x="79" y="98" on="1"/>
        <pt x="135" y="137" on="0"/>
        <pt x="168" y="275" on="0"/>
        <pt x="206" y="421" on="0"/>
        <pt x="226" y="501" on="1"/>
        <pt x="340" y="944" on="0"/>
        <pt x="340" y="1069" on="1"/>
        <pt x="340" y="1133" on="0"/>
        <pt x="326" y="1150" on="1"/>
        <pt x="297" y="1185" on="0"/>
        <pt x="195" y="1190" on="1"/>
        <pt x="194" y="1198" on="0"/>
        <pt x="191" y="1211" on="0"/>
        <pt x="191" y="1249" on="0"/>
        <pt x="206" y="1264" on="1"/>
        <pt x="702" y="1264" on="1"/>
        <pt x="709" y="1250" on="0"/>
        <pt x="709" y="1218" on="0"/>
        <pt x="688" y="1190" on="1"/>
        <pt x="601" y="1190" on="0"/>
        <pt x="568" y="1168" on="1"/>
        <pt x="515" y="1130" on="0"/>
        <pt x="481" y="989" on="0"/>
        <pt x="443" y="843" on="0"/>
        <pt x="422" y="763" on="1"/>
        <pt x="310" y="324" on="0"/>
        <pt x="310" y="195" on="1"/>
        <pt x="310" y="133" on="0"/>
        <pt x="338" y="98" on="0"/>
        <pt x="388" y="77" on="0"/>
        <pt x="455" y="74" on="1"/>
        <pt x="456" y="67" on="0"/>
        <pt x="459" y="52" on="0"/>
        <pt x="459" y="15" on="0"/>
        <pt x="444" y="0" on="1"/>
      </contour>
    </TTGlyph>
    <TTGlyph name="IJ" xMin="-72" yMin="-303" xMax="1780" yMax="1358">
      <contour>
        <pt x="1090" y="1097" on="1"/>
        <pt x="1164" y="1097" on="0"/>
        <pt x="1164" y="1037" on="1"/>
        <pt x="1164" y="948" on="0"/>
        <pt x="1078" y="948" on="1"/>
        <pt x="1021" y="948" on="0"/>
        <pt x="956" y="1058" on="0"/>
        <pt x="956" y="1112" on="1"/>
        <pt x="956" y="1217" on="0"/>
        <pt x="1089" y="1358" on="0"/>
        <pt x="1295" y="1358" on="0"/>
        <pt x="1358" y="1277" on="1"/>
        <pt x="1358" y="1275" on="1"/>
        <pt x="1468" y="1158" on="0"/>
        <pt x="1507" y="1144" on="1"/>
        <pt x="1520" y="1140" on="0"/>
        <pt x="1537" y="1134" on="1"/>
        <pt x="1632" y="1347" on="0"/>
        <pt x="1718" y="1347" on="1"/>
        <pt x="1780" y="1347" on="0"/>
        <pt x="1780" y="1284" on="1"/>
        <pt x="1780" y="1241" on="0"/>
        <pt x="1726" y="1190" on="0"/>
        <pt x="1688" y="1163" on="0"/>
        <pt x="1630" y="1120" on="0"/>
        <pt x="1625" y="1091" on="1"/>
        <pt x="1565" y="756" on="1"/>
        <pt x="1716" y="756" on="1"/>
        <pt x="1699" y="665" on="1"/>
        <pt x="1556" y="665" on="1"/>
        <pt x="1464" y="192" on="1"/>
        <pt x="1468" y="195" on="1"/>
        <pt x="1419" y="-57" on="0"/>
        <pt x="1211" y="-303" on="0"/>
        <pt x="1027" y="-303" on="1"/>
        <pt x="894" y="-303" on="0"/>
        <pt x="808" y="-246" on="1"/>
        <pt x="759" y="-213" on="0"/>
        <pt x="757" y="-168" on="1"/>
        <pt x="757" y="-166" on="1"/>
        <pt x="757" y="-129" on="0"/>
        <pt x="805" y="-94" on="0"/>
        <pt x="862" y="-94" on="0"/>
        <pt x="917" y="-132" on="0"/>
        <pt x="1022" y="-217" on="0"/>
        <pt x="1062" y="-217" on="1"/>
        <pt x="1139" y="-217" on="0"/>
        <pt x="1233" y="-80" on="0"/>
        <pt x="1265" y="70" on="1"/>
        <pt x="1389" y="668" on="1"/>
        <pt x="1190" y="668" on="1"/>
        <pt x="1206" y="762" on="1"/>
        <pt x="1416" y="762" on="1"/>
        <pt x="1482" y="1086" on="1"/>
        <pt x="1380" y="1090" on="0"/>
        <pt x="1313" y="1123" on="0"/>
        <pt x="1294" y="1142" on="1"/>
        <pt x="1183" y="1252" on="1"/>
        <pt x="1157" y="1278" on="0"/>
        <pt x="1128" y="1278" on="1"/>
        <pt x="1078" y="1278" on="0"/>
        <pt x="1015" y="1196" on="0"/>
        <pt x="1015" y="1118" on="0"/>
        <pt x="1026" y="1110" on="1"/>
        <pt x="1044" y="1097" on="0"/>
      </contour>
      <contour>
        <pt x="-64" y="27" on="1"/>
        <pt x="-71" y="27" on="0"/>
        <pt x="-71" y="45" on="1"/>
        <pt x="-72" y="45" on="1"/>
        <pt x="-72" y="66" on="0"/>
        <pt x="-55" y="98" on="0"/>
        <pt x="-52" y="98" on="1"/>
        <pt x="20" y="98" on="0"/>
        <pt x="51" y="114" on="1"/>
        <pt x="110" y="147" on="0"/>
        <pt x="130" y="231" on="1"/>
        <pt x="311" y="1017" on="1"/>
        <pt x="316" y="1044" on="0"/>
        <pt x="316" y="1063" on="1"/>
        <pt x="316" y="1104" on="0"/>
        <pt x="275" y="1120" on="1"/>
        <pt x="247" y="1132" on="0"/>
        <pt x="164" y="1137" on="1"/>
        <pt x="160" y="1137" on="0"/>
        <pt x="160" y="1207" on="0"/>
        <pt x="175" y="1207" on="1"/>
        <pt x="664" y="1207" on="1"/>
        <pt x="671" y="1207" on="0"/>
        <pt x="671" y="1169" on="0"/>
        <pt x="655" y="1137" on="0"/>
        <pt x="652" y="1137" on="1"/>
        <pt x="582" y="1137" on="0"/>
        <pt x="552" y="1120" on="1"/>
        <pt x="493" y="1088" on="0"/>
        <pt x="475" y="1004" on="1"/>
        <pt x="295" y="217" on="1"/>
        <pt x="290" y="192" on="0"/>
        <pt x="290" y="172" on="1"/>
        <pt x="290" y="132" on="0"/>
        <pt x="368" y="99" on="0"/>
        <pt x="442" y="97" on="1"/>
        <pt x="446" y="97" on="0"/>
        <pt x="446" y="27" on="0"/>
        <pt x="431" y="27" on="1"/>
      </contour>
    </TTGlyph>
    <TTGlyph name="Iacute" xMin="-61" yMin="0" xMax="709" yMax="1828">
      <component glyphName="I" x="0" y="0" flags="0x1204"/>
      <component glyphName="acute" x="157" y="392" flags="0x1004"/>
    </TTGlyph>
    <TTGlyph name="Icircumflex" xMin="-61" yMin="0" xMax="709" yMax="1814">
      <component glyphName="I" x="0" y="0" flags="0x1204"/>
      <component glyphName="circumflex" x="-102" y="392" flags="0x1004"/>
    </TTGlyph>
    <TTGlyph name="Idieresis" xMin="-61" yMin="0" xMax="782" yMax="1692">
      <component glyphName="I" x="0" y="0" flags="0x1204"/>
      <component glyphName="dieresis" x="-67" y="393" flags="0x1004"/>
    </TTGlyph>
    <TTGlyph name="Igrave" xMin="-61" yMin="0" xMax="709" yMax="1829">
      <component glyphName="I" x="0" y="0" flags="0x1204"/>
      <component glyphName="grave" x="-21" y="393" flags="0x1004"/>
    </TTGlyph>
    <TTGlyph name="Imacron" xMin="-61" yMin="0" xMax="709" yMax="1502">
      <component glyphName="I" x="0" y="0" flags="0x1204"/>
      <component glyphName="macron" x="-171" y="373" flags="0x1004"/>
    </TTGlyph>
    <TTGlyph name="Iogonek" xMin="-132" yMin="-340" xMax="693" yMax="1264">
      <component glyphName="I" x="-16" y="0" flags="0x1004"/>
      <component glyphName="ogonek" x="-236" y="15" flags="0x1004"/>
    </TTGlyph>
    <TTGlyph name="Itilde" xMin="-61" yMin="0" xMax="761" yMax="1599">
      <component glyphName="I" x="0" y="0" flags="0x1204"/>
      <component glyphName="tilde" x="-86" y="393" flags="0x1004"/>
    </TTGlyph>
    <TTGlyph name="J" xMin="-213" yMin="-267" xMax="891" yMax="1264">
      <contour>
        <pt x="884" y="1264" on="1"/>
        <pt x="891" y="1264" on="0"/>
        <pt x="891" y="1216" on="0"/>
        <pt x="870" y="1190" on="1"/>
        <pt x="784" y="1190" on="0"/>
        <pt x="751" y="1168" on="1"/>
        <pt x="692" y="1129" on="0"/>
        <pt x="677" y="1047" on="1"/>
        <pt x="526" y="260" on="1"/>
        <pt x="464" y="-70" on="0"/>
        <pt x="319" y="-187" on="1"/>
        <pt x="220" y="-267" on="0"/>
        <pt x="77" y="-267" on="1"/>
        <pt x="-9" y="-267" on="0"/>
        <pt x="-70" y="-246" on="1"/>
        <pt x="-213" y="-197" on="0"/>
        <pt x="-213" y="-128" on="1"/>
        <pt x="-213" y="-84" on="0"/>
        <pt x="-161" y="-46" on="0"/>
        <pt x="-97" y="-46" on="0"/>
        <pt x="-38" y="-87" on="0"/>
        <pt x="22" y="-135" on="0"/>
        <pt x="85" y="-176" on="0"/>
        <pt x="170" y="-176" on="0"/>
        <pt x="240" y="-110" on="0"/>
        <pt x="296" y="5" on="0"/>
        <pt x="321" y="128" on="1"/>
        <pt x="517" y="1061" on="1"/>
        <pt x="522" y="1088" on="0"/>
        <pt x="522" y="1110" on="1"/>
        <pt x="522" y="1184" on="0"/>
        <pt x="377" y="1190" on="1"/>
        <pt x="373" y="1199" on="0"/>
        <pt x="373" y="1251" on="0"/>
        <pt x="388" y="1264" on="1"/>
      </contour>
    </TTGlyph>
    <TTGlyph name="Jcircumflex" xMin="-213" yMin="-267" xMax="891" yMax="1814">
      <component glyphName="J" x="0" y="0" flags="0x1204"/>
      <component glyphName="circumflex" x="-87" y="392" flags="0x1004"/>
    </TTGlyph>
    <TTGlyph name="K" xMin="-60" yMin="0" xMax="1380" yMax="1264">
      <contour>
        <pt x="192" y="1197" on="0"/>
        <pt x="189" y="1212" on="0"/>
        <pt x="189" y="1247" on="0"/>
        <pt x="201" y="1264" on="1"/>
        <pt x="719" y="1264" on="1"/>
        <pt x="697" y="1190" on="1"/>
        <pt x="621" y="1189" on="0"/>
        <pt x="534" y="1121" on="0"/>
        <pt x="518" y="1046" on="1"/>
        <pt x="444" y="691" on="1"/>
        <pt x="463" y="705" on="0"/>
        <pt x="553" y="768" on="0"/>
        <pt x="609" y="808" on="1"/>
        <pt x="950" y="1052" on="0"/>
        <pt x="950" y="1110" on="1"/>
        <pt x="950" y="1160" on="0"/>
        <pt x="885" y="1182" on="1"/>
        <pt x="868" y="1187" on="0"/>
        <pt x="852" y="1189" on="1"/>
        <pt x="868" y="1264" on="1"/>
        <pt x="1380" y="1264" on="1"/>
        <pt x="1357" y="1190" on="1"/>
        <pt x="1300" y="1184" on="0"/>
        <pt x="879" y="913" on="0"/>
        <pt x="796" y="803" on="1"/>
        <pt x="775" y="776" on="0"/>
        <pt x="775" y="745" on="0"/>
        <pt x="814" y="661" on="0"/>
        <pt x="875" y="548" on="0"/>
        <pt x="947" y="420" on="0"/>
        <pt x="1014" y="304" on="0"/>
        <pt x="1066" y="215" on="0"/>
        <pt x="1078" y="193" on="1"/>
        <pt x="1109" y="137" on="0"/>
        <pt x="1176" y="77" on="0"/>
        <pt x="1235" y="75" on="1"/>
        <pt x="1221" y="0" on="1"/>
        <pt x="781" y="0" on="1"/>
        <pt x="802" y="74" on="1"/>
        <pt x="865" y="79" on="0"/>
        <pt x="894" y="110" on="1"/>
        <pt x="906" y="122" on="0"/>
        <pt x="906" y="146" on="0"/>
        <pt x="870" y="228" on="0"/>
        <pt x="814" y="346" on="0"/>
        <pt x="747" y="484" on="0"/>
        <pt x="685" y="609" on="0"/>
        <pt x="637" y="706" on="0"/>
        <pt x="628" y="724" on="1"/>
        <pt x="419" y="580" on="1"/>
        <pt x="408" y="530" on="0"/>
        <pt x="378" y="428" on="0"/>
        <pt x="331" y="255" on="0"/>
        <pt x="331" y="81" on="0"/>
        <pt x="478" y="75" on="1"/>
        <pt x="464" y="0" on="1"/>
        <pt x="-52" y="0" on="1"/>
        <pt x="-60" y="19" on="1"/>
        <pt x="-38" y="75" on="1"/>
        <pt x="47" y="75" on="0"/>
        <pt x="82" y="98" on="1"/>
        <pt x="140" y="136" on="0"/>
        <pt x="160" y="216" on="1"/>
        <pt x="167" y="245" on="0"/>
        <pt x="191" y="341" on="0"/>
        <pt x="220" y="461" on="0"/>
        <pt x="252" y="597" on="0"/>
        <pt x="268" y="666" on="1"/>
        <pt x="349" y="1015" on="0"/>
        <pt x="349" y="1120" on="0"/>
        <pt x="334" y="1140" on="1"/>
        <pt x="302" y="1185" on="0"/>
        <pt x="193" y="1190" on="1"/>
      </contour>
    </TTGlyph>
    <TTGlyph name="L" xMin="-60" yMin="0" xMax="979" yMax="1264">
      <contour>
        <pt x="852" y="298" on="1"/>
        <pt x="885" y="310" on="1"/>
        <pt x="951" y="310" on="0"/>
        <pt x="979" y="304" on="1"/>
        <pt x="866" y="0" on="1"/>
        <pt x="-52" y="0" on="1"/>
        <pt x="-60" y="18" on="1"/>
        <pt x="-39" y="73" on="1"/>
        <pt x="47" y="73" on="0"/>
        <pt x="81" y="96" on="1"/>
        <pt x="137" y="133" on="0"/>
        <pt x="159" y="214" on="1"/>
        <pt x="346" y="935" on="0"/>
        <pt x="346" y="1090" on="1"/>
        <pt x="346" y="1143" on="0"/>
        <pt x="260" y="1187" on="0"/>
        <pt x="192" y="1190" on="1"/>
        <pt x="187" y="1208" on="0"/>
        <pt x="187" y="1250" on="0"/>
        <pt x="203" y="1264" on="1"/>
        <pt x="739" y="1264" on="1"/>
        <pt x="717" y="1190" on="1"/>
        <pt x="633" y="1190" on="0"/>
        <pt x="596" y="1166" on="1"/>
        <pt x="531" y="1125" on="0"/>
        <pt x="512" y="1048" on="1"/>
        <pt x="503" y="1012" on="0"/>
        <pt x="453" y="797" on="0"/>
        <pt x="418" y="648" on="0"/>
        <pt x="401" y="572" on="1"/>
        <pt x="314" y="180" on="0"/>
        <pt x="314" y="130" on="1"/>
        <pt x="314" y="74" on="0"/>
        <pt x="636" y="74" on="0"/>
        <pt x="761" y="134" on="0"/>
        <pt x="832" y="222" on="0"/>
        <pt x="852" y="296" on="1"/>
      </contour>
    </TTGlyph>
    <TTGlyph name="Lacute" xMin="-60" yMin="0" xMax="979" yMax="1828">
      <component glyphName="L" x="0" y="0" flags="0x1204"/>
      <component glyphName="acute" x="292" y="392" flags="0x1004"/>
    </TTGlyph>
    <TTGlyph name="Lcaron" xMin="-60" yMin="0" xMax="1035" yMax="1485">
      <component glyphName="L" x="0" y="0" flags="0x1204"/>
      <component glyphName="quoteright" x="619" y="268" flags="0x1004"/>
    </TTGlyph>
    <TTGlyph name="Ldotaccent" xMin="-79" yMin="0" xMax="960" yMax="1264">
      <component glyphName="L" x="-19" y="0" flags="0x1004"/>
      <component glyphName="periodcentered" x="238" y="18" flags="0x1004"/>
    </TTGlyph>
    <TTGlyph name="Lslash" xMin="-60" yMin="0" xMax="979" yMax="1264">
      <contour>
        <pt x="756" y="969" on="1"/>
        <pt x="803" y="966" on="0"/>
        <pt x="803" y="950" on="1"/>
        <pt x="803" y="933" on="0"/>
        <pt x="684" y="878" on="1"/>
        <pt x="660" y="866" on="0"/>
        <pt x="652" y="862" on="1"/>
        <pt x="53" y="612" on="1"/>
        <pt x="44" y="610" on="1"/>
        <pt x="23" y="610" on="0"/>
        <pt x="12" y="637" on="1"/>
      </contour>
      <contour>
        <pt x="852" y="298" on="1"/>
        <pt x="885" y="310" on="1"/>
        <pt x="951" y="310" on="0"/>
        <pt x="979" y="304" on="1"/>
        <pt x="866" y="0" on="1"/>
        <pt x="-52" y="0" on="1"/>
        <pt x="-60" y="18" on="1"/>
        <pt x="-39" y="73" on="1"/>
        <pt x="47" y="73" on="0"/>
        <pt x="81" y="96" on="1"/>
        <pt x="137" y="133" on="0"/>
        <pt x="159" y="214" on="1"/>
        <pt x="346" y="935" on="0"/>
        <pt x="346" y="1090" on="1"/>
        <pt x="346" y="1143" on="0"/>
        <pt x="260" y="1187" on="0"/>
        <pt x="192" y="1190" on="1"/>
        <pt x="187" y="1208" on="0"/>
        <pt x="187" y="1250" on="0"/>
        <pt x="203" y="1264" on="1"/>
        <pt x="739" y="1264" on="1"/>
        <pt x="717" y="1190" on="1"/>
        <pt x="633" y="1190" on="0"/>
        <pt x="596" y="1166" on="1"/>
        <pt x="531" y="1125" on="0"/>
        <pt x="512" y="1048" on="1"/>
        <pt x="503" y="1012" on="0"/>
        <pt x="453" y="797" on="0"/>
        <pt x="418" y="648" on="0"/>
        <pt x="401" y="572" on="1"/>
        <pt x="314" y="180" on="0"/>
        <pt x="314" y="130" on="1"/>
        <pt x="314" y="74" on="0"/>
        <pt x="636" y="74" on="0"/>
        <pt x="761" y="134" on="0"/>
        <pt x="832" y="222" on="0"/>
        <pt x="852" y="296" on="1"/>
      </contour>
    </TTGlyph>
    <TTGlyph name="M" xMin="-83" yMin="0" xMax="1756" yMax="1264">
      <contour>
        <pt x="276" y="163" on="1"/>
        <pt x="276" y="74" on="0"/>
        <pt x="448" y="74" on="1"/>
        <pt x="453" y="57" on="0"/>
        <pt x="453" y="16" on="0"/>
        <pt x="437" y="0" on="1"/>
        <pt x="-75" y="0" on="1"/>
        <pt x="-83" y="19" on="1"/>
        <pt x="-61" y="75" on="1"/>
        <pt x="24" y="75" on="0"/>
        <pt x="59" y="98" on="1"/>
        <pt x="118" y="136" on="0"/>
        <pt x="140" y="216" on="1"/>
        <pt x="147" y="244" on="0"/>
        <pt x="172" y="340" on="0"/>
        <pt x="202" y="461" on="0"/>
        <pt x="236" y="599" on="0"/>
        <pt x="252" y="669" on="1"/>
        <pt x="292" y="836" on="0"/>
        <pt x="336" y="1055" on="0"/>
        <pt x="336" y="1088" on="1"/>
        <pt x="336" y="1149" on="0"/>
        <pt x="278" y="1172" on="1"/>
        <pt x="235" y="1191" on="0"/>
        <pt x="173" y="1191" on="1"/>
        <pt x="171" y="1219" on="1"/>
        <pt x="170" y="1244" on="0"/>
        <pt x="187" y="1264" on="1"/>
        <pt x="674" y="1264" on="1"/>
        <pt x="767" y="288" on="1"/>
        <pt x="1318" y="1264" on="1"/>
        <pt x="1749" y="1264" on="1"/>
        <pt x="1756" y="1250" on="0"/>
        <pt x="1756" y="1218" on="0"/>
        <pt x="1735" y="1190" on="1"/>
        <pt x="1654" y="1190" on="0"/>
        <pt x="1574" y="1123" on="0"/>
        <pt x="1542" y="990" on="0"/>
        <pt x="1502" y="844" on="0"/>
        <pt x="1480" y="764" on="1"/>
        <pt x="1431" y="592" on="0"/>
        <pt x="1357" y="256" on="0"/>
        <pt x="1357" y="161" on="1"/>
        <pt x="1357" y="90" on="0"/>
        <pt x="1472" y="78" on="1"/>
        <pt x="1501" y="75" on="0"/>
        <pt x="1521" y="74" on="1"/>
        <pt x="1522" y="67" on="0"/>
        <pt x="1525" y="52" on="0"/>
        <pt x="1525" y="16" on="0"/>
        <pt x="1509" y="0" on="1"/>
        <pt x="990" y="0" on="1"/>
        <pt x="983" y="19" on="1"/>
        <pt x="1003" y="74" on="1"/>
        <pt x="1088" y="74" on="0"/>
        <pt x="1122" y="98" on="1"/>
        <pt x="1178" y="136" on="0"/>
        <pt x="1198" y="217" on="1"/>
        <pt x="1426" y="1172" on="1"/>
        <pt x="1414" y="1151" on="0"/>
        <pt x="1363" y="1061" on="0"/>
        <pt x="1291" y="936" on="0"/>
        <pt x="1204" y="784" on="0"/>
        <pt x="1109" y="622" on="0"/>
        <pt x="1010" y="456" on="0"/>
        <pt x="963" y="378" on="1"/>
        <pt x="867" y="221" on="0"/>
        <pt x="717" y="8" on="0"/>
        <pt x="694" y="8" on="1"/>
        <pt x="658" y="8" on="0"/>
        <pt x="651" y="73" on="1"/>
        <pt x="510" y="1162" on="1"/>
        <pt x="495" y="1102" on="0"/>
        <pt x="449" y="937" on="0"/>
        <pt x="423" y="844" on="1"/>
        <pt x="351" y="586" on="0"/>
        <pt x="276" y="259" on="0"/>
      </contour>
    </TTGlyph>
    <TTGlyph name="N" xMin="-60" yMin="-41" xMax="1528" yMax="1264">
      <contour>
        <pt x="1015" y="220" on="1"/>
        <pt x="1207" y="1073" on="0"/>
        <pt x="1207" y="1103" on="1"/>
        <pt x="1207" y="1154" on="0"/>
        <pt x="1150" y="1175" on="1"/>
        <pt x="1111" y="1190" on="0"/>
        <pt x="1055" y="1190" on="1"/>
        <pt x="1041" y="1204" on="0"/>
        <pt x="1041" y="1234" on="1"/>
        <pt x="1044" y="1264" on="1"/>
        <pt x="1525" y="1264" on="1"/>
        <pt x="1528" y="1234" on="1"/>
        <pt x="1528" y="1204" on="0"/>
        <pt x="1514" y="1190" on="1"/>
        <pt x="1435" y="1190" on="0"/>
        <pt x="1352" y="1124" on="0"/>
        <pt x="1335" y="1046" on="1"/>
        <pt x="1094" y="-30" on="1"/>
        <pt x="1040" y="-47" on="0"/>
        <pt x="957" y="-34" on="0"/>
        <pt x="953" y="-23" on="1"/>
        <pt x="502" y="1169" on="1"/>
        <pt x="463" y="1012" on="0"/>
        <pt x="363" y="550" on="0"/>
        <pt x="326" y="382" on="0"/>
        <pt x="282" y="162" on="0"/>
        <pt x="282" y="144" on="1"/>
        <pt x="282" y="110" on="0"/>
        <pt x="387" y="77" on="0"/>
        <pt x="441" y="74" on="1"/>
        <pt x="442" y="67" on="0"/>
        <pt x="445" y="52" on="0"/>
        <pt x="445" y="16" on="0"/>
        <pt x="429" y="0" on="1"/>
        <pt x="-52" y="0" on="1"/>
        <pt x="-53" y="-2" on="1"/>
        <pt x="-60" y="17" on="1"/>
        <pt x="-39" y="73" on="1"/>
        <pt x="46" y="73" on="0"/>
        <pt x="80" y="96" on="1"/>
        <pt x="138" y="136" on="0"/>
        <pt x="155" y="214" on="1"/>
        <pt x="159" y="233" on="0"/>
        <pt x="181" y="327" on="0"/>
        <pt x="210" y="454" on="0"/>
        <pt x="245" y="604" on="0"/>
        <pt x="262" y="680" on="1"/>
        <pt x="354" y="1080" on="0"/>
        <pt x="354" y="1132" on="0"/>
        <pt x="329" y="1159" on="0"/>
        <pt x="310" y="1167" on="1"/>
        <pt x="287" y="1177" on="0"/>
        <pt x="184" y="1193" on="0"/>
        <pt x="184" y="1206" on="1"/>
        <pt x="184" y="1231" on="0"/>
        <pt x="198" y="1264" on="1"/>
        <pt x="632" y="1264" on="1"/>
      </contour>
    </TTGlyph>
    <TTGlyph name="Nacute" xMin="-60" yMin="-41" xMax="1528" yMax="1828">
      <component glyphName="N" x="0" y="0" flags="0x1204"/>
      <component glyphName="acute" x="567" y="392" flags="0x1004"/>
    </TTGlyph>
    <TTGlyph name="Ncaron" xMin="-60" yMin="-41" xMax="1528" yMax="1857">
      <component glyphName="N" x="0" y="0" flags="0x1204"/>
      <component glyphName="caron" x="322" y="392" flags="0x1004"/>
    </TTGlyph>
    <TTGlyph name="Ntilde" xMin="-60" yMin="-41" xMax="1528" yMax="1599">
      <component glyphName="N" x="0" y="0" flags="0x1204"/>
      <component glyphName="tilde" x="323" y="393" flags="0x1004"/>
    </TTGlyph>
    <TTGlyph name="O" xMin="101" yMin="-34" xMax="1216" yMax="1301">
      <contour>
        <pt x="288" y="528" on="1"/>
        <pt x="288" y="223" on="0"/>
        <pt x="438" y="118" on="1"/>
        <pt x="494" y="78" on="0"/>
        <pt x="656" y="78" on="0"/>
        <pt x="781" y="144" on="0"/>
        <pt x="830" y="198" on="1"/>
        <pt x="921" y="298" on="0"/>
        <pt x="1026" y="617" on="0"/>
        <pt x="1026" y="753" on="1"/>
        <pt x="1026" y="1098" on="0"/>
        <pt x="820" y="1180" on="1"/>
        <pt x="773" y="1199" on="0"/>
        <pt x="637" y="1199" on="0"/>
        <pt x="517" y="1128" on="0"/>
        <pt x="470" y="1070" on="1"/>
        <pt x="382" y="961" on="0"/>
        <pt x="288" y="628" on="0"/>
      </contour>
      <contour>
        <pt x="736" y="1301" on="1"/>
        <pt x="846" y="1301" on="0"/>
        <pt x="1030" y="1214" on="0"/>
        <pt x="1092" y="1138" on="1"/>
        <pt x="1216" y="984" on="0"/>
        <pt x="1216" y="450" on="0"/>
        <pt x="1048" y="220" on="1"/>
        <pt x="863" y="-34" on="0"/>
        <pt x="565" y="-34" on="1"/>
        <pt x="344" y="-34" on="0"/>
        <pt x="101" y="296" on="0"/>
        <pt x="101" y="826" on="0"/>
        <pt x="263" y="1052" on="1"/>
        <pt x="441" y="1301" on="0"/>
      </contour>
    </TTGlyph>
    <TTGlyph name="OE" xMin="82" yMin="26" xMax="1842" yMax="1206">
      <contour>
        <pt x="611" y="115" on="1"/>
        <pt x="796" y="115" on="1"/>
        <pt x="1017" y="1131" on="1"/>
        <pt x="862" y="1131" on="1"/>
        <pt x="566" y="1131" on="0"/>
        <pt x="403" y="922" on="1"/>
        <pt x="263" y="743" on="0"/>
        <pt x="263" y="506" on="1"/>
        <pt x="263" y="240" on="0"/>
        <pt x="456" y="146" on="1"/>
        <pt x="522" y="115" on="0"/>
      </contour>
      <contour>
        <pt x="1003" y="146" on="1"/>
        <pt x="1003" y="97" on="0"/>
        <pt x="1052" y="97" on="1"/>
        <pt x="1365" y="97" on="1"/>
        <pt x="1555" y="97" on="0"/>
        <pt x="1610" y="302" on="1"/>
        <pt x="1613" y="322" on="0"/>
        <pt x="1679" y="341" on="0"/>
        <pt x="1697" y="341" on="1"/>
        <pt x="1733" y="341" on="0"/>
        <pt x="1733" y="314" on="1"/>
        <pt x="1730" y="311" on="1"/>
        <pt x="1652" y="26" on="1"/>
        <pt x="574" y="26" on="1"/>
        <pt x="345" y="26" on="0"/>
        <pt x="82" y="322" on="0"/>
        <pt x="82" y="824" on="0"/>
        <pt x="267" y="1004" on="1"/>
        <pt x="473" y="1206" on="0"/>
        <pt x="857" y="1206" on="1"/>
        <pt x="1842" y="1206" on="1"/>
        <pt x="1829" y="927" on="1"/>
        <pt x="1829" y="921" on="0"/>
        <pt x="1793" y="895" on="0"/>
        <pt x="1739" y="895" on="0"/>
        <pt x="1734" y="921" on="1"/>
        <pt x="1704" y="1043" on="0"/>
        <pt x="1686" y="1075" on="1"/>
        <pt x="1649" y="1136" on="0"/>
        <pt x="1579" y="1136" on="1"/>
        <pt x="1276" y="1136" on="1"/>
        <pt x="1220" y="1136" on="0"/>
        <pt x="1205" y="1062" on="1"/>
        <pt x="1121" y="688" on="1"/>
        <pt x="1406" y="688" on="1"/>
        <pt x="1472" y="688" on="0"/>
        <pt x="1519" y="746" on="1"/>
        <pt x="1537" y="768" on="0"/>
        <pt x="1561" y="804" on="0"/>
        <pt x="1573" y="804" on="1"/>
        <pt x="1635" y="804" on="1"/>
        <pt x="1550" y="474" on="1"/>
        <pt x="1496" y="474" on="1"/>
        <pt x="1474" y="627" on="0"/>
        <pt x="1399" y="627" on="1"/>
        <pt x="1107" y="627" on="1"/>
        <pt x="1007" y="178" on="1"/>
        <pt x="1003" y="160" on="0"/>
      </contour>
    </TTGlyph>
    <TTGlyph name="Oacute" xMin="101" yMin="-34" xMax="1216" yMax="1828">
      <component glyphName="O" x="0" y="0" flags="0x1204"/>
      <component glyphName="acute" x="491" y="392" flags="0x1004"/>
    </TTGlyph>
    <TTGlyph name="Ocircumflex" xMin="101" yMin="-34" xMax="1216" yMax="1814">
      <component glyphName="O" x="0" y="0" flags="0x1204"/>
      <component glyphName="circumflex" x="231" y="392" flags="0x1004"/>
    </TTGlyph>
    <TTGlyph name="Odieresis" xMin="101" yMin="-34" xMax="1216" yMax="1692">
      <component glyphName="O" x="0" y="0" flags="0x1204"/>
      <component glyphName="dieresis" x="266" y="393" flags="0x1004"/>
    </TTGlyph>
    <TTGlyph name="Ograve" xMin="101" yMin="-34" xMax="1216" yMax="1829">
      <component glyphName="O" x="0" y="0" flags="0x1204"/>
      <component glyphName="grave" x="312" y="393" flags="0x1004"/>
    </TTGlyph>
    <TTGlyph name="Ohungarumlaut" xMin="101" yMin="-34" xMax="1216" yMax="1828">
      <component glyphName="O" x="0" y="0" flags="0x1204"/>
      <component glyphName="hungarumlaut" x="491" y="392" flags="0x1004"/>
    </TTGlyph>
    <TTGlyph name="Oslash" xMin="88" yMin="-132" xMax="1151" yMax="1343">
      <contour>
        <pt x="400" y="132" on="1"/>
        <pt x="457" y="84" on="0"/>
        <pt x="542" y="84" on="1"/>
        <pt x="543" y="84" on="1"/>
        <pt x="662" y="84" on="0"/>
        <pt x="762" y="188" on="1"/>
        <pt x="900" y="332" on="0"/>
        <pt x="946" y="584" on="1"/>
        <pt x="959" y="659" on="0"/>
        <pt x="959" y="736" on="1"/>
        <pt x="959" y="880" on="0"/>
        <pt x="891" y="1007" on="1"/>
        <pt x="791" y="822" on="0"/>
        <pt x="486" y="292" on="0"/>
      </contour>
      <contour>
        <pt x="842" y="1101" on="1"/>
        <pt x="775" y="1168" on="0"/>
        <pt x="554" y="1168" on="0"/>
        <pt x="460" y="1062" on="1"/>
        <pt x="328" y="914" on="0"/>
        <pt x="286" y="662" on="1"/>
        <pt x="274" y="587" on="0"/>
        <pt x="274" y="506" on="1"/>
        <pt x="274" y="339" on="0"/>
        <pt x="354" y="216" on="1"/>
        <pt x="811" y="1038" on="1"/>
      </contour>
      <contour>
        <pt x="240" y="-132" on="1"/>
        <pt x="217" y="-130" on="1"/>
        <pt x="207" y="-130" on="1"/>
        <pt x="210" y="-66" on="0"/>
        <pt x="264" y="28" on="1"/>
        <pt x="297" y="85" on="1"/>
        <pt x="151" y="203" on="0"/>
        <pt x="104" y="408" on="1"/>
        <pt x="88" y="476" on="0"/>
        <pt x="88" y="639" on="0"/>
        <pt x="128" y="813" on="0"/>
        <pt x="164" y="891" on="1"/>
        <pt x="241" y="1055" on="0"/>
        <pt x="505" y="1254" on="0"/>
        <pt x="662" y="1254" on="1"/>
        <pt x="767" y="1254" on="0"/>
        <pt x="889" y="1193" on="1"/>
        <pt x="927" y="1273" on="0"/>
        <pt x="985" y="1337" on="0"/>
        <pt x="996" y="1343" on="1"/>
        <pt x="1003" y="1336" on="0"/>
        <pt x="1044" y="1330" on="0"/>
        <pt x="1047" y="1329" on="1"/>
        <pt x="1024" y="1283" on="0"/>
        <pt x="980" y="1189" on="0"/>
        <pt x="953" y="1144" on="1"/>
        <pt x="957" y="1140" on="1"/>
        <pt x="1044" y="1068" on="0"/>
        <pt x="1151" y="839" on="0"/>
        <pt x="1151" y="604" on="0"/>
        <pt x="1110" y="432" on="0"/>
        <pt x="1072" y="353" on="1"/>
        <pt x="993" y="189" on="0"/>
        <pt x="719" y="-23" on="0"/>
        <pt x="556" y="-23" on="1"/>
        <pt x="446" y="-23" on="0"/>
        <pt x="354" y="38" on="1"/>
        <pt x="345" y="21" on="0"/>
        <pt x="331" y="-8" on="1"/>
        <pt x="270" y="-132" on="0"/>
      </contour>
    </TTGlyph>
    <TTGlyph name="Otilde" xMin="101" yMin="-34" xMax="1216" yMax="1599">
      <component glyphName="O" x="0" y="0" flags="0x1204"/>
      <component glyphName="tilde" x="247" y="393" flags="0x1004"/>
    </TTGlyph>
    <TTGlyph name="P" xMin="-60" yMin="0" xMax="1181" yMax="1264">
      <contour>
        <pt x="336" y="169" on="1"/>
        <pt x="336" y="74" on="0"/>
        <pt x="507" y="74" on="1"/>
        <pt x="512" y="57" on="0"/>
        <pt x="512" y="18" on="0"/>
        <pt x="496" y="0" on="1"/>
        <pt x="-52" y="0" on="1"/>
        <pt x="-60" y="19" on="1"/>
        <pt x="-38" y="75" on="1"/>
        <pt x="54" y="75" on="0"/>
        <pt x="89" y="96" on="1"/>
        <pt x="150" y="133" on="0"/>
        <pt x="171" y="215" on="1"/>
        <pt x="190" y="291" on="1"/>
        <pt x="364" y="987" on="0"/>
        <pt x="364" y="1093" on="1"/>
        <pt x="364" y="1191" on="0"/>
        <pt x="172" y="1191" on="1"/>
        <pt x="168" y="1219" on="1"/>
        <pt x="168" y="1246" on="0"/>
        <pt x="184" y="1264" on="1"/>
        <pt x="446" y="1264" on="1"/>
        <pt x="871" y="1264" on="0"/>
        <pt x="1041" y="1164" on="1"/>
        <pt x="1181" y="1082" on="0"/>
        <pt x="1181" y="934" on="1"/>
        <pt x="1181" y="817" on="0"/>
        <pt x="1080" y="737" on="1"/>
        <pt x="923" y="612" on="0"/>
        <pt x="623" y="612" on="1"/>
        <pt x="574" y="612" on="0"/>
        <pt x="574" y="653" on="1"/>
        <pt x="574" y="686" on="0"/>
        <pt x="643" y="686" on="0"/>
        <pt x="730" y="696" on="0"/>
        <pt x="772" y="708" on="1"/>
        <pt x="870" y="735" on="0"/>
        <pt x="987" y="847" on="0"/>
        <pt x="987" y="937" on="1"/>
        <pt x="987" y="1110" on="0"/>
        <pt x="738" y="1170" on="1"/>
        <pt x="652" y="1190" on="0"/>
        <pt x="557" y="1190" on="1"/>
        <pt x="544" y="1133" on="0"/>
        <pt x="499" y="950" on="1"/>
        <pt x="406" y="574" on="0"/>
        <pt x="336" y="248" on="0"/>
      </contour>
    </TTGlyph>
    <TTGlyph name="Q" xMin="101" yMin="-346" xMax="1226" yMax="1301">
      <contour>
        <pt x="256" y="-257" on="0"/>
        <pt x="223" y="-224" on="0"/>
        <pt x="223" y="-208" on="1"/>
        <pt x="223" y="-187" on="0"/>
        <pt x="428" y="-19" on="0"/>
        <pt x="451" y="2" on="1"/>
        <pt x="287" y="83" on="0"/>
        <pt x="101" y="391" on="0"/>
        <pt x="101" y="741" on="0"/>
        <pt x="180" y="908" on="1"/>
        <pt x="309" y="1177" on="0"/>
        <pt x="542" y="1270" on="1"/>
        <pt x="621" y="1301" on="0"/>
        <pt x="788" y="1301" on="0"/>
        <pt x="926" y="1257" on="0"/>
        <pt x="984" y="1218" on="1"/>
        <pt x="1097" y="1139" on="0"/>
        <pt x="1226" y="874" on="0"/>
        <pt x="1226" y="568" on="0"/>
        <pt x="1066" y="209" on="0"/>
        <pt x="793" y="-35" on="0"/>
        <pt x="630" y="-35" on="1"/>
        <pt x="611" y="-35" on="0"/>
        <pt x="598" y="-31" on="1"/>
        <pt x="468" y="-116" on="1"/>
        <pt x="750" y="-200" on="0"/>
        <pt x="995" y="-212" on="1"/>
        <pt x="1012" y="-238" on="0"/>
        <pt x="1012" y="-321" on="0"/>
        <pt x="988" y="-346" on="0"/>
        <pt x="914" y="-346" on="0"/>
        <pt x="806" y="-324" on="0"/>
        <pt x="751" y="-308" on="1"/>
        <pt x="691" y="-290" on="0"/>
        <pt x="428" y="-198" on="0"/>
        <pt x="365" y="-198" on="0"/>
        <pt x="339" y="-216" on="0"/>
        <pt x="296" y="-257" on="0"/>
      </contour>
      <contour>
        <pt x="954" y="1066" on="1"/>
        <pt x="873" y="1199" on="0"/>
        <pt x="584" y="1199" on="0"/>
        <pt x="481" y="1072" on="1"/>
        <pt x="396" y="969" on="0"/>
        <pt x="300" y="645" on="0"/>
        <pt x="300" y="370" on="0"/>
        <pt x="366" y="239" on="1"/>
        <pt x="444" y="83" on="0"/>
        <pt x="722" y="83" on="0"/>
        <pt x="922" y="320" on="0"/>
        <pt x="1023" y="649" on="0"/>
        <pt x="1023" y="754" on="1"/>
        <pt x="1023" y="954" on="0"/>
      </contour>
    </TTGlyph>
    <TTGlyph name="R" xMin="-60" yMin="-19" xMax="1200" yMax="1264">
      <contour>
        <pt x="324" y="170" on="1"/>
        <pt x="324" y="75" on="0"/>
        <pt x="490" y="75" on="1"/>
        <pt x="498" y="42" on="1"/>
        <pt x="482" y="0" on="1"/>
        <pt x="-52" y="0" on="1"/>
        <pt x="-60" y="17" on="1"/>
        <pt x="-38" y="73" on="1"/>
        <pt x="48" y="73" on="0"/>
        <pt x="82" y="95" on="1"/>
        <pt x="138" y="131" on="0"/>
        <pt x="160" y="214" on="1"/>
        <pt x="207" y="381" on="0"/>
        <pt x="315" y="868" on="0"/>
        <pt x="351" y="1053" on="0"/>
        <pt x="351" y="1084" on="1"/>
        <pt x="351" y="1182" on="0"/>
        <pt x="193" y="1189" on="1"/>
        <pt x="188" y="1206" on="0"/>
        <pt x="188" y="1246" on="0"/>
        <pt x="204" y="1264" on="1"/>
        <pt x="552" y="1264" on="1"/>
        <pt x="930" y="1264" on="0"/>
        <pt x="1082" y="1164" on="1"/>
        <pt x="1200" y="1085" on="0"/>
        <pt x="1200" y="783" on="0"/>
        <pt x="1066" y="696" on="1"/>
        <pt x="961" y="628" on="0"/>
        <pt x="785" y="607" on="1"/>
        <pt x="884" y="306" on="0"/>
        <pt x="908" y="248" on="1"/>
        <pt x="953" y="139" on="0"/>
        <pt x="1002" y="113" on="1"/>
        <pt x="1037" y="94" on="0"/>
        <pt x="1150" y="94" on="1"/>
        <pt x="1163" y="94" on="0"/>
        <pt x="1175" y="96" on="1"/>
        <pt x="1175" y="17" on="0"/>
        <pt x="1125" y="-10" on="1"/>
        <pt x="1107" y="-19" on="0"/>
        <pt x="1019" y="-19" on="0"/>
        <pt x="928" y="-2" on="0"/>
        <pt x="893" y="22" on="1"/>
        <pt x="829" y="65" on="0"/>
        <pt x="772" y="198" on="1"/>
        <pt x="740" y="272" on="0"/>
        <pt x="626" y="599" on="1"/>
        <pt x="408" y="599" on="1"/>
        <pt x="397" y="550" on="0"/>
        <pt x="382" y="496" on="1"/>
        <pt x="324" y="276" on="0"/>
      </contour>
      <contour>
        <pt x="1023" y="956" on="1"/>
        <pt x="1023" y="1191" on="0"/>
        <pt x="616" y="1191" on="1"/>
        <pt x="541" y="1190" on="1"/>
        <pt x="427" y="684" on="1"/>
        <pt x="792" y="684" on="0"/>
        <pt x="920" y="759" on="1"/>
        <pt x="999" y="805" on="0"/>
        <pt x="1015" y="879" on="1"/>
        <pt x="1023" y="915" on="0"/>
      </contour>
    </TTGlyph>
    <TTGlyph name="Racute" xMin="-60" yMin="-19" xMax="1200" yMax="1828">
      <component glyphName="R" x="0" y="0" flags="0x1204"/>
      <component glyphName="acute" x="403" y="392" flags="0x1004"/>
    </TTGlyph>
    <TTGlyph name="Rcaron" xMin="-60" yMin="-19" xMax="1200" yMax="1857">
      <component glyphName="R" x="0" y="0" flags="0x1204"/>
      <component glyphName="caron" x="158" y="392" flags="0x1004"/>
    </TTGlyph>
    <TTGlyph name="Rcommaaccent" xMin="-60" yMin="-561" xMax="1200" yMax="1264">
      <component glyphName="R" x="0" y="0" flags="0x1204"/>
      <component glyphName="commaaccent" x="266" y="0" flags="0x1004"/>
    </TTGlyph>
    <TTGlyph name="S" xMin="42" yMin="-32" xMax="1054" yMax="1301">
      <contour>
        <pt x="533" y="69" on="1"/>
        <pt x="767" y="69" on="0"/>
        <pt x="767" y="290" on="1"/>
        <pt x="767" y="411" on="0"/>
        <pt x="605" y="550" on="1"/>
        <pt x="559" y="590" on="0"/>
        <pt x="511" y="630" on="1"/>
        <pt x="385" y="735" on="0"/>
        <pt x="335" y="799" on="1"/>
        <pt x="255" y="901" on="0"/>
        <pt x="255" y="992" on="1"/>
        <pt x="255" y="1150" on="0"/>
        <pt x="483" y="1301" on="0"/>
        <pt x="794" y="1301" on="0"/>
        <pt x="913" y="1231" on="1"/>
        <pt x="1054" y="1148" on="0"/>
        <pt x="1054" y="1003" on="1"/>
        <pt x="1054" y="970" on="0"/>
        <pt x="1011" y="920" on="0"/>
        <pt x="938" y="920" on="0"/>
        <pt x="902" y="961" on="0"/>
        <pt x="877" y="1023" on="0"/>
        <pt x="864" y="1060" on="1"/>
        <pt x="814" y="1199" on="0"/>
        <pt x="618" y="1199" on="1"/>
        <pt x="485" y="1199" on="0"/>
        <pt x="440" y="1090" on="1"/>
        <pt x="425" y="1056" on="0"/>
        <pt x="425" y="964" on="0"/>
        <pt x="469" y="878" on="0"/>
        <pt x="541" y="797" on="0"/>
        <pt x="633" y="720" on="0"/>
        <pt x="680" y="680" on="1"/>
        <pt x="808" y="573" on="0"/>
        <pt x="856" y="510" on="1"/>
        <pt x="936" y="407" on="0"/>
        <pt x="936" y="310" on="1"/>
        <pt x="936" y="137" on="0"/>
        <pt x="702" y="-32" on="0"/>
        <pt x="344" y="-32" on="0"/>
        <pt x="42" y="174" on="0"/>
        <pt x="42" y="355" on="1"/>
        <pt x="42" y="388" on="0"/>
        <pt x="85" y="438" on="0"/>
        <pt x="150" y="438" on="0"/>
        <pt x="187" y="406" on="0"/>
        <pt x="212" y="354" on="0"/>
        <pt x="232" y="288" on="0"/>
        <pt x="246" y="254" on="1"/>
        <pt x="279" y="169" on="0"/>
        <pt x="406" y="69" on="0"/>
      </contour>
    </TTGlyph>
    <TTGlyph name="Sacute" xMin="42" yMin="-32" xMax="1054" yMax="1828">
      <component glyphName="S" x="0" y="0" flags="0x1004"/>
      <component glyphName="acute" x="381" y="392" flags="0x1004"/>
    </TTGlyph>
    <TTGlyph name="Scaron" xMin="42" yMin="-32" xMax="1054" yMax="1857">
      <component glyphName="S" x="0" y="0" flags="0x1004"/>
      <component glyphName="caron" x="136" y="392" flags="0x1004"/>
    </TTGlyph>
    <TTGlyph name="Scedilla" xMin="42" yMin="-451" xMax="1054" yMax="1301">
      <component glyphName="S" x="0" y="0" flags="0x1004"/>
      <component glyphName="cedilla" x="255" y="0" flags="0x1004"/>
    </TTGlyph>
    <TTGlyph name="Scommaaccent" xMin="42" yMin="-561" xMax="1054" yMax="1301">
      <component glyphName="S" x="0" y="0" flags="0x1204"/>
      <component glyphName="uni0326" x="214" y="0" flags="0x1004"/>
    </TTGlyph>
    <TTGlyph name="T" xMin="49" yMin="0" xMax="1247" yMax="1264">
      <contour>
        <pt x="604" y="90" on="1"/>
        <pt x="640" y="77" on="0"/>
        <pt x="709" y="74" on="1"/>
        <pt x="710" y="67" on="0"/>
        <pt x="713" y="52" on="0"/>
        <pt x="713" y="17" on="0"/>
        <pt x="693" y="0" on="1"/>
        <pt x="135" y="0" on="1"/>
        <pt x="127" y="19" on="1"/>
        <pt x="148" y="75" on="1"/>
        <pt x="238" y="75" on="0"/>
        <pt x="276" y="96" on="1"/>
        <pt x="349" y="135" on="0"/>
        <pt x="365" y="215" on="1"/>
        <pt x="576" y="1190" on="1"/>
        <pt x="333" y="1190" on="1"/>
        <pt x="294" y="1190" on="0"/>
        <pt x="252" y="1122" on="1"/>
        <pt x="234" y="1093" on="0"/>
        <pt x="216" y="1060" on="1"/>
        <pt x="148" y="929" on="0"/>
        <pt x="102" y="929" on="1"/>
        <pt x="70" y="929" on="0"/>
        <pt x="49" y="954" on="1"/>
        <pt x="119" y="1264" on="1"/>
        <pt x="1247" y="1264" on="1"/>
        <pt x="1183" y="965" on="1"/>
        <pt x="1146" y="930" on="0"/>
        <pt x="1087" y="930" on="0"/>
        <pt x="1068" y="969" on="0"/>
        <pt x="1058" y="1026" on="0"/>
        <pt x="1055" y="1060" on="1"/>
        <pt x="1044" y="1190" on="0"/>
        <pt x="991" y="1190" on="1"/>
        <pt x="763" y="1190" on="1"/>
        <pt x="747" y="1117" on="0"/>
        <pt x="655" y="740" on="0"/>
        <pt x="606" y="534" on="0"/>
        <pt x="586" y="442" on="1"/>
        <pt x="543" y="238" on="0"/>
        <pt x="543" y="111" on="0"/>
      </contour>
    </TTGlyph>
    <TTGlyph name="Tcaron" xMin="49" yMin="0" xMax="1247" yMax="1857">
      <component glyphName="T" x="0" y="0" flags="0x1204"/>
      <component glyphName="caron" x="236" y="392" flags="0x1004"/>
    </TTGlyph>
    <TTGlyph name="Tcommaaccent" xMin="49" yMin="-561" xMax="1247" yMax="1264">
      <component glyphName="T" x="0" y="0" flags="0x1204"/>
      <component glyphName="commaaccent" x="344" y="0" flags="0x1004"/>
    </TTGlyph>
    <TTGlyph name="Thorn" xMin="-67" yMin="26" xMax="1063" yMax="1206">
      <contour>
        <pt x="329" y="1053" on="1"/>
        <pt x="329" y="1136" on="0"/>
        <pt x="164" y="1136" on="1"/>
        <pt x="149" y="1136" on="1"/>
        <pt x="145" y="1136" on="0"/>
        <pt x="145" y="1206" on="0"/>
        <pt x="160" y="1206" on="1"/>
        <pt x="530" y="1206" on="1"/>
        <pt x="491" y="1037" on="1"/>
        <pt x="999" y="1012" on="0"/>
        <pt x="1054" y="800" on="1"/>
        <pt x="1063" y="765" on="0"/>
        <pt x="1063" y="680" on="0"/>
        <pt x="1008" y="572" on="0"/>
        <pt x="946" y="528" on="1"/>
        <pt x="803" y="426" on="0"/>
        <pt x="538" y="426" on="1"/>
        <pt x="493" y="426" on="0"/>
        <pt x="493" y="465" on="1"/>
        <pt x="493" y="496" on="0"/>
        <pt x="521" y="496" on="1"/>
        <pt x="715" y="496" on="0"/>
        <pt x="810" y="583" on="1"/>
        <pt x="882" y="648" on="0"/>
        <pt x="882" y="826" on="0"/>
        <pt x="806" y="892" on="1"/>
        <pt x="704" y="980" on="0"/>
        <pt x="492" y="980" on="1"/>
        <pt x="479" y="980" on="1"/>
        <pt x="313" y="217" on="1"/>
        <pt x="309" y="204" on="0"/>
        <pt x="309" y="181" on="1"/>
        <pt x="307" y="177" on="1"/>
        <pt x="312" y="135" on="0"/>
        <pt x="388" y="99" on="0"/>
        <pt x="466" y="96" on="1"/>
        <pt x="470" y="96" on="0"/>
        <pt x="470" y="26" on="0"/>
        <pt x="456" y="26" on="1"/>
        <pt x="-60" y="26" on="1"/>
        <pt x="-67" y="26" on="0"/>
        <pt x="-67" y="65" on="0"/>
        <pt x="-50" y="97" on="0"/>
        <pt x="-47" y="97" on="1"/>
        <pt x="32" y="97" on="0"/>
        <pt x="65" y="113" on="1"/>
        <pt x="131" y="145" on="0"/>
        <pt x="151" y="229" on="1"/>
        <pt x="325" y="1015" on="1"/>
        <pt x="329" y="1027" on="0"/>
      </contour>
    </TTGlyph>
    <TTGlyph name="U" xMin="142" yMin="-34" xMax="1465" yMax="1264">
      <contour>
        <pt x="142" y="1219" on="1"/>
        <pt x="142" y="1246" on="0"/>
        <pt x="158" y="1264" on="1"/>
        <pt x="676" y="1264" on="1"/>
        <pt x="684" y="1244" on="1"/>
        <pt x="664" y="1190" on="1"/>
        <pt x="580" y="1190" on="0"/>
        <pt x="497" y="1128" on="0"/>
        <pt x="479" y="1046" on="1"/>
        <pt x="365" y="551" on="1"/>
        <pt x="353" y="501" on="0"/>
        <pt x="353" y="442" on="1"/>
        <pt x="353" y="309" on="0"/>
        <pt x="507" y="102" on="0"/>
        <pt x="796" y="102" on="0"/>
        <pt x="896" y="230" on="1"/>
        <pt x="979" y="334" on="0"/>
        <pt x="1014" y="495" on="1"/>
        <pt x="1125" y="992" on="1"/>
        <pt x="1137" y="1047" on="0"/>
        <pt x="1137" y="1102" on="1"/>
        <pt x="1137" y="1190" on="0"/>
        <pt x="980" y="1190" on="1"/>
        <pt x="976" y="1219" on="1"/>
        <pt x="976" y="1246" on="0"/>
        <pt x="992" y="1264" on="1"/>
        <pt x="1457" y="1264" on="1"/>
        <pt x="1465" y="1244" on="1"/>
        <pt x="1444" y="1190" on="1"/>
        <pt x="1359" y="1190" on="0"/>
        <pt x="1325" y="1166" on="1"/>
        <pt x="1271" y="1128" on="0"/>
        <pt x="1251" y="1045" on="1"/>
        <pt x="1123" y="485" on="1"/>
        <pt x="1042" y="125" on="0"/>
        <pt x="789" y="8" on="1"/>
        <pt x="700" y="-34" on="0"/>
        <pt x="592" y="-34" on="1"/>
        <pt x="392" y="-34" on="0"/>
        <pt x="175" y="240" on="0"/>
        <pt x="175" y="433" on="1"/>
        <pt x="175" y="498" on="0"/>
        <pt x="191" y="558" on="1"/>
        <pt x="308" y="1037" on="1"/>
        <pt x="313" y="1055" on="0"/>
        <pt x="313" y="1078" on="1"/>
        <pt x="313" y="1134" on="0"/>
        <pt x="235" y="1190" on="0"/>
        <pt x="177" y="1190" on="1"/>
        <pt x="146" y="1190" on="1"/>
      </contour>
    </TTGlyph>
    <TTGlyph name="Uacute" xMin="142" yMin="-34" xMax="1465" yMax="1828">
      <component glyphName="U" x="0" y="0" flags="0x1204"/>
      <component glyphName="acute" x="636" y="392" flags="0x1004"/>
    </TTGlyph>
    <TTGlyph name="Ucircumflex" xMin="142" yMin="-34" xMax="1465" yMax="1814">
      <component glyphName="U" x="0" y="0" flags="0x1204"/>
      <component glyphName="circumflex" x="376" y="392" flags="0x1004"/>
    </TTGlyph>
    <TTGlyph name="Udieresis" xMin="142" yMin="-34" xMax="1465" yMax="1692">
      <component glyphName="U" x="0" y="0" flags="0x1204"/>
      <component glyphName="dieresis" x="411" y="393" flags="0x1004"/>
    </TTGlyph>
    <TTGlyph name="Ugrave" xMin="142" yMin="-34" xMax="1465" yMax="1829">
      <component glyphName="U" x="0" y="0" flags="0x1204"/>
      <component glyphName="grave" x="457" y="393" flags="0x1004"/>
    </TTGlyph>
    <TTGlyph name="Uhungarumlaut" xMin="142" yMin="-34" xMax="1465" yMax="1828">
      <component glyphName="U" x="0" y="0" flags="0x1204"/>
      <component glyphName="hungarumlaut" x="636" y="392" flags="0x1004"/>
    </TTGlyph>
    <TTGlyph name="Umacron" xMin="142" yMin="-34" xMax="1465" yMax="1521">
      <component glyphName="U" x="0" y="0" flags="0x1204"/>
      <component glyphName="macron" x="169" y="392" flags="0x1004"/>
    </TTGlyph>
    <TTGlyph name="Uogonek" xMin="142" yMin="-355" xMax="1465" yMax="1264">
      <component glyphName="U" x="0" y="0" flags="0x1204"/>
      <component glyphName="ogonek" x="532" y="0" flags="0x1004"/>
    </TTGlyph>
    <TTGlyph name="Uring" xMin="142" yMin="-34" xMax="1465" yMax="1740">
      <component glyphName="U" x="0" y="0" flags="0x1204"/>
      <component glyphName="ring" x="481" y="393" flags="0x1004"/>
    </TTGlyph>
    <TTGlyph name="V" xMin="58" yMin="-8" xMax="1350" yMax="1264">
      <contour>
        <pt x="873" y="1188" on="0"/>
        <pt x="853" y="1197" on="0"/>
        <pt x="853" y="1230" on="0"/>
        <pt x="866" y="1264" on="1"/>
        <pt x="1347" y="1264" on="1"/>
        <pt x="1345" y="1261" on="1"/>
        <pt x="1350" y="1249" on="0"/>
        <pt x="1350" y="1201" on="0"/>
        <pt x="1336" y="1187" on="1"/>
        <pt x="1255" y="1185" on="0"/>
        <pt x="1147" y="1117" on="0"/>
        <pt x="1103" y="1050" on="1"/>
        <pt x="414" y="-8" on="1"/>
        <pt x="253" y="-8" on="1"/>
        <pt x="262" y="1062" on="1"/>
        <pt x="262" y="1134" on="0"/>
        <pt x="209" y="1162" on="1"/>
        <pt x="181" y="1178" on="0"/>
        <pt x="88" y="1188" on="0"/>
        <pt x="58" y="1196" on="0"/>
        <pt x="58" y="1234" on="0"/>
        <pt x="72" y="1264" on="1"/>
        <pt x="600" y="1264" on="1"/>
        <pt x="605" y="1244" on="0"/>
        <pt x="605" y="1202" on="0"/>
        <pt x="593" y="1190" on="1"/>
        <pt x="506" y="1190" on="0"/>
        <pt x="476" y="1168" on="1"/>
        <pt x="420" y="1127" on="0"/>
        <pt x="420" y="1043" on="1"/>
        <pt x="411" y="202" on="1"/>
        <pt x="424" y="222" on="0"/>
        <pt x="487" y="315" on="0"/>
        <pt x="572" y="443" on="0"/>
        <pt x="673" y="594" on="0"/>
        <pt x="724" y="672" on="1"/>
        <pt x="821" y="819" on="0"/>
        <pt x="986" y="1094" on="0"/>
        <pt x="986" y="1145" on="0"/>
        <pt x="966" y="1171" on="0"/>
        <pt x="937" y="1182" on="0"/>
        <pt x="902" y="1185" on="0"/>
      </contour>
    </TTGlyph>
    <TTGlyph name="W" xMin="42" yMin="-7" xMax="2045" yMax="1264">
      <contour>
        <pt x="1169" y="208" on="1"/>
        <pt x="1664" y="1050" on="0"/>
        <pt x="1664" y="1128" on="1"/>
        <pt x="1664" y="1178" on="0"/>
        <pt x="1590" y="1184" on="1"/>
        <pt x="1571" y="1185" on="0"/>
        <pt x="1516" y="1190" on="0"/>
        <pt x="1516" y="1209" on="1"/>
        <pt x="1516" y="1234" on="0"/>
        <pt x="1530" y="1264" on="1"/>
        <pt x="2039" y="1264" on="1"/>
        <pt x="2045" y="1250" on="0"/>
        <pt x="2045" y="1204" on="0"/>
        <pt x="2030" y="1189" on="1"/>
        <pt x="1862" y="1189" on="0"/>
        <pt x="1786" y="1052" on="1"/>
        <pt x="1196" y="-7" on="1"/>
        <pt x="1033" y="-7" on="1"/>
        <pt x="950" y="869" on="1"/>
        <pt x="472" y="-7" on="1"/>
        <pt x="310" y="-7" on="1"/>
        <pt x="245" y="1062" on="1"/>
        <pt x="238" y="1169" on="0"/>
        <pt x="139" y="1181" on="1"/>
        <pt x="114" y="1184" on="0"/>
        <pt x="70" y="1187" on="0"/>
        <pt x="42" y="1195" on="0"/>
        <pt x="42" y="1234" on="0"/>
        <pt x="56" y="1264" on="1"/>
        <pt x="589" y="1264" on="1"/>
        <pt x="594" y="1244" on="0"/>
        <pt x="594" y="1200" on="0"/>
        <pt x="581" y="1189" on="1"/>
        <pt x="497" y="1189" on="0"/>
        <pt x="466" y="1170" on="1"/>
        <pt x="406" y="1133" on="0"/>
        <pt x="406" y="1055" on="1"/>
        <pt x="406" y="846" on="0"/>
        <pt x="440" y="425" on="0"/>
        <pt x="452" y="216" on="1"/>
        <pt x="481" y="269" on="0"/>
        <pt x="588" y="456" on="0"/>
        <pt x="671" y="605" on="0"/>
        <pt x="713" y="681" on="1"/>
        <pt x="930" y="1074" on="0"/>
        <pt x="930" y="1122" on="1"/>
        <pt x="930" y="1178" on="0"/>
        <pt x="865" y="1184" on="1"/>
        <pt x="848" y="1185" on="0"/>
        <pt x="800" y="1192" on="0"/>
        <pt x="800" y="1230" on="0"/>
        <pt x="813" y="1264" on="1"/>
        <pt x="1291" y="1264" on="1"/>
        <pt x="1296" y="1249" on="0"/>
        <pt x="1296" y="1202" on="0"/>
        <pt x="1283" y="1189" on="1"/>
        <pt x="1198" y="1189" on="0"/>
        <pt x="1163" y="1174" on="1"/>
        <pt x="1092" y="1144" on="0"/>
        <pt x="1092" y="1071" on="1"/>
        <pt x="1092" y="907" on="0"/>
        <pt x="1134" y="529" on="0"/>
        <pt x="1160" y="308" on="0"/>
      </contour>
    </TTGlyph>
    <TTGlyph name="X" xMin="-116" yMin="0" xMax="1384" yMax="1264">
      <contour>
        <pt x="-107" y="0" on="1"/>
        <pt x="-114" y="0" on="0"/>
        <pt x="-114" y="19" on="1"/>
        <pt x="-116" y="20" on="1"/>
        <pt x="-116" y="52" on="0"/>
        <pt x="-94" y="76" on="1"/>
        <pt x="-9" y="76" on="0"/>
        <pt x="117" y="146" on="0"/>
        <pt x="183" y="217" on="1"/>
        <pt x="588" y="650" on="1"/>
        <pt x="363" y="1047" on="1"/>
        <pt x="317" y="1126" on="0"/>
        <pt x="229" y="1188" on="0"/>
        <pt x="148" y="1188" on="1"/>
        <pt x="127" y="1214" on="0"/>
        <pt x="127" y="1264" on="0"/>
        <pt x="134" y="1264" on="1"/>
        <pt x="651" y="1264" on="1"/>
        <pt x="666" y="1251" on="0"/>
        <pt x="666" y="1201" on="0"/>
        <pt x="661" y="1189" on="1"/>
        <pt x="508" y="1181" on="0"/>
        <pt x="508" y="1107" on="1"/>
        <pt x="508" y="1074" on="0"/>
        <pt x="613" y="897" on="0"/>
        <pt x="654" y="828" on="0"/>
        <pt x="687" y="773" on="0"/>
        <pt x="694" y="760" on="1"/>
        <pt x="706" y="773" on="0"/>
        <pt x="762" y="826" on="0"/>
        <pt x="796" y="860" on="1"/>
        <pt x="1005" y="1062" on="0"/>
        <pt x="1005" y="1102" on="1"/>
        <pt x="1005" y="1142" on="0"/>
        <pt x="927" y="1187" on="0"/>
        <pt x="890" y="1189" on="1"/>
        <pt x="886" y="1200" on="0"/>
        <pt x="886" y="1251" on="0"/>
        <pt x="901" y="1264" on="1"/>
        <pt x="1376" y="1264" on="1"/>
        <pt x="1384" y="1264" on="0"/>
        <pt x="1384" y="1215" on="0"/>
        <pt x="1363" y="1187" on="1"/>
        <pt x="1281" y="1187" on="0"/>
        <pt x="1159" y="1114" on="0"/>
        <pt x="1096" y="1047" on="1"/>
        <pt x="743" y="673" on="1"/>
        <pt x="996" y="217" on="1"/>
        <pt x="1039" y="138" on="0"/>
        <pt x="1128" y="76" on="0"/>
        <pt x="1211" y="76" on="1"/>
        <pt x="1232" y="50" on="0"/>
        <pt x="1232" y="20" on="1"/>
        <pt x="1230" y="19" on="1"/>
        <pt x="1230" y="0" on="0"/>
        <pt x="1223" y="0" on="1"/>
        <pt x="706" y="0" on="1"/>
        <pt x="691" y="13" on="0"/>
        <pt x="691" y="65" on="0"/>
        <pt x="695" y="74" on="1"/>
        <pt x="790" y="79" on="0"/>
        <pt x="831" y="118" on="1"/>
        <pt x="848" y="134" on="0"/>
        <pt x="848" y="170" on="0"/>
        <pt x="821" y="231" on="0"/>
        <pt x="780" y="311" on="0"/>
        <pt x="730" y="401" on="0"/>
        <pt x="683" y="483" on="0"/>
        <pt x="646" y="547" on="0"/>
        <pt x="638" y="561" on="1"/>
        <pt x="627" y="548" on="0"/>
        <pt x="566" y="485" on="0"/>
        <pt x="527" y="444" on="1"/>
        <pt x="285" y="190" on="0"/>
        <pt x="285" y="152" on="1"/>
        <pt x="285" y="110" on="0"/>
        <pt x="389" y="74" on="0"/>
        <pt x="441" y="74" on="1"/>
        <pt x="445" y="65" on="0"/>
        <pt x="445" y="13" on="0"/>
        <pt x="430" y="0" on="1"/>
      </contour>
    </TTGlyph>
    <TTGlyph name="Y" xMin="22" yMin="0" xMax="1283" yMax="1264">
      <contour>
        <pt x="783" y="1197" on="0"/>
        <pt x="783" y="1230" on="0"/>
        <pt x="796" y="1264" on="1"/>
        <pt x="1276" y="1264" on="1"/>
        <pt x="1283" y="1250" on="0"/>
        <pt x="1283" y="1201" on="0"/>
        <pt x="1268" y="1186" on="1"/>
        <pt x="1139" y="1186" on="0"/>
        <pt x="1036" y="1053" on="1"/>
        <pt x="571" y="455" on="1"/>
        <pt x="565" y="422" on="0"/>
        <pt x="556" y="385" on="1"/>
        <pt x="518" y="229" on="0"/>
        <pt x="518" y="166" on="1"/>
        <pt x="518" y="87" on="0"/>
        <pt x="623" y="78" on="1"/>
        <pt x="651" y="75" on="0"/>
        <pt x="675" y="74" on="1"/>
        <pt x="679" y="65" on="0"/>
        <pt x="679" y="13" on="0"/>
        <pt x="664" y="0" on="1"/>
        <pt x="152" y="0" on="1"/>
        <pt x="144" y="0" on="0"/>
        <pt x="144" y="49" on="0"/>
        <pt x="165" y="75" on="1"/>
        <pt x="314" y="75" on="0"/>
        <pt x="352" y="188" on="1"/>
        <pt x="371" y="246" on="0"/>
        <pt x="387" y="396" on="0"/>
        <pt x="396" y="443" on="1"/>
        <pt x="225" y="1068" on="1"/>
        <pt x="196" y="1172" on="0"/>
        <pt x="100" y="1184" on="1"/>
        <pt x="69" y="1188" on="0"/>
        <pt x="30" y="1188" on="1"/>
        <pt x="22" y="1188" on="0"/>
        <pt x="22" y="1234" on="0"/>
        <pt x="36" y="1264" on="1"/>
        <pt x="533" y="1264" on="1"/>
        <pt x="538" y="1249" on="0"/>
        <pt x="538" y="1201" on="0"/>
        <pt x="525" y="1188" on="1"/>
        <pt x="375" y="1188" on="0"/>
        <pt x="375" y="1084" on="1"/>
        <pt x="375" y="1011" on="0"/>
        <pt x="447" y="765" on="0"/>
        <pt x="477" y="664" on="0"/>
        <pt x="504" y="576" on="0"/>
        <pt x="512" y="544" on="1"/>
        <pt x="526" y="562" on="0"/>
        <pt x="597" y="650" on="0"/>
        <pt x="642" y="708" on="1"/>
        <pt x="916" y="1058" on="0"/>
        <pt x="916" y="1115" on="1"/>
        <pt x="916" y="1178" on="0"/>
        <pt x="850" y="1184" on="1"/>
        <pt x="804" y="1187" on="0"/>
      </contour>
    </TTGlyph>
    <TTGlyph name="Yacute" xMin="22" yMin="0" xMax="1283" yMax="1828">
      <component glyphName="Y" x="0" y="0" flags="0x1204"/>
      <component glyphName="acute" x="485" y="392" flags="0x1004"/>
    </TTGlyph>
    <TTGlyph name="Ydieresis" xMin="22" yMin="0" xMax="1283" yMax="1692">
      <component glyphName="Y" x="0" y="0" flags="0x1204"/>
      <component glyphName="dieresis" x="260" y="393" flags="0x1004"/>
    </TTGlyph>
    <TTGlyph name="Z" xMin="-12" yMin="0" xMax="1118" yMax="1264">
      <contour>
        <pt x="1115" y="1264" on="1"/>
        <pt x="1118" y="1252" on="0"/>
        <pt x="1118" y="1238" on="1"/>
        <pt x="1118" y="1204" on="0"/>
        <pt x="1097" y="1112" on="0"/>
        <pt x="1068" y="1067" on="0"/>
        <pt x="984" y="959" on="0"/>
        <pt x="866" y="815" on="0"/>
        <pt x="726" y="646" on="0"/>
        <pt x="654" y="560" on="1"/>
        <pt x="559" y="447" on="0"/>
        <pt x="263" y="95" on="0"/>
        <pt x="247" y="75" on="1"/>
        <pt x="597" y="75" on="1"/>
        <pt x="739" y="75" on="0"/>
        <pt x="827" y="208" on="1"/>
        <pt x="854" y="248" on="0"/>
        <pt x="880" y="296" on="1"/>
        <pt x="888" y="311" on="0"/>
        <pt x="974" y="311" on="0"/>
        <pt x="1009" y="305" on="1"/>
        <pt x="896" y="0" on="1"/>
        <pt x="31" y="0" on="1"/>
        <pt x="7" y="0" on="0"/>
        <pt x="-8" y="44" on="1"/>
        <pt x="-12" y="55" on="0"/>
        <pt x="-12" y="73" on="0"/>
        <pt x="-7" y="81" on="1"/>
        <pt x="121" y="229" on="0"/>
        <pt x="758" y="987" on="0"/>
        <pt x="934" y="1188" on="1"/>
        <pt x="518" y="1188" on="1"/>
        <pt x="374" y="1188" on="0"/>
        <pt x="288" y="1056" on="1"/>
        <pt x="261" y="1015" on="0"/>
        <pt x="236" y="968" on="1"/>
        <pt x="228" y="953" on="0"/>
        <pt x="136" y="953" on="0"/>
        <pt x="107" y="958" on="1"/>
        <pt x="220" y="1264" on="1"/>
      </contour>
    </TTGlyph>
    <TTGlyph name="Zacute" xMin="-12" yMin="0" xMax="1118" yMax="1828">
      <component glyphName="Z" x="0" y="0" flags="0x1204"/>
      <component glyphName="acute" x="386" y="392" flags="0x1004"/>
    </TTGlyph>
    <TTGlyph name="Zcaron" xMin="-12" yMin="0" xMax="1118" yMax="1857">
      <component glyphName="Z" x="0" y="0" flags="0x1204"/>
      <component glyphName="caron" x="141" y="392" flags="0x1004"/>
    </TTGlyph>
    <TTGlyph name="Zdotaccent" xMin="-12" yMin="0" xMax="1118" yMax="1554">
      <component glyphName="Z" x="0" y="0" flags="0x1204"/>
      <component glyphName="dotaccent" x="440" y="373" flags="0x1004"/>
    </TTGlyph>
    <TTGlyph name="a" xMin="71" yMin="-21" xMax="1137" yMax="891">
      <contour>
        <pt x="554" y="797" on="1"/>
        <pt x="447" y="797" on="0"/>
        <pt x="346" y="668" on="1"/>
        <pt x="238" y="530" on="0"/>
        <pt x="238" y="344" on="1"/>
        <pt x="238" y="218" on="0"/>
        <pt x="321" y="91" on="0"/>
        <pt x="472" y="91" on="0"/>
        <pt x="631" y="244" on="0"/>
        <pt x="734" y="477" on="0"/>
        <pt x="734" y="667" on="0"/>
        <pt x="680" y="732" on="1"/>
        <pt x="626" y="797" on="0"/>
      </contour>
      <contour>
        <pt x="863" y="107" on="1"/>
        <pt x="931" y="107" on="0"/>
        <pt x="1060" y="280" on="1"/>
        <pt x="1074" y="299" on="0"/>
        <pt x="1083" y="310" on="1"/>
        <pt x="1137" y="264" on="1"/>
        <pt x="947" y="-21" on="0"/>
        <pt x="794" y="-21" on="1"/>
        <pt x="727" y="-21" on="0"/>
        <pt x="692" y="61" on="1"/>
        <pt x="677" y="96" on="0"/>
        <pt x="677" y="128" on="1"/>
        <pt x="677" y="164" on="1"/>
        <pt x="677" y="169" on="0"/>
        <pt x="680" y="191" on="0"/>
        <pt x="685" y="230" on="0"/>
        <pt x="690" y="263" on="1"/>
        <pt x="566" y="-19" on="0"/>
        <pt x="337" y="-19" on="1"/>
        <pt x="225" y="-19" on="0"/>
        <pt x="71" y="153" on="0"/>
        <pt x="71" y="322" on="1"/>
        <pt x="71" y="543" on="0"/>
        <pt x="206" y="714" on="1"/>
        <pt x="269" y="794" on="0"/>
        <pt x="438" y="891" on="0"/>
        <pt x="518" y="891" on="1"/>
        <pt x="651" y="891" on="0"/>
        <pt x="718" y="817" on="1"/>
        <pt x="772" y="759" on="0"/>
        <pt x="777" y="689" on="1"/>
        <pt x="817" y="820" on="1"/>
        <pt x="830" y="864" on="0"/>
        <pt x="907" y="864" on="0"/>
        <pt x="956" y="824" on="0"/>
        <pt x="956" y="784" on="0"/>
        <pt x="951" y="769" on="1"/>
        <pt x="859" y="470" on="1"/>
        <pt x="801" y="280" on="0"/>
        <pt x="801" y="107" on="0"/>
      </contour>
    </TTGlyph>
    <TTGlyph name="aacute" xMin="71" yMin="-21" xMax="1137" yMax="1436">
      <component glyphName="a" x="0" y="0" flags="0x1204"/>
      <component glyphName="acute" x="383" y="0" flags="0x1004"/>
    </TTGlyph>
    <TTGlyph name="abreve" xMin="71" yMin="-21" xMax="1137" yMax="1210">
      <component glyphName="a" x="0" y="0" flags="0x1204"/>
      <component glyphName="breve" x="199" y="0" flags="0x1004"/>
    </TTGlyph>
    <TTGlyph name="acircumflex" xMin="71" yMin="-21" xMax="1137" yMax="1422">
      <component glyphName="a" x="0" y="0" flags="0x1204"/>
      <component glyphName="circumflex" x="123" y="0" flags="0x1004"/>
    </TTGlyph>
    <TTGlyph name="acute" xMin="176" yMin="997" xMax="506" yMax="1436">
      <contour>
        <pt x="176" y="1027" on="0"/>
        <pt x="394" y="1425" on="0"/>
        <pt x="412" y="1436" on="0"/>
        <pt x="425" y="1436" on="1"/>
        <pt x="452" y="1436" on="0"/>
        <pt x="506" y="1382" on="0"/>
        <pt x="506" y="1345" on="0"/>
        <pt x="498" y="1337" on="1"/>
        <pt x="441" y="1274" on="0"/>
        <pt x="233" y="1034" on="0"/>
        <pt x="200" y="997" on="0"/>
        <pt x="176" y="997" on="0"/>
      </contour>
    </TTGlyph>
    <TTGlyph name="adieresis" xMin="71" yMin="-21" xMax="1137" yMax="1300">
      <component glyphName="a" x="0" y="0" flags="0x1204"/>
      <component glyphName="dieresis" x="158" y="1" flags="0x1004"/>
    </TTGlyph>
    <TTGlyph name="ae" xMin="65" yMin="-12" xMax="1317" yMax="778">
      <contour>
        <pt x="1159" y="587" on="1"/>
        <pt x="1159" y="702" on="0"/>
        <pt x="1021" y="702" on="1"/>
        <pt x="935" y="702" on="0"/>
        <pt x="798" y="546" on="0"/>
        <pt x="798" y="454" on="1"/>
        <pt x="798" y="430" on="0"/>
        <pt x="809" y="408" on="1"/>
        <pt x="819" y="408" on="1"/>
        <pt x="1066" y="408" on="0"/>
        <pt x="1140" y="520" on="1"/>
        <pt x="1159" y="548" on="0"/>
      </contour>
      <contour>
        <pt x="255" y="454" on="0"/>
        <pt x="244" y="368" on="0"/>
        <pt x="244" y="294" on="0"/>
        <pt x="249" y="252" on="1"/>
        <pt x="249" y="251" on="1"/>
        <pt x="264" y="163" on="0"/>
        <pt x="320" y="117" on="1"/>
        <pt x="341" y="100" on="0"/>
        <pt x="413" y="100" on="0"/>
        <pt x="484" y="135" on="0"/>
        <pt x="512" y="164" on="1"/>
        <pt x="566" y="221" on="0"/>
        <pt x="624" y="398" on="0"/>
        <pt x="624" y="470" on="1"/>
        <pt x="624" y="586" on="0"/>
        <pt x="565" y="659" on="1"/>
        <pt x="526" y="707" on="0"/>
        <pt x="428" y="707" on="0"/>
        <pt x="363" y="672" on="0"/>
        <pt x="313" y="614" on="0"/>
        <pt x="278" y="538" on="0"/>
      </contour>
      <contour>
        <pt x="1260" y="253" on="1"/>
        <pt x="1299" y="253" on="0"/>
        <pt x="1299" y="157" on="0"/>
        <pt x="1236" y="74" on="0"/>
        <pt x="1187" y="46" on="1"/>
        <pt x="1088" y="-12" on="0"/>
        <pt x="822" y="-12" on="0"/>
        <pt x="704" y="91" on="1"/>
        <pt x="667" y="124" on="0"/>
        <pt x="628" y="166" on="1"/>
        <pt x="488" y="-11" on="0"/>
        <pt x="259" y="-11" on="0"/>
        <pt x="89" y="159" on="0"/>
        <pt x="70" y="271" on="1"/>
        <pt x="70" y="272" on="1"/>
        <pt x="71" y="271" on="1"/>
        <pt x="65" y="294" on="0"/>
        <pt x="65" y="418" on="0"/>
        <pt x="132" y="578" on="0"/>
        <pt x="188" y="640" on="1"/>
        <pt x="312" y="777" on="0"/>
        <pt x="471" y="777" on="1"/>
        <pt x="502" y="777" on="0"/>
        <pt x="626" y="710" on="0"/>
        <pt x="686" y="710" on="0"/>
        <pt x="710" y="731" on="0"/>
        <pt x="725" y="757" on="0"/>
        <pt x="739" y="778" on="0"/>
        <pt x="754" y="778" on="1"/>
        <pt x="778" y="778" on="0"/>
        <pt x="844" y="710" on="0"/>
        <pt x="865" y="710" on="1"/>
        <pt x="894" y="710" on="0"/>
        <pt x="1056" y="776" on="0"/>
        <pt x="1091" y="776" on="1"/>
        <pt x="1178" y="776" on="0"/>
        <pt x="1317" y="666" on="0"/>
        <pt x="1317" y="567" on="1"/>
        <pt x="1317" y="338" on="0"/>
        <pt x="790" y="302" on="1"/>
        <pt x="804" y="177" on="0"/>
        <pt x="880" y="101" on="0"/>
        <pt x="1073" y="101" on="0"/>
        <pt x="1228" y="253" on="0"/>
      </contour>
    </TTGlyph>
    <TTGlyph name="agrave" xMin="71" yMin="-21" xMax="1137" yMax="1437">
      <component glyphName="a" x="0" y="0" flags="0x1204"/>
      <component glyphName="grave" x="204" y="1" flags="0x1004"/>
    </TTGlyph>
    <TTGlyph name="amacron" xMin="71" yMin="-21" xMax="1137" yMax="1111">
      <component glyphName="a" x="0" y="0" flags="0x1204"/>
      <component glyphName="macron" x="54" y="-18" flags="0x1004"/>
    </TTGlyph>
    <TTGlyph name="ampersand" xMin="98" yMin="0" xMax="1685" yMax="1301">
      <contour>
        <pt x="321" y="779" on="1"/>
        <pt x="175" y="715" on="0"/>
        <pt x="175" y="524" on="1"/>
        <pt x="175" y="468" on="0"/>
        <pt x="228" y="353" on="0"/>
        <pt x="272" y="311" on="1"/>
        <pt x="353" y="235" on="0"/>
        <pt x="615" y="163" on="0"/>
        <pt x="813" y="163" on="0"/>
        <pt x="942" y="177" on="0"/>
        <pt x="1005" y="194" on="1"/>
        <pt x="1150" y="233" on="0"/>
        <pt x="1325" y="395" on="0"/>
        <pt x="1325" y="688" on="0"/>
        <pt x="1126" y="868" on="0"/>
        <pt x="960" y="868" on="1"/>
        <pt x="857" y="868" on="0"/>
        <pt x="694" y="762" on="0"/>
        <pt x="694" y="594" on="0"/>
        <pt x="797" y="484" on="0"/>
        <pt x="931" y="484" on="0"/>
        <pt x="931" y="540" on="1"/>
        <pt x="925" y="615" on="1"/>
        <pt x="925" y="653" on="0"/>
        <pt x="967" y="699" on="0"/>
        <pt x="996" y="699" on="1"/>
        <pt x="1047" y="699" on="0"/>
        <pt x="1102" y="640" on="0"/>
        <pt x="1102" y="597" on="1"/>
        <pt x="1102" y="514" on="0"/>
        <pt x="972" y="412" on="0"/>
        <pt x="902" y="412" on="1"/>
        <pt x="776" y="412" on="0"/>
        <pt x="623" y="544" on="0"/>
        <pt x="623" y="640" on="1"/>
        <pt x="623" y="815" on="0"/>
        <pt x="866" y="1009" on="0"/>
        <pt x="1034" y="1009" on="1"/>
        <pt x="1109" y="1009" on="0"/>
        <pt x="1399" y="942" on="0"/>
        <pt x="1450" y="942" on="1"/>
        <pt x="1530" y="942" on="0"/>
        <pt x="1611" y="1012" on="0"/>
        <pt x="1611" y="1132" on="0"/>
        <pt x="1564" y="1169" on="1"/>
        <pt x="1548" y="1181" on="0"/>
        <pt x="1511" y="1181" on="0"/>
        <pt x="1484" y="1154" on="0"/>
        <pt x="1470" y="1138" on="1"/>
        <pt x="1433" y="1094" on="0"/>
        <pt x="1404" y="1094" on="1"/>
        <pt x="1354" y="1094" on="0"/>
        <pt x="1298" y="1137" on="0"/>
        <pt x="1298" y="1169" on="1"/>
        <pt x="1298" y="1223" on="0"/>
        <pt x="1368" y="1272" on="0"/>
        <pt x="1418" y="1272" on="1"/>
        <pt x="1531" y="1272" on="0"/>
        <pt x="1685" y="1164" on="0"/>
        <pt x="1685" y="948" on="0"/>
        <pt x="1539" y="815" on="0"/>
        <pt x="1436" y="815" on="1"/>
        <pt x="1401" y="815" on="0"/>
        <pt x="1331" y="824" on="0"/>
        <pt x="1296" y="826" on="1"/>
        <pt x="1372" y="710" on="0"/>
        <pt x="1389" y="622" on="1"/>
        <pt x="1396" y="586" on="0"/>
        <pt x="1396" y="543" on="1"/>
        <pt x="1396" y="283" on="0"/>
        <pt x="1190" y="134" on="1"/>
        <pt x="1008" y="0" on="0"/>
        <pt x="504" y="0" on="0"/>
        <pt x="312" y="130" on="1"/>
        <pt x="180" y="218" on="0"/>
        <pt x="126" y="350" on="1"/>
        <pt x="98" y="418" on="0"/>
        <pt x="98" y="498" on="1"/>
        <pt x="98" y="712" on="0"/>
        <pt x="290" y="841" on="1"/>
        <pt x="259" y="906" on="0"/>
        <pt x="259" y="985" on="1"/>
        <pt x="259" y="1123" on="0"/>
        <pt x="456" y="1301" on="0"/>
        <pt x="580" y="1301" on="1"/>
        <pt x="658" y="1301" on="0"/>
        <pt x="706" y="1270" on="1"/>
        <pt x="795" y="1214" on="0"/>
        <pt x="795" y="1138" on="1"/>
        <pt x="795" y="1104" on="0"/>
        <pt x="739" y="1044" on="0"/>
        <pt x="706" y="1044" on="1"/>
        <pt x="662" y="1044" on="0"/>
        <pt x="466" y="1127" on="0"/>
        <pt x="417" y="1127" on="1"/>
        <pt x="328" y="1127" on="0"/>
        <pt x="328" y="986" on="1"/>
        <pt x="328" y="924" on="0"/>
        <pt x="351" y="866" on="1"/>
        <pt x="414" y="886" on="0"/>
        <pt x="482" y="886" on="0"/>
        <pt x="539" y="843" on="0"/>
        <pt x="539" y="756" on="0"/>
        <pt x="484" y="699" on="0"/>
        <pt x="442" y="699" on="1"/>
        <pt x="369" y="699" on="0"/>
      </contour>
    </TTGlyph>
    <TTGlyph name="aogonek" xMin="71" yMin="-355" xMax="1137" yMax="891">
      <component glyphName="a" x="0" y="0" flags="0x1204"/>
      <component glyphName="ogonek" x="333" y="0" flags="0x1004"/>
    </TTGlyph>
    <TTGlyph name="aring" xMin="71" yMin="-21" xMax="1137" yMax="1348">
      <component glyphName="a" x="0" y="0" flags="0x1204"/>
      <component glyphName="ring" x="228" y="1" flags="0x1004"/>
    </TTGlyph>
    <TTGlyph name="asciicircum" xMin="93" yMin="733" xMax="847" yMax="1374">
      <contour>
        <pt x="549" y="1356" on="0"/>
        <pt x="574" y="1374" on="0"/>
        <pt x="619" y="1374" on="0"/>
        <pt x="644" y="1358" on="1"/>
        <pt x="645" y="1358" on="1"/>
        <pt x="670" y="1286" on="0"/>
        <pt x="698" y="1209" on="1"/>
        <pt x="808" y="912" on="0"/>
        <pt x="847" y="749" on="1"/>
        <pt x="805" y="733" on="0"/>
        <pt x="785" y="733" on="0"/>
        <pt x="779" y="739" on="1"/>
        <pt x="719" y="813" on="0"/>
        <pt x="644" y="1018" on="0"/>
        <pt x="603" y="1143" on="0"/>
        <pt x="579" y="1200" on="1"/>
        <pt x="568" y="1225" on="1"/>
        <pt x="550" y="1204" on="1"/>
        <pt x="505" y="1150" on="0"/>
        <pt x="455" y="1056" on="1"/>
        <pt x="361" y="880" on="0"/>
        <pt x="315" y="825" on="1"/>
        <pt x="242" y="739" on="0"/>
        <pt x="152" y="739" on="1"/>
        <pt x="115" y="739" on="0"/>
        <pt x="93" y="746" on="1"/>
        <pt x="183" y="884" on="0"/>
        <pt x="454" y="1227" on="0"/>
        <pt x="510" y="1301" on="0"/>
        <pt x="528" y="1331" on="0"/>
      </contour>
    </TTGlyph>
    <TTGlyph name="asciitilde" xMin="120" yMin="600" xMax="969" yMax="834">
      <contour>
        <pt x="761" y="701" on="1"/>
        <pt x="876" y="701" on="0"/>
        <pt x="914" y="829" on="1"/>
        <pt x="969" y="829" on="1"/>
        <pt x="943" y="723" on="0"/>
        <pt x="823" y="600" on="0"/>
        <pt x="678" y="600" on="0"/>
        <pt x="571" y="641" on="0"/>
        <pt x="471" y="689" on="0"/>
        <pt x="377" y="730" on="0"/>
        <pt x="331" y="730" on="1"/>
        <pt x="224" y="730" on="0"/>
        <pt x="176" y="613" on="1"/>
        <pt x="120" y="613" on="1"/>
        <pt x="195" y="834" on="0"/>
        <pt x="368" y="834" on="1"/>
        <pt x="442" y="834" on="0"/>
        <pt x="700" y="701" on="0"/>
      </contour>
    </TTGlyph>
    <TTGlyph name="asterisk" xMin="134" yMin="312" xMax="1151" yMax="1292">
      <contour>
        <pt x="605" y="734" on="1"/>
        <pt x="357" y="312" on="0"/>
        <pt x="256" y="312" on="1"/>
        <pt x="234" y="312" on="0"/>
        <pt x="196" y="346" on="0"/>
        <pt x="196" y="372" on="1"/>
        <pt x="196" y="417" on="0"/>
        <pt x="324" y="536" on="1"/>
        <pt x="401" y="610" on="0"/>
        <pt x="572" y="750" on="1"/>
        <pt x="176" y="841" on="1"/>
        <pt x="158" y="846" on="0"/>
        <pt x="134" y="876" on="0"/>
        <pt x="134" y="894" on="1"/>
        <pt x="134" y="930" on="0"/>
        <pt x="196" y="992" on="0"/>
        <pt x="277" y="992" on="0"/>
        <pt x="595" y="792" on="1"/>
        <pt x="595" y="1100" on="0"/>
        <pt x="629" y="1222" on="1"/>
        <pt x="637" y="1253" on="0"/>
        <pt x="692" y="1292" on="0"/>
        <pt x="724" y="1292" on="1"/>
        <pt x="782" y="1292" on="0"/>
        <pt x="782" y="1234" on="1"/>
        <pt x="782" y="1228" on="0"/>
        <pt x="780" y="1224" on="1"/>
        <pt x="783" y="1226" on="1"/>
        <pt x="746" y="1063" on="0"/>
        <pt x="637" y="789" on="1"/>
        <pt x="1049" y="993" on="0"/>
        <pt x="1096" y="993" on="1"/>
        <pt x="1122" y="993" on="0"/>
        <pt x="1151" y="957" on="0"/>
        <pt x="1151" y="899" on="0"/>
        <pt x="1103" y="848" on="0"/>
        <pt x="1071" y="841" on="1"/>
        <pt x="649" y="753" on="1"/>
        <pt x="869" y="472" on="0"/>
        <pt x="869" y="400" on="1"/>
        <pt x="869" y="369" on="0"/>
        <pt x="801" y="312" on="0"/>
        <pt x="776" y="312" on="1"/>
        <pt x="726" y="312" on="0"/>
        <pt x="715" y="351" on="1"/>
      </contour>
    </TTGlyph>
    <TTGlyph name="at" xMin="32" yMin="-157" xMax="1662" yMax="1295">
      <contour>
        <pt x="1135" y="244" on="1"/>
        <pt x="1135" y="188" on="0"/>
        <pt x="1248" y="188" on="0"/>
        <pt x="1394" y="393" on="0"/>
        <pt x="1483" y="691" on="0"/>
        <pt x="1483" y="796" on="1"/>
        <pt x="1483" y="994" on="0"/>
        <pt x="1270" y="1188" on="0"/>
        <pt x="932" y="1188" on="0"/>
        <pt x="567" y="1002" on="0"/>
        <pt x="286" y="658" on="0"/>
        <pt x="240" y="432" on="1"/>
        <pt x="228" y="370" on="0"/>
        <pt x="228" y="226" on="0"/>
        <pt x="294" y="89" on="0"/>
        <pt x="356" y="44" on="1"/>
        <pt x="479" y="-48" on="0"/>
        <pt x="699" y="-48" on="1"/>
        <pt x="863" y="-48" on="0"/>
        <pt x="1073" y="7" on="1"/>
        <pt x="1051" y="-66" on="1"/>
        <pt x="839" y="-157" on="0"/>
        <pt x="369" y="-157" on="0"/>
        <pt x="32" y="78" on="0"/>
        <pt x="32" y="299" on="1"/>
        <pt x="32" y="465" on="0"/>
        <pt x="126" y="654" on="1"/>
        <pt x="236" y="879" on="0"/>
        <pt x="436" y="1040" on="1"/>
        <pt x="535" y="1120" on="0"/>
        <pt x="646" y="1176" on="1"/>
        <pt x="880" y="1295" on="0"/>
        <pt x="1366" y="1295" on="0"/>
        <pt x="1662" y="1043" on="0"/>
        <pt x="1662" y="811" on="1"/>
        <pt x="1662" y="615" on="0"/>
        <pt x="1430" y="200" on="0"/>
        <pt x="1261" y="124" on="1"/>
        <pt x="1202" y="98" on="0"/>
        <pt x="1150" y="98" on="1"/>
        <pt x="1063" y="98" on="0"/>
        <pt x="985" y="206" on="0"/>
        <pt x="983" y="289" on="1"/>
        <pt x="844" y="150" on="0"/>
        <pt x="671" y="150" on="1"/>
        <pt x="438" y="150" on="0"/>
        <pt x="438" y="398" on="1"/>
        <pt x="438" y="532" on="0"/>
        <pt x="525" y="683" on="1"/>
        <pt x="610" y="831" on="0"/>
        <pt x="892" y="1024" on="0"/>
        <pt x="1045" y="1024" on="1"/>
        <pt x="1265" y="1024" on="0"/>
        <pt x="1265" y="809" on="1"/>
        <pt x="1265" y="710" on="0"/>
        <pt x="1196" y="484" on="0"/>
        <pt x="1175" y="418" on="1"/>
        <pt x="1135" y="294" on="0"/>
      </contour>
      <contour>
        <pt x="597" y="397" on="1"/>
        <pt x="597" y="248" on="0"/>
        <pt x="728" y="248" on="1"/>
        <pt x="845" y="248" on="0"/>
        <pt x="993" y="355" on="1"/>
        <pt x="1021" y="443" on="0"/>
        <pt x="1050" y="529" on="1"/>
        <pt x="1110" y="702" on="0"/>
        <pt x="1110" y="810" on="1"/>
        <pt x="1110" y="945" on="0"/>
        <pt x="913" y="945" on="0"/>
        <pt x="722" y="762" on="0"/>
        <pt x="597" y="500" on="0"/>
      </contour>
    </TTGlyph>
    <TTGlyph name="atilde" xMin="71" yMin="-21" xMax="1137" yMax="1207">
      <component glyphName="a" x="0" y="0" flags="0x1204"/>
      <component glyphName="tilde" x="139" y="1" flags="0x1004"/>
    </TTGlyph>
    <TTGlyph name="b" xMin="102" yMin="-19" xMax="943" yMax="1344">
      <contour>
        <pt x="469" y="1344" on="1"/>
        <pt x="503" y="1344" on="0"/>
        <pt x="503" y="1309" on="1"/>
        <pt x="503" y="1293" on="0"/>
        <pt x="488" y="1228" on="1"/>
        <pt x="347" y="715" on="1"/>
        <pt x="468" y="891" on="0"/>
        <pt x="659" y="891" on="1"/>
        <pt x="783" y="891" on="0"/>
        <pt x="943" y="731" on="0"/>
        <pt x="943" y="597" on="1"/>
        <pt x="943" y="348" on="0"/>
        <pt x="780" y="164" on="1"/>
        <pt x="679" y="49" on="0"/>
        <pt x="542" y="4" on="1"/>
        <pt x="475" y="-19" on="0"/>
        <pt x="404" y="-19" on="1"/>
        <pt x="102" y="-19" on="0"/>
        <pt x="102" y="298" on="1"/>
        <pt x="102" y="410" on="0"/>
        <pt x="171" y="676" on="0"/>
        <pt x="220" y="853" on="0"/>
        <pt x="283" y="1079" on="0"/>
        <pt x="322" y="1225" on="1"/>
        <pt x="161" y="1235" on="1"/>
        <pt x="137" y="1239" on="0"/>
        <pt x="137" y="1281" on="0"/>
        <pt x="175" y="1302" on="0"/>
        <pt x="253" y="1318" on="0"/>
        <pt x="370" y="1332" on="0"/>
        <pt x="462" y="1344" on="0"/>
      </contour>
      <contour>
        <pt x="725" y="775" on="0"/>
        <pt x="668" y="813" on="0"/>
        <pt x="572" y="813" on="0"/>
        <pt x="473" y="768" on="0"/>
        <pt x="433" y="730" on="1"/>
        <pt x="358" y="659" on="0"/>
        <pt x="274" y="415" on="0"/>
        <pt x="274" y="322" on="1"/>
        <pt x="274" y="175" on="0"/>
        <pt x="353" y="82" on="0"/>
        <pt x="478" y="82" on="0"/>
        <pt x="573" y="132" on="0"/>
        <pt x="612" y="173" on="1"/>
        <pt x="689" y="252" on="0"/>
        <pt x="782" y="494" on="0"/>
        <pt x="782" y="682" on="0"/>
      </contour>
    </TTGlyph>
    <TTGlyph name="backslash" xMin="120" yMin="-103" xMax="414" yMax="1389">
      <contour>
        <pt x="395" y="-100" on="1"/>
        <pt x="365" y="-103" on="1"/>
        <pt x="337" y="-103" on="0"/>
        <pt x="320" y="120" on="0"/>
        <pt x="282" y="334" on="1"/>
        <pt x="215" y="712" on="1"/>
        <pt x="142" y="1121" on="0"/>
        <pt x="120" y="1369" on="1"/>
        <pt x="121" y="1369" on="1"/>
        <pt x="155" y="1389" on="0"/>
        <pt x="175" y="1389" on="0"/>
        <pt x="197" y="1367" on="0"/>
        <pt x="215" y="1310" on="0"/>
        <pt x="223" y="1243" on="0"/>
        <pt x="228" y="1172" on="0"/>
        <pt x="234" y="1139" on="1"/>
        <pt x="411" y="69" on="1"/>
        <pt x="414" y="52" on="0"/>
        <pt x="414" y="20" on="0"/>
        <pt x="399" y="-100" on="1"/>
      </contour>
    </TTGlyph>
    <TTGlyph name="bar" xMin="44" yMin="-296" xMax="460" yMax="1450">
      <contour>
        <pt x="145" y="-250" on="0"/>
        <pt x="120" y="-296" on="0"/>
        <pt x="44" y="-296" on="0"/>
        <pt x="44" y="-275" on="1"/>
        <pt x="44" y="93" on="0"/>
        <pt x="172" y="581" on="1"/>
        <pt x="213" y="736" on="0"/>
        <pt x="367" y="1283" on="0"/>
        <pt x="402" y="1432" on="0"/>
        <pt x="415" y="1441" on="0"/>
        <pt x="432" y="1447" on="0"/>
        <pt x="451" y="1449" on="0"/>
        <pt x="460" y="1450" on="1"/>
        <pt x="460" y="1322" on="0"/>
        <pt x="444" y="1248" on="1"/>
        <pt x="163" y="-84" on="1"/>
        <pt x="158" y="-111" on="0"/>
        <pt x="156" y="-184" on="0"/>
      </contour>
    </TTGlyph>
    <TTGlyph name="braceleft" xMin="42" yMin="-213" xMax="725" yMax="1481">
      <contour>
        <pt x="378" y="-197" on="1"/>
        <pt x="378" y="-213" on="0"/>
        <pt x="371" y="-213" on="1"/>
        <pt x="241" y="-213" on="0"/>
        <pt x="111" y="-86" on="0"/>
        <pt x="111" y="108" on="0"/>
        <pt x="182" y="303" on="0"/>
        <pt x="214" y="409" on="0"/>
        <pt x="214" y="496" on="0"/>
        <pt x="189" y="534" on="0"/>
        <pt x="150" y="558" on="0"/>
        <pt x="106" y="572" on="0"/>
        <pt x="86" y="580" on="1"/>
        <pt x="42" y="597" on="0"/>
        <pt x="42" y="627" on="1"/>
        <pt x="42" y="637" on="0"/>
        <pt x="55" y="652" on="0"/>
        <pt x="61" y="653" on="1"/>
        <pt x="158" y="665" on="0"/>
        <pt x="305" y="792" on="0"/>
        <pt x="317" y="944" on="1"/>
        <pt x="320" y="980" on="0"/>
        <pt x="329" y="1113" on="0"/>
        <pt x="341" y="1172" on="1"/>
        <pt x="367" y="1303" on="0"/>
        <pt x="574" y="1467" on="0"/>
        <pt x="725" y="1481" on="1"/>
        <pt x="724" y="1474" on="0"/>
        <pt x="724" y="1460" on="0"/>
        <pt x="719" y="1458" on="1"/>
        <pt x="624" y="1439" on="0"/>
        <pt x="582" y="1410" on="1"/>
        <pt x="504" y="1355" on="0"/>
        <pt x="486" y="1267" on="1"/>
        <pt x="475" y="1213" on="0"/>
        <pt x="472" y="1023" on="0"/>
        <pt x="464" y="974" on="1"/>
        <pt x="419" y="722" on="0"/>
        <pt x="203" y="643" on="1"/>
        <pt x="149" y="628" on="1"/>
        <pt x="203" y="611" on="1"/>
        <pt x="332" y="551" on="0"/>
        <pt x="332" y="374" on="1"/>
        <pt x="332" y="303" on="0"/>
        <pt x="266" y="145" on="0"/>
        <pt x="246" y="98" on="1"/>
        <pt x="212" y="16" on="0"/>
        <pt x="212" y="-37" on="1"/>
        <pt x="212" y="-154" on="0"/>
        <pt x="378" y="-188" on="1"/>
      </contour>
    </TTGlyph>
    <TTGlyph name="braceright" xMin="-66" yMin="-215" xMax="621" yMax="1480">
      <contour>
        <pt x="451" y="1304" on="1"/>
        <pt x="451" y="1426" on="0"/>
        <pt x="290" y="1456" on="1"/>
        <pt x="291" y="1461" on="0"/>
        <pt x="291" y="1480" on="0"/>
        <pt x="298" y="1480" on="1"/>
        <pt x="424" y="1480" on="0"/>
        <pt x="557" y="1353" on="0"/>
        <pt x="557" y="1241" on="1"/>
        <pt x="557" y="1179" on="0"/>
        <pt x="486" y="982" on="0"/>
        <pt x="454" y="871" on="0"/>
        <pt x="454" y="744" on="0"/>
        <pt x="541" y="664" on="0"/>
        <pt x="613" y="651" on="1"/>
        <pt x="621" y="649" on="0"/>
        <pt x="621" y="633" on="0"/>
        <pt x="618" y="630" on="1"/>
        <pt x="579" y="606" on="0"/>
        <pt x="499" y="581" on="0"/>
        <pt x="464" y="562" on="1"/>
        <pt x="362" y="507" on="0"/>
        <pt x="347" y="332" on="1"/>
        <pt x="344" y="298" on="0"/>
        <pt x="340" y="234" on="1"/>
        <pt x="314" y="-181" on="0"/>
        <pt x="-66" y="-215" on="1"/>
        <pt x="-65" y="-210" on="0"/>
        <pt x="-63" y="-192" on="0"/>
        <pt x="-58" y="-191" on="1"/>
        <pt x="148" y="-148" on="0"/>
        <pt x="179" y="-6" on="1"/>
        <pt x="192" y="54" on="0"/>
        <pt x="190" y="114" on="1"/>
        <pt x="190" y="179" on="1"/>
        <pt x="190" y="436" on="0"/>
        <pt x="389" y="558" on="1"/>
        <pt x="452" y="596" on="0"/>
        <pt x="529" y="617" on="1"/>
        <pt x="584" y="632" on="1"/>
        <pt x="529" y="649" on="1"/>
        <pt x="332" y="710" on="0"/>
        <pt x="332" y="893" on="1"/>
        <pt x="332" y="973" on="0"/>
        <pt x="392" y="1102" on="1"/>
        <pt x="414" y="1150" on="0"/>
        <pt x="451" y="1249" on="0"/>
      </contour>
    </TTGlyph>
    <TTGlyph name="bracketleft" xMin="30" yMin="-196" xMax="970" yMax="1513">
      <contour>
        <pt x="66" y="-181" on="1"/>
        <pt x="30" y="-181" on="0"/>
        <pt x="30" y="-128" on="0"/>
        <pt x="105" y="186" on="0"/>
        <pt x="188" y="580" on="0"/>
        <pt x="297" y="1155" on="0"/>
        <pt x="358" y="1446" on="1"/>
        <pt x="357" y="1446" on="1"/>
        <pt x="364" y="1475" on="0"/>
        <pt x="420" y="1502" on="1"/>
        <pt x="434" y="1508" on="0"/>
        <pt x="445" y="1508" on="1"/>
        <pt x="902" y="1513" on="1"/>
        <pt x="970" y="1513" on="0"/>
        <pt x="970" y="1435" on="0"/>
        <pt x="914" y="1398" on="0"/>
        <pt x="875" y="1398" on="1"/>
        <pt x="469" y="1398" on="1"/>
        <pt x="423" y="1183" on="0"/>
        <pt x="368" y="968" on="1"/>
        <pt x="295" y="679" on="0"/>
        <pt x="145" y="-78" on="1"/>
        <pt x="166" y="-78" on="1"/>
        <pt x="510" y="-72" on="1"/>
        <pt x="575" y="-72" on="0"/>
        <pt x="575" y="-131" on="1"/>
        <pt x="575" y="-196" on="0"/>
        <pt x="487" y="-196" on="1"/>
      </contour>
    </TTGlyph>
    <TTGlyph name="bracketright" xMin="-64" yMin="-197" xMax="821" yMax="1511">
      <contour>
        <pt x="423" y="-182" on="1"/>
        <pt x="-5" y="-197" on="1"/>
        <pt x="-6" y="-197" on="1"/>
        <pt x="-38" y="-197" on="0"/>
        <pt x="-64" y="-183" on="0"/>
        <pt x="-64" y="-164" on="1"/>
        <pt x="-64" y="-71" on="0"/>
        <pt x="85" y="-71" on="1"/>
        <pt x="231" y="-80" on="1"/>
        <pt x="390" y="-80" on="1"/>
        <pt x="541" y="585" on="0"/>
        <pt x="644" y="1179" on="0"/>
        <pt x="688" y="1396" on="1"/>
        <pt x="261" y="1396" on="1"/>
        <pt x="238" y="1396" on="0"/>
        <pt x="211" y="1421" on="0"/>
        <pt x="211" y="1440" on="1"/>
        <pt x="211" y="1474" on="0"/>
        <pt x="271" y="1511" on="0"/>
        <pt x="310" y="1511" on="1"/>
        <pt x="767" y="1506" on="1"/>
        <pt x="786" y="1506" on="0"/>
        <pt x="821" y="1468" on="0"/>
        <pt x="821" y="1451" on="1"/>
        <pt x="821" y="1249" on="0"/>
        <pt x="738" y="946" on="1"/>
        <pt x="703" y="820" on="0"/>
        <pt x="628" y="570" on="0"/>
        <pt x="565" y="276" on="0"/>
        <pt x="530" y="38" on="0"/>
        <pt x="500" y="-113" on="0"/>
        <pt x="462" y="-182" on="0"/>
      </contour>
    </TTGlyph>
    <TTGlyph name="breve" xMin="180" yMin="997" xMax="641" yMax="1210">
      <contour>
        <pt x="213" y="1210" on="1"/>
        <pt x="250" y="1094" on="0"/>
        <pt x="550" y="1094" on="0"/>
        <pt x="615" y="1210" on="1"/>
        <pt x="641" y="1210" on="1"/>
        <pt x="614" y="1110" on="0"/>
        <pt x="471" y="997" on="0"/>
        <pt x="267" y="997" on="0"/>
        <pt x="180" y="1090" on="0"/>
        <pt x="180" y="1168" on="1"/>
        <pt x="180" y="1187" on="0"/>
        <pt x="183" y="1210" on="1"/>
      </contour>
    </TTGlyph>
    <TTGlyph name="brokenbar" xMin="26" yMin="-212" xMax="412" yMax="1359">
      <contour>
        <pt x="405" y="1359" on="1"/>
        <pt x="412" y="1317" on="0"/>
        <pt x="412" y="1274" on="0"/>
        <pt x="406" y="1249" on="1"/>
        <pt x="299" y="747" on="1"/>
        <pt x="271" y="728" on="0"/>
        <pt x="240" y="724" on="1"/>
        <pt x="239" y="734" on="0"/>
        <pt x="239" y="742" on="1"/>
        <pt x="239" y="758" on="1"/>
        <pt x="239" y="842" on="0"/>
        <pt x="274" y="1006" on="1"/>
        <pt x="342" y="1335" on="1"/>
        <pt x="343" y="1332" on="1"/>
        <pt x="363" y="1354" on="0"/>
      </contour>
      <contour>
        <pt x="209" y="425" on="1"/>
        <pt x="214" y="395" on="0"/>
        <pt x="214" y="331" on="0"/>
        <pt x="198" y="230" on="0"/>
        <pt x="176" y="127" on="0"/>
        <pt x="152" y="27" on="0"/>
        <pt x="138" y="-40" on="0"/>
        <pt x="136" y="-74" on="1"/>
        <pt x="125" y="-212" on="0"/>
        <pt x="69" y="-212" on="1"/>
        <pt x="52" y="-212" on="0"/>
        <pt x="26" y="-206" on="0"/>
        <pt x="26" y="-189" on="1"/>
        <pt x="26" y="-64" on="0"/>
        <pt x="86" y="181" on="0"/>
        <pt x="129" y="327" on="0"/>
        <pt x="147" y="399" on="1"/>
        <pt x="152" y="416" on="0"/>
        <pt x="192" y="423" on="0"/>
      </contour>
    </TTGlyph>
    <TTGlyph name="bullet" xMin="113" yMin="332" xMax="608" yMax="835">
      <contour>
        <pt x="504" y="835" on="0"/>
        <pt x="608" y="720" on="0"/>
        <pt x="608" y="648" on="1"/>
        <pt x="608" y="516" on="0"/>
        <pt x="434" y="332" on="0"/>
        <pt x="169" y="332" on="0"/>
        <pt x="126" y="452" on="1"/>
        <pt x="113" y="488" on="0"/>
        <pt x="113" y="587" on="0"/>
        <pt x="160" y="697" on="0"/>
        <pt x="200" y="740" on="1"/>
        <pt x="290" y="835" on="0"/>
      </contour>
    </TTGlyph>
    <TTGlyph name="c" xMin="71" yMin="-19" xMax="866" yMax="891">
      <contour>
        <pt x="866" y="247" on="1"/>
        <pt x="681" y="-19" on="0"/>
        <pt x="448" y="-19" on="1"/>
        <pt x="378" y="-19" on="0"/>
        <pt x="238" y="41" on="0"/>
        <pt x="186" y="95" on="1"/>
        <pt x="71" y="213" on="0"/>
        <pt x="71" y="593" on="0"/>
        <pt x="341" y="891" on="0"/>
        <pt x="527" y="891" on="1"/>
        <pt x="619" y="891" on="0"/>
        <pt x="847" y="779" on="0"/>
        <pt x="847" y="688" on="1"/>
        <pt x="847" y="623" on="0"/>
        <pt x="775" y="623" on="1"/>
        <pt x="738" y="623" on="0"/>
        <pt x="696" y="674" on="1"/>
        <pt x="677" y="697" on="0"/>
        <pt x="658" y="722" on="1"/>
        <pt x="584" y="822" on="0"/>
        <pt x="518" y="822" on="1"/>
        <pt x="398" y="822" on="0"/>
        <pt x="240" y="546" on="0"/>
        <pt x="240" y="388" on="1"/>
        <pt x="240" y="193" on="0"/>
        <pt x="368" y="123" on="1"/>
        <pt x="411" y="99" on="0"/>
        <pt x="469" y="99" on="1"/>
        <pt x="571" y="99" on="0"/>
        <pt x="658" y="164" on="1"/>
        <pt x="713" y="207" on="0"/>
        <pt x="791" y="306" on="1"/>
      </contour>
    </TTGlyph>
    <TTGlyph name="cacute" xMin="71" yMin="-19" xMax="866" yMax="1436">
      <component glyphName="c" x="0" y="0" flags="0x1204"/>
      <component glyphName="acute" x="352" y="0" flags="0x1004"/>
    </TTGlyph>
    <TTGlyph name="caron" xMin="259" yMin="1017" xMax="779" yMax="1465">
      <contour>
        <pt x="278" y="1465" on="1"/>
        <pt x="456" y="1195" on="1"/>
        <pt x="762" y="1461" on="1"/>
        <pt x="779" y="1445" on="1"/>
        <pt x="761" y="1420" on="0"/>
        <pt x="736" y="1385" on="1"/>
        <pt x="632" y="1239" on="0"/>
        <pt x="530" y="1096" on="0"/>
        <pt x="513" y="1074" on="1"/>
        <pt x="471" y="1017" on="0"/>
        <pt x="390" y="1017" on="0"/>
        <pt x="371" y="1070" on="1"/>
        <pt x="361" y="1097" on="0"/>
        <pt x="332" y="1198" on="0"/>
        <pt x="307" y="1280" on="0"/>
        <pt x="285" y="1359" on="0"/>
        <pt x="265" y="1430" on="0"/>
        <pt x="259" y="1453" on="1"/>
      </contour>
    </TTGlyph>
    <TTGlyph name="ccaron" xMin="71" yMin="-19" xMax="886" yMax="1465">
      <component glyphName="c" x="0" y="0" flags="0x1204"/>
      <component glyphName="caron" x="107" y="0" flags="0x1004"/>
    </TTGlyph>
    <TTGlyph name="ccedilla" xMin="71" yMin="-451" xMax="866" yMax="891">
      <component glyphName="c" x="0" y="0" flags="0x1204"/>
      <component glyphName="cedilla" x="165" y="0" flags="0x1004"/>
    </TTGlyph>
    <TTGlyph name="ccircumflex" xMin="71" yMin="-19" xMax="866" yMax="1422">
      <component glyphName="c" x="0" y="0" flags="0x1204"/>
      <component glyphName="circumflex" x="92" y="0" flags="0x1004"/>
    </TTGlyph>
    <TTGlyph name="cedilla" xMin="79" yMin="-451" xMax="441" yMax="0">
      <contour>
        <pt x="305" y="-289" on="1"/>
        <pt x="305" y="-209" on="0"/>
        <pt x="182" y="-193" on="1"/>
        <pt x="263" y="0" on="1"/>
        <pt x="319" y="0" on="1"/>
        <pt x="308" y="-152" on="1"/>
        <pt x="441" y="-170" on="0"/>
        <pt x="441" y="-260" on="1"/>
        <pt x="441" y="-342" on="0"/>
        <pt x="285" y="-451" on="0"/>
        <pt x="187" y="-451" on="1"/>
        <pt x="137" y="-451" on="0"/>
        <pt x="79" y="-428" on="1"/>
        <pt x="90" y="-403" on="1"/>
        <pt x="119" y="-416" on="0"/>
        <pt x="152" y="-416" on="1"/>
        <pt x="214" y="-416" on="0"/>
        <pt x="305" y="-345" on="0"/>
      </contour>
    </TTGlyph>
    <TTGlyph name="cent" xMin="57" yMin="-366" xMax="887" yMax="1246">
      <contour>
        <pt x="557" y="841" on="1"/>
        <pt x="556" y="840" on="1"/>
        <pt x="534" y="845" on="0"/>
        <pt x="520" y="845" on="1"/>
        <pt x="393" y="845" on="0"/>
        <pt x="225" y="568" on="0"/>
        <pt x="225" y="247" on="0"/>
        <pt x="323" y="168" on="1"/>
        <pt x="357" y="140" on="0"/>
        <pt x="404" y="127" on="1"/>
        <pt x="563" y="839" on="1"/>
      </contour>
      <contour>
        <pt x="867" y="706" on="1"/>
        <pt x="867" y="641" on="0"/>
        <pt x="795" y="641" on="1"/>
        <pt x="758" y="641" on="0"/>
        <pt x="708" y="700" on="1"/>
        <pt x="686" y="725" on="0"/>
        <pt x="642" y="782" on="0"/>
        <pt x="617" y="805" on="1"/>
        <pt x="463" y="119" on="1"/>
        <pt x="472" y="119" on="1"/>
        <pt x="631" y="119" on="0"/>
        <pt x="749" y="251" on="1"/>
        <pt x="782" y="288" on="0"/>
        <pt x="812" y="327" on="1"/>
        <pt x="887" y="268" on="1"/>
        <pt x="700" y="0" on="0"/>
        <pt x="443" y="0" on="1"/>
        <pt x="437" y="0" on="1"/>
        <pt x="375" y="-278" on="1"/>
        <pt x="357" y="-351" on="0"/>
        <pt x="328" y="-365" on="1"/>
        <pt x="321" y="-368" on="0"/>
        <pt x="305" y="-363" on="0"/>
        <pt x="305" y="-315" on="0"/>
        <pt x="309" y="-302" on="1"/>
        <pt x="378" y="6" on="1"/>
        <pt x="238" y="26" on="0"/>
        <pt x="57" y="256" on="0"/>
        <pt x="57" y="408" on="1"/>
        <pt x="57" y="612" on="0"/>
        <pt x="334" y="911" on="0"/>
        <pt x="536" y="911" on="1"/>
        <pt x="557" y="911" on="0"/>
        <pt x="579" y="907" on="1"/>
        <pt x="627" y="1122" on="1"/>
        <pt x="650" y="1229" on="0"/>
        <pt x="674" y="1242" on="1"/>
        <pt x="681" y="1246" on="0"/>
        <pt x="690" y="1246" on="1"/>
        <pt x="714" y="1246" on="0"/>
        <pt x="686" y="1123" on="1"/>
        <pt x="636" y="897" on="1"/>
        <pt x="867" y="828" on="0"/>
      </contour>
    </TTGlyph>
    <TTGlyph name="circumflex" xMin="249" yMin="974" xMax="769" yMax="1422">
      <contour>
        <pt x="750" y="974" on="1"/>
        <pt x="572" y="1244" on="1"/>
        <pt x="266" y="978" on="1"/>
        <pt x="249" y="994" on="1"/>
        <pt x="335" y="1120" on="0"/>
        <pt x="475" y="1310" on="0"/>
        <pt x="509" y="1357" on="0"/>
        <pt x="532" y="1388" on="0"/>
        <pt x="579" y="1422" on="0"/>
        <pt x="600" y="1422" on="1"/>
        <pt x="638" y="1422" on="0"/>
        <pt x="657" y="1369" on="1"/>
        <pt x="667" y="1342" on="0"/>
        <pt x="696" y="1241" on="0"/>
        <pt x="721" y="1159" on="0"/>
        <pt x="743" y="1080" on="0"/>
        <pt x="763" y="1009" on="0"/>
        <pt x="769" y="986" on="1"/>
      </contour>
    </TTGlyph>
    <TTGlyph name="ck" xMin="78" yMin="-19" xMax="1970" yMax="1315">
      <contour>
        <pt x="1028" y="0" on="1"/>
        <pt x="946" y="0" on="0"/>
        <pt x="946" y="72" on="1"/>
        <pt x="946" y="116" on="0"/>
        <pt x="973" y="216" on="0"/>
        <pt x="977" y="232" on="1"/>
        <pt x="1237" y="1213" on="1"/>
        <pt x="922" y="1204" on="0"/>
        <pt x="922" y="926" on="1"/>
        <pt x="922" y="875" on="0"/>
        <pt x="938" y="786" on="0"/>
        <pt x="938" y="750" on="1"/>
        <pt x="938" y="682" on="0"/>
        <pt x="858" y="598" on="0"/>
        <pt x="732" y="598" on="0"/>
        <pt x="732" y="659" on="1"/>
        <pt x="732" y="682" on="0"/>
        <pt x="776" y="760" on="0"/>
        <pt x="776" y="780" on="1"/>
        <pt x="776" y="837" on="0"/>
        <pt x="555" y="837" on="0"/>
        <pt x="382" y="671" on="0"/>
        <pt x="287" y="427" on="0"/>
        <pt x="287" y="315" on="1"/>
        <pt x="287" y="158" on="0"/>
        <pt x="402" y="111" on="1"/>
        <pt x="444" y="94" on="0"/>
        <pt x="540" y="94" on="0"/>
        <pt x="620" y="105" on="0"/>
        <pt x="695" y="118" on="0"/>
        <pt x="758" y="129" on="0"/>
        <pt x="787" y="129" on="0"/>
        <pt x="787" y="110" on="0"/>
        <pt x="774" y="89" on="1"/>
        <pt x="632" y="-17" on="0"/>
        <pt x="265" y="-17" on="0"/>
        <pt x="78" y="159" on="0"/>
        <pt x="78" y="307" on="1"/>
        <pt x="78" y="367" on="0"/>
        <pt x="120" y="544" on="0"/>
        <pt x="235" y="713" on="0"/>
        <pt x="314" y="772" on="1"/>
        <pt x="475" y="892" on="0"/>
        <pt x="676" y="892" on="1"/>
        <pt x="782" y="892" on="0"/>
        <pt x="850" y="857" on="1"/>
        <pt x="841" y="913" on="0"/>
        <pt x="841" y="1068" on="0"/>
        <pt x="874" y="1137" on="1"/>
        <pt x="957" y="1315" on="0"/>
        <pt x="1196" y="1315" on="1"/>
        <pt x="1393" y="1315" on="0"/>
        <pt x="1393" y="1247" on="1"/>
        <pt x="1393" y="1229" on="0"/>
        <pt x="1390" y="1217" on="1"/>
        <pt x="1290" y="801" on="1"/>
        <pt x="1468" y="891" on="0"/>
        <pt x="1791" y="891" on="0"/>
        <pt x="1848" y="786" on="1"/>
        <pt x="1869" y="747" on="0"/>
        <pt x="1869" y="632" on="0"/>
        <pt x="1827" y="546" on="0"/>
        <pt x="1795" y="514" on="1"/>
        <pt x="1710" y="431" on="0"/>
        <pt x="1566" y="403" on="1"/>
        <pt x="1610" y="159" on="0"/>
        <pt x="1658" y="116" on="1"/>
        <pt x="1673" y="102" on="0"/>
        <pt x="1690" y="102" on="1"/>
        <pt x="1723" y="102" on="0"/>
        <pt x="1814" y="198" on="0"/>
        <pt x="1907" y="318" on="1"/>
        <pt x="1970" y="266" on="1"/>
        <pt x="1868" y="123" on="0"/>
        <pt x="1820" y="75" on="1"/>
        <pt x="1726" y="-19" on="0"/>
        <pt x="1583" y="-19" on="0"/>
        <pt x="1559" y="10" on="1"/>
        <pt x="1519" y="58" on="0"/>
        <pt x="1485" y="188" on="1"/>
        <pt x="1435" y="378" on="1"/>
        <pt x="1420" y="377" on="0"/>
        <pt x="1390" y="377" on="0"/>
        <pt x="1375" y="377" on="1"/>
        <pt x="1275" y="377" on="0"/>
        <pt x="1202" y="409" on="1"/>
        <pt x="1147" y="175" on="1"/>
        <pt x="1126" y="82" on="0"/>
        <pt x="1110" y="54" on="1"/>
        <pt x="1079" y="0" on="0"/>
      </contour>
      <contour>
        <pt x="1214" y="469" on="1"/>
        <pt x="1258" y="465" on="0"/>
        <pt x="1316" y="465" on="1"/>
        <pt x="1465" y="465" on="0"/>
        <pt x="1578" y="514" on="1"/>
        <pt x="1716" y="575" on="0"/>
        <pt x="1716" y="687" on="1"/>
        <pt x="1716" y="773" on="0"/>
        <pt x="1613" y="794" on="1"/>
        <pt x="1584" y="800" on="0"/>
        <pt x="1557" y="800" on="1"/>
        <pt x="1510" y="800" on="0"/>
        <pt x="1384" y="757" on="0"/>
        <pt x="1278" y="713" on="1"/>
      </contour>
    </TTGlyph>
    <TTGlyph name="colon" xMin="93" yMin="17" xMax="453" yMax="909">
      <contour>
        <pt x="93" y="150" on="1"/>
        <pt x="93" y="248" on="0"/>
        <pt x="174" y="276" on="1"/>
        <pt x="197" y="284" on="0"/>
        <pt x="222" y="284" on="1"/>
        <pt x="274" y="284" on="0"/>
        <pt x="350" y="215" on="0"/>
        <pt x="350" y="150" on="1"/>
        <pt x="350" y="53" on="0"/>
        <pt x="269" y="25" on="1"/>
        <pt x="246" y="17" on="0"/>
        <pt x="222" y="17" on="1"/>
        <pt x="168" y="17" on="0"/>
        <pt x="93" y="86" on="0"/>
      </contour>
      <contour>
        <pt x="196" y="775" on="1"/>
        <pt x="196" y="873" on="0"/>
        <pt x="277" y="901" on="1"/>
        <pt x="300" y="909" on="0"/>
        <pt x="324" y="909" on="1"/>
        <pt x="378" y="909" on="0"/>
        <pt x="453" y="840" on="0"/>
        <pt x="453" y="775" on="1"/>
        <pt x="453" y="678" on="0"/>
        <pt x="372" y="650" on="1"/>
        <pt x="349" y="642" on="0"/>
        <pt x="324" y="642" on="1"/>
        <pt x="272" y="642" on="0"/>
        <pt x="196" y="711" on="0"/>
      </contour>
    </TTGlyph>
    <TTGlyph name="comma" xMin="80" yMin="-212" xMax="424" yMax="297">
      <contour>
        <pt x="151" y="-212" on="1"/>
        <pt x="80" y="-116" on="1"/>
        <pt x="101" y="-101" on="1"/>
        <pt x="129" y="-81" on="0"/>
        <pt x="176" y="-52" on="0"/>
        <pt x="192" y="-37" on="1"/>
        <pt x="227" y="-6" on="0"/>
        <pt x="227" y="44" on="1"/>
        <pt x="227" y="62" on="0"/>
        <pt x="174" y="190" on="0"/>
        <pt x="174" y="208" on="1"/>
        <pt x="174" y="244" on="0"/>
        <pt x="235" y="297" on="0"/>
        <pt x="273" y="297" on="1"/>
        <pt x="343" y="297" on="0"/>
        <pt x="424" y="199" on="0"/>
        <pt x="424" y="138" on="1"/>
        <pt x="424" y="34" on="0"/>
        <pt x="277" y="-142" on="0"/>
        <pt x="181" y="-195" on="1"/>
      </contour>
    </TTGlyph>
    <TTGlyph name="commaaccent" xMin="153" yMin="-561" xMax="456" yMax="-108">
      <contour>
        <pt x="300" y="-521" on="0"/>
        <pt x="203" y="-561" on="0"/>
        <pt x="153" y="-561" on="0"/>
        <pt x="153" y="-555" on="1"/>
        <pt x="153" y="-536" on="0"/>
        <pt x="236" y="-509" on="0"/>
        <pt x="254" y="-494" on="1"/>
        <pt x="297" y="-460" on="0"/>
        <pt x="315" y="-370" on="1"/>
        <pt x="294" y="-370" on="1"/>
        <pt x="228" y="-370" on="0"/>
        <pt x="172" y="-314" on="0"/>
        <pt x="172" y="-276" on="1"/>
        <pt x="172" y="-206" on="0"/>
        <pt x="277" y="-108" on="0"/>
        <pt x="343" y="-108" on="1"/>
        <pt x="456" y="-108" on="0"/>
        <pt x="456" y="-231" on="1"/>
        <pt x="456" y="-382" on="0"/>
        <pt x="346" y="-480" on="1"/>
      </contour>
    </TTGlyph>
    <TTGlyph name="copyright" xMin="61" yMin="-18" xMax="1436" yMax="1301">
      <contour>
        <pt x="1056" y="371" on="1"/>
        <pt x="909" y="203" on="0"/>
        <pt x="646" y="203" on="1"/>
        <pt x="572" y="203" on="0"/>
        <pt x="502" y="228" on="1"/>
        <pt x="302" y="299" on="0"/>
        <pt x="302" y="720" on="0"/>
        <pt x="456" y="902" on="1"/>
        <pt x="619" y="1092" on="0"/>
        <pt x="832" y="1092" on="1"/>
        <pt x="1004" y="1092" on="0"/>
        <pt x="1079" y="983" on="1"/>
        <pt x="1087" y="1029" on="1"/>
        <pt x="1095" y="1076" on="0"/>
        <pt x="1100" y="1076" on="1"/>
        <pt x="1167" y="1076" on="1"/>
        <pt x="1145" y="817" on="1"/>
        <pt x="1086" y="816" on="1"/>
        <pt x="1042" y="1024" on="0"/>
        <pt x="853" y="1024" on="1"/>
        <pt x="763" y="1024" on="0"/>
        <pt x="674" y="944" on="1"/>
        <pt x="548" y="830" on="0"/>
        <pt x="504" y="647" on="1"/>
        <pt x="490" y="591" on="0"/>
        <pt x="490" y="540" on="1"/>
        <pt x="490" y="434" on="0"/>
        <pt x="602" y="306" on="0"/>
        <pt x="839" y="306" on="0"/>
        <pt x="952" y="370" on="1"/>
        <pt x="988" y="390" on="0"/>
        <pt x="1026" y="415" on="1"/>
      </contour>
      <contour>
        <pt x="363" y="140" on="0"/>
        <pt x="534" y="73" on="0"/>
        <pt x="726" y="73" on="0"/>
        <pt x="892" y="120" on="0"/>
        <pt x="967" y="164" on="1"/>
        <pt x="1124" y="256" on="0"/>
        <pt x="1319" y="573" on="0"/>
        <pt x="1319" y="963" on="0"/>
        <pt x="1080" y="1219" on="0"/>
        <pt x="875" y="1219" on="1"/>
        <pt x="594" y="1219" on="0"/>
        <pt x="384" y="1004" on="1"/>
        <pt x="254" y="872" on="0"/>
        <pt x="204" y="697" on="1"/>
        <pt x="179" y="610" on="0"/>
        <pt x="179" y="422" on="0"/>
        <pt x="243" y="259" on="0"/>
      </contour>
      <contour>
        <pt x="1197" y="190" on="0"/>
        <pt x="814" y="-18" on="0"/>
        <pt x="379" y="-18" on="0"/>
        <pt x="61" y="277" on="0"/>
        <pt x="61" y="719" on="0"/>
        <pt x="305" y="1086" on="0"/>
        <pt x="690" y="1301" on="0"/>
        <pt x="1119" y="1301" on="0"/>
        <pt x="1436" y="1010" on="0"/>
        <pt x="1436" y="557" on="0"/>
      </contour>
    </TTGlyph>
    <TTGlyph name="currency" xMin="74" yMin="254" xMax="1089" yMax="1174">
      <contour>
        <pt x="420" y="1019" on="1"/>
        <pt x="550" y="1092" on="0"/>
        <pt x="770" y="1092" on="0"/>
        <pt x="875" y="1022" on="1"/>
        <pt x="906" y="1050" on="0"/>
        <pt x="1000" y="1148" on="0"/>
        <pt x="1043" y="1174" on="1"/>
        <pt x="1059" y="1160" on="0"/>
        <pt x="1089" y="1131" on="0"/>
        <pt x="1089" y="1085" on="0"/>
        <pt x="1054" y="1045" on="0"/>
        <pt x="1005" y="1012" on="0"/>
        <pt x="950" y="981" on="0"/>
        <pt x="930" y="963" on="1"/>
        <pt x="978" y="880" on="0"/>
        <pt x="978" y="795" on="1"/>
        <pt x="978" y="619" on="0"/>
        <pt x="831" y="472" on="1"/>
        <pt x="843" y="453" on="0"/>
        <pt x="878" y="416" on="0"/>
        <pt x="933" y="352" on="0"/>
        <pt x="933" y="330" on="1"/>
        <pt x="933" y="298" on="0"/>
        <pt x="878" y="259" on="0"/>
        <pt x="830" y="259" on="0"/>
        <pt x="801" y="293" on="0"/>
        <pt x="778" y="340" on="0"/>
        <pt x="758" y="391" on="0"/>
        <pt x="748" y="408" on="1"/>
        <pt x="613" y="336" on="0"/>
        <pt x="392" y="336" on="0"/>
        <pt x="289" y="405" on="1"/>
        <pt x="268" y="384" on="0"/>
        <pt x="249" y="358" on="1"/>
        <pt x="173" y="254" on="0"/>
        <pt x="120" y="254" on="1"/>
        <pt x="89" y="254" on="0"/>
        <pt x="77" y="294" on="1"/>
        <pt x="74" y="305" on="0"/>
        <pt x="74" y="341" on="0"/>
        <pt x="109" y="381" on="0"/>
        <pt x="159" y="415" on="0"/>
        <pt x="214" y="445" on="0"/>
        <pt x="235" y="463" on="1"/>
        <pt x="186" y="544" on="0"/>
        <pt x="186" y="630" on="1"/>
        <pt x="186" y="806" on="0"/>
        <pt x="336" y="956" on="1"/>
        <pt x="324" y="975" on="0"/>
        <pt x="289" y="1012" on="0"/>
        <pt x="233" y="1075" on="0"/>
        <pt x="233" y="1097" on="1"/>
        <pt x="233" y="1129" on="0"/>
        <pt x="289" y="1170" on="0"/>
        <pt x="335" y="1170" on="0"/>
        <pt x="365" y="1136" on="0"/>
        <pt x="389" y="1088" on="0"/>
        <pt x="409" y="1037" on="0"/>
      </contour>
      <contour>
        <pt x="506" y="1000" on="0"/>
        <pt x="295" y="797" on="0"/>
        <pt x="295" y="654" on="1"/>
        <pt x="295" y="555" on="0"/>
        <pt x="419" y="428" on="0"/>
        <pt x="657" y="428" on="0"/>
        <pt x="762" y="531" on="1"/>
        <pt x="866" y="634" on="0"/>
        <pt x="866" y="771" on="1"/>
        <pt x="866" y="870" on="0"/>
        <pt x="743" y="1000" on="0"/>
      </contour>
    </TTGlyph>
    <TTGlyph name="d" xMin="71" yMin="-21" xMax="1172" yMax="1332">
      <contour>
        <pt x="736" y="1214" on="1"/>
        <pt x="710" y="1214" on="0"/>
        <pt x="710" y="1224" on="1"/>
        <pt x="710" y="1240" on="0"/>
        <pt x="730" y="1295" on="0"/>
        <pt x="736" y="1295" on="1"/>
        <pt x="1033" y="1331" on="1"/>
        <pt x="1038" y="1332" on="0"/>
        <pt x="1042" y="1332" on="1"/>
        <pt x="1052" y="1332" on="1"/>
        <pt x="1074" y="1332" on="0"/>
        <pt x="1086" y="1320" on="0"/>
        <pt x="1086" y="1273" on="0"/>
        <pt x="1071" y="1217" on="1"/>
        <pt x="826" y="296" on="1"/>
        <pt x="824" y="290" on="0"/>
        <pt x="818" y="264" on="0"/>
        <pt x="805" y="212" on="0"/>
        <pt x="805" y="187" on="1"/>
        <pt x="805" y="143" on="0"/>
        <pt x="841" y="91" on="0"/>
        <pt x="904" y="91" on="0"/>
        <pt x="956" y="127" on="0"/>
        <pt x="1012" y="191" on="0"/>
        <pt x="1074" y="280" on="0"/>
        <pt x="1112" y="333" on="1"/>
        <pt x="1172" y="286" on="1"/>
        <pt x="1076" y="140" on="0"/>
        <pt x="1026" y="89" on="1"/>
        <pt x="920" y="-21" on="0"/>
        <pt x="815" y="-21" on="1"/>
        <pt x="688" y="-21" on="0"/>
        <pt x="688" y="150" on="1"/>
        <pt x="688" y="178" on="0"/>
        <pt x="696" y="234" on="0"/>
        <pt x="699" y="260" on="1"/>
        <pt x="630" y="129" on="0"/>
        <pt x="573" y="78" on="1"/>
        <pt x="465" y="-19" on="0"/>
        <pt x="211" y="-19" on="0"/>
        <pt x="136" y="108" on="1"/>
        <pt x="71" y="216" on="0"/>
        <pt x="71" y="336" on="1"/>
        <pt x="71" y="565" on="0"/>
        <pt x="344" y="891" on="0"/>
        <pt x="541" y="891" on="1"/>
        <pt x="615" y="891" on="0"/>
        <pt x="755" y="782" on="0"/>
        <pt x="770" y="689" on="1"/>
        <pt x="770" y="695" on="0"/>
        <pt x="794" y="786" on="0"/>
        <pt x="831" y="927" on="0"/>
        <pt x="879" y="1102" on="0"/>
        <pt x="903" y="1192" on="1"/>
        <pt x="909" y="1214" on="1"/>
      </contour>
      <contour>
        <pt x="557" y="807" on="1"/>
        <pt x="428" y="807" on="0"/>
        <pt x="252" y="507" on="0"/>
        <pt x="252" y="168" on="0"/>
        <pt x="332" y="108" on="1"/>
        <pt x="361" y="85" on="0"/>
        <pt x="447" y="85" on="0"/>
        <pt x="527" y="129" on="0"/>
        <pt x="563" y="166" on="1"/>
        <pt x="631" y="234" on="0"/>
        <pt x="729" y="458" on="0"/>
        <pt x="729" y="614" on="0"/>
        <pt x="704" y="703" on="0"/>
        <pt x="686" y="732" on="1"/>
        <pt x="636" y="807" on="0"/>
      </contour>
    </TTGlyph>
    <TTGlyph name="dagger" xMin="43" yMin="-296" xMax="502" yMax="1450">
      <contour>
        <pt x="64" y="-275" on="1"/>
        <pt x="64" y="2" on="0"/>
        <pt x="140" y="360" on="1"/>
        <pt x="43" y="360" on="1"/>
        <pt x="50" y="395" on="1"/>
        <pt x="66" y="475" on="0"/>
        <pt x="78" y="475" on="1"/>
        <pt x="167" y="475" on="1"/>
        <pt x="206" y="642" on="0"/>
        <pt x="383" y="1267" on="0"/>
        <pt x="420" y="1423" on="1"/>
        <pt x="425" y="1444" on="0"/>
        <pt x="480" y="1450" on="1"/>
        <pt x="480" y="1322" on="0"/>
        <pt x="464" y="1248" on="1"/>
        <pt x="301" y="475" on="1"/>
        <pt x="502" y="475" on="1"/>
        <pt x="479" y="360" on="0"/>
        <pt x="465" y="360" on="1"/>
        <pt x="277" y="360" on="1"/>
        <pt x="183" y="-84" on="1"/>
        <pt x="178" y="-111" on="0"/>
        <pt x="177" y="-148" on="1"/>
        <pt x="173" y="-296" on="0"/>
        <pt x="112" y="-296" on="1"/>
        <pt x="64" y="-296" on="0"/>
      </contour>
    </TTGlyph>
    <TTGlyph name="daggerdbl" xMin="26" yMin="-296" xMax="624" yMax="1450">
      <contour>
        <pt x="547" y="652" on="1"/>
        <pt x="497" y="654" on="1"/>
        <pt x="392" y="654" on="1"/>
        <pt x="353" y="470" on="1"/>
        <pt x="468" y="470" on="1"/>
        <pt x="575" y="470" on="0"/>
        <pt x="575" y="446" on="1"/>
        <pt x="575" y="410" on="0"/>
        <pt x="497" y="410" on="1"/>
        <pt x="446" y="412" on="1"/>
        <pt x="341" y="412" on="1"/>
        <pt x="236" y="-84" on="1"/>
        <pt x="231" y="-111" on="0"/>
        <pt x="230" y="-148" on="1"/>
        <pt x="226" y="-296" on="0"/>
        <pt x="165" y="-296" on="1"/>
        <pt x="117" y="-296" on="0"/>
        <pt x="117" y="-275" on="1"/>
        <pt x="117" y="22" on="0"/>
        <pt x="205" y="412" on="1"/>
        <pt x="134" y="412" on="1"/>
        <pt x="89" y="411" on="1"/>
        <pt x="26" y="411" on="0"/>
        <pt x="26" y="432" on="1"/>
        <pt x="26" y="468" on="0"/>
        <pt x="113" y="470" on="1"/>
        <pt x="218" y="470" on="1"/>
        <pt x="229" y="516" on="0"/>
        <pt x="253" y="608" on="0"/>
        <pt x="265" y="654" on="1"/>
        <pt x="185" y="654" on="1"/>
        <pt x="140" y="653" on="1"/>
        <pt x="75" y="653" on="0"/>
        <pt x="75" y="674" on="1"/>
        <pt x="75" y="710" on="0"/>
        <pt x="162" y="712" on="1"/>
        <pt x="281" y="712" on="1"/>
        <pt x="330" y="894" on="0"/>
        <pt x="431" y="1243" on="0"/>
        <pt x="473" y="1423" on="1"/>
        <pt x="478" y="1444" on="0"/>
        <pt x="524" y="1449" on="0"/>
        <pt x="533" y="1450" on="1"/>
        <pt x="533" y="1322" on="0"/>
        <pt x="517" y="1248" on="1"/>
        <pt x="404" y="712" on="1"/>
        <pt x="517" y="712" on="1"/>
        <pt x="624" y="712" on="0"/>
        <pt x="624" y="688" on="1"/>
        <pt x="624" y="652" on="0"/>
      </contour>
    </TTGlyph>
    <TTGlyph name="dcaron" xMin="71" yMin="-21" xMax="1556" yMax="1332">
      <component glyphName="d" x="0" y="0" flags="0x1004"/>
      <component glyphName="quoteright" x="1140" y="0" flags="0x1004"/>
    </TTGlyph>
    <TTGlyph name="dcroat" xMin="71" yMin="-21" xMax="1172" yMax="1332">
      <component glyphName="d" x="0" y="0" flags="0x1204"/>
      <component glyphName="hyphen" x="541" y="617" flags="0x1004"/>
    </TTGlyph>
    <TTGlyph name="degree" xMin="147" yMin="821" xMax="610" yMax="1271">
      <contour>
        <pt x="589" y="1042" on="1"/>
        <pt x="588" y="1041" on="1"/>
        <pt x="592" y="1056" on="0"/>
        <pt x="592" y="1086" on="1"/>
        <pt x="592" y="1152" on="0"/>
        <pt x="497" y="1250" on="0"/>
        <pt x="435" y="1250" on="1"/>
        <pt x="324" y="1250" on="0"/>
        <pt x="246" y="1176" on="1"/>
        <pt x="168" y="1101" on="0"/>
        <pt x="168" y="934" on="0"/>
        <pt x="267" y="838" on="0"/>
        <pt x="326" y="838" on="1"/>
        <pt x="426" y="838" on="0"/>
        <pt x="571" y="958" on="0"/>
      </contour>
      <contour>
        <pt x="610" y="1102" on="1"/>
        <pt x="610" y="1069" on="0"/>
        <pt x="605" y="1049" on="1"/>
        <pt x="606" y="1049" on="1"/>
        <pt x="586" y="955" on="0"/>
        <pt x="423" y="821" on="0"/>
        <pt x="331" y="821" on="1"/>
        <pt x="205" y="821" on="0"/>
        <pt x="160" y="926" on="1"/>
        <pt x="147" y="958" on="0"/>
        <pt x="147" y="1004" on="1"/>
        <pt x="147" y="1102" on="0"/>
        <pt x="322" y="1271" on="0"/>
        <pt x="508" y="1271" on="0"/>
        <pt x="610" y="1173" on="0"/>
      </contour>
    </TTGlyph>
    <TTGlyph name="dieresis" xMin="220" yMin="1115" xMax="849" yMax="1299">
      <contour>
        <pt x="713" y="1280" on="0"/>
        <pt x="755" y="1299" on="0"/>
        <pt x="810" y="1299" on="0"/>
        <pt x="849" y="1259" on="0"/>
        <pt x="849" y="1232" on="1"/>
        <pt x="849" y="1185" on="0"/>
        <pt x="775" y="1115" on="0"/>
        <pt x="699" y="1115" on="0"/>
        <pt x="660" y="1153" on="0"/>
        <pt x="660" y="1205" on="0"/>
        <pt x="680" y="1247" on="0"/>
      </contour>
      <contour>
        <pt x="273" y="1280" on="0"/>
        <pt x="315" y="1299" on="0"/>
        <pt x="370" y="1299" on="0"/>
        <pt x="409" y="1259" on="0"/>
        <pt x="409" y="1232" on="1"/>
        <pt x="409" y="1185" on="0"/>
        <pt x="335" y="1115" on="0"/>
        <pt x="258" y="1115" on="0"/>
        <pt x="220" y="1153" on="0"/>
        <pt x="220" y="1205" on="0"/>
        <pt x="240" y="1247" on="0"/>
      </contour>
    </TTGlyph>
    <TTGlyph name="divide" xMin="9" yMin="142" xMax="1004" yMax="1109">
      <contour>
        <pt x="960" y="568" on="1"/>
        <pt x="121" y="565" on="1"/>
        <pt x="121" y="564" on="1"/>
        <pt x="68" y="563" on="1"/>
        <pt x="9" y="563" on="0"/>
        <pt x="9" y="585" on="1"/>
        <pt x="9" y="646" on="0"/>
        <pt x="36" y="673" on="1"/>
        <pt x="45" y="682" on="0"/>
        <pt x="57" y="682" on="1"/>
        <pt x="264" y="682" on="1"/>
        <pt x="678" y="683" on="1"/>
        <pt x="893" y="683" on="1"/>
        <pt x="948" y="683" on="0"/>
        <pt x="1004" y="659" on="1"/>
        <pt x="1000" y="644" on="0"/>
        <pt x="994" y="612" on="0"/>
        <pt x="979" y="568" on="0"/>
      </contour>
      <contour>
        <pt x="453" y="345" on="1"/>
        <pt x="454" y="345" on="1"/>
        <pt x="489" y="345" on="0"/>
        <pt x="531" y="298" on="0"/>
        <pt x="531" y="270" on="1"/>
        <pt x="531" y="219" on="0"/>
        <pt x="454" y="142" on="0"/>
        <pt x="372" y="142" on="0"/>
        <pt x="332" y="186" on="0"/>
        <pt x="332" y="214" on="1"/>
        <pt x="332" y="266" on="0"/>
        <pt x="408" y="345" on="0"/>
      </contour>
      <contour>
        <pt x="604" y="1109" on="1"/>
        <pt x="605" y="1109" on="1"/>
        <pt x="640" y="1109" on="0"/>
        <pt x="681" y="1062" on="0"/>
        <pt x="681" y="1034" on="1"/>
        <pt x="681" y="985" on="0"/>
        <pt x="602" y="905" on="0"/>
        <pt x="523" y="905" on="0"/>
        <pt x="481" y="949" on="0"/>
        <pt x="481" y="976" on="1"/>
        <pt x="481" y="1028" on="0"/>
        <pt x="558" y="1109" on="0"/>
      </contour>
    </TTGlyph>
    <TTGlyph name="dollar" xMin="7" yMin="-186" xMax="917" yMax="1393">
      <contour>
        <pt x="413" y="826" on="1"/>
        <pt x="510" y="754" on="1"/>
        <pt x="587" y="1154" on="1"/>
        <pt x="566" y="1152" on="1"/>
        <pt x="475" y="1143" on="0"/>
        <pt x="333" y="1042" on="0"/>
        <pt x="333" y="885" on="0"/>
      </contour>
      <contour>
        <pt x="502" y="503" on="1"/>
        <pt x="497" y="479" on="1"/>
        <pt x="477" y="382" on="0"/>
        <pt x="438" y="165" on="0"/>
        <pt x="412" y="34" on="1"/>
        <pt x="431" y="34" on="1"/>
        <pt x="600" y="34" on="0"/>
        <pt x="666" y="152" on="1"/>
        <pt x="689" y="195" on="0"/>
        <pt x="689" y="243" on="1"/>
        <pt x="689" y="323" on="0"/>
        <pt x="610" y="429" on="0"/>
        <pt x="521" y="490" on="1"/>
      </contour>
      <contour>
        <pt x="627" y="1354" on="1"/>
        <pt x="636" y="1393" on="0"/>
        <pt x="677" y="1393" on="0"/>
        <pt x="677" y="1360" on="1"/>
        <pt x="677" y="1349" on="0"/>
        <pt x="676" y="1347" on="1"/>
        <pt x="647" y="1201" on="1"/>
        <pt x="803" y="1193" on="0"/>
        <pt x="917" y="1144" on="1"/>
        <pt x="895" y="911" on="1"/>
        <pt x="890" y="910" on="0"/>
        <pt x="888" y="910" on="1"/>
        <pt x="888" y="910" on="0"/>
        <pt x="883" y="910" on="1"/>
        <pt x="880" y="910" on="0"/>
        <pt x="862" y="952" on="0"/>
        <pt x="862" y="988" on="1"/>
        <pt x="862" y="1063" on="0"/>
        <pt x="739" y="1141" on="0"/>
        <pt x="638" y="1155" on="1"/>
        <pt x="550" y="735" on="1"/>
        <pt x="661" y="654" on="1"/>
        <pt x="826" y="534" on="0"/>
        <pt x="851" y="433" on="1"/>
        <pt x="860" y="397" on="0"/>
        <pt x="860" y="355" on="1"/>
        <pt x="860" y="178" on="0"/>
        <pt x="588" y="0" on="0"/>
        <pt x="405" y="0" on="1"/>
        <pt x="375" y="-139" on="1"/>
        <pt x="365" y="-186" on="0"/>
        <pt x="318" y="-186" on="0"/>
        <pt x="318" y="-142" on="1"/>
        <pt x="318" y="-137" on="0"/>
        <pt x="320" y="-131" on="1"/>
        <pt x="348" y="5" on="1"/>
        <pt x="141" y="15" on="0"/>
        <pt x="7" y="103" on="1"/>
        <pt x="82" y="368" on="1"/>
        <pt x="84" y="369" on="0"/>
        <pt x="90" y="369" on="1"/>
        <pt x="100" y="359" on="0"/>
        <pt x="100" y="322" on="1"/>
        <pt x="98" y="284" on="1"/>
        <pt x="98" y="189" on="0"/>
        <pt x="248" y="63" on="0"/>
        <pt x="361" y="41" on="1"/>
        <pt x="455" y="526" on="1"/>
        <pt x="333" y="611" on="1"/>
        <pt x="188" y="712" on="0"/>
        <pt x="188" y="951" on="0"/>
        <pt x="323" y="1115" on="0"/>
        <pt x="515" y="1200" on="0"/>
        <pt x="596" y="1200" on="1"/>
      </contour>
    </TTGlyph>
    <TTGlyph name="dotaccent" xMin="171" yMin="997" xMax="361" yMax="1181">
      <contour>
        <pt x="225" y="1162" on="0"/>
        <pt x="267" y="1181" on="0"/>
        <pt x="322" y="1181" on="0"/>
        <pt x="361" y="1141" on="0"/>
        <pt x="361" y="1114" on="1"/>
        <pt x="361" y="1066" on="0"/>
        <pt x="285" y="997" on="0"/>
        <pt x="210" y="997" on="0"/>
        <pt x="171" y="1035" on="0"/>
        <pt x="171" y="1088" on="0"/>
        <pt x="192" y="1130" on="0"/>
      </contour>
    </TTGlyph>
    <TTGlyph name="dotaccentcmb" xMin="140" yMin="699" xMax="330" yMax="883">
      <contour>
        <pt x="194" y="864" on="0"/>
        <pt x="236" y="883" on="0"/>
        <pt x="291" y="883" on="0"/>
        <pt x="330" y="843" on="0"/>
        <pt x="330" y="816" on="1"/>
        <pt x="330" y="768" on="0"/>
        <pt x="254" y="699" on="0"/>
        <pt x="179" y="699" on="0"/>
        <pt x="140" y="737" on="0"/>
        <pt x="140" y="790" on="0"/>
        <pt x="161" y="832" on="0"/>
      </contour>
    </TTGlyph>
    <TTGlyph name="dotlessi" xMin="18" yMin="-19" xMax="634" yMax="893">
      <contour>
        <pt x="512" y="209" on="1"/>
        <pt x="569" y="295" on="1"/>
        <pt x="634" y="250" on="1"/>
        <pt x="573" y="161" on="1"/>
        <pt x="451" y="-19" on="0"/>
        <pt x="311" y="-19" on="1"/>
        <pt x="240" y="-19" on="0"/>
        <pt x="153" y="87" on="0"/>
        <pt x="153" y="243" on="0"/>
        <pt x="200" y="370" on="1"/>
        <pt x="301" y="654" on="1"/>
        <pt x="307" y="674" on="0"/>
        <pt x="321" y="716" on="0"/>
        <pt x="321" y="738" on="1"/>
        <pt x="321" y="806" on="0"/>
        <pt x="265" y="806" on="1"/>
        <pt x="238" y="806" on="0"/>
        <pt x="155" y="721" on="0"/>
        <pt x="70" y="605" on="1"/>
        <pt x="18" y="644" on="1"/>
        <pt x="108" y="768" on="0"/>
        <pt x="155" y="811" on="1"/>
        <pt x="243" y="893" on="0"/>
        <pt x="322" y="893" on="1"/>
        <pt x="468" y="893" on="0"/>
        <pt x="468" y="723" on="1"/>
        <pt x="468" y="649" on="0"/>
        <pt x="444" y="577" on="1"/>
        <pt x="339" y="254" on="1"/>
        <pt x="323" y="217" on="0"/>
        <pt x="323" y="91" on="0"/>
        <pt x="435" y="91" on="0"/>
      </contour>
    </TTGlyph>
    <TTGlyph name="dotlessj" xMin="-168" yMin="-340" xMax="576" yMax="892">
      <contour>
        <pt x="415" y="714" on="1"/>
        <pt x="415" y="787" on="0"/>
        <pt x="303" y="787" on="0"/>
        <pt x="248" y="694" on="1"/>
        <pt x="195" y="605" on="1"/>
        <pt x="148" y="643" on="1"/>
        <pt x="242" y="784" on="0"/>
        <pt x="274" y="818" on="1"/>
        <pt x="344" y="892" on="0"/>
        <pt x="420" y="892" on="1"/>
        <pt x="420" y="891" on="1"/>
        <pt x="576" y="891" on="0"/>
        <pt x="576" y="728" on="1"/>
        <pt x="576" y="668" on="0"/>
        <pt x="553" y="576" on="1"/>
        <pt x="472" y="257" on="1"/>
        <pt x="425" y="68" on="0"/>
        <pt x="398" y="-8" on="1"/>
        <pt x="341" y="-169" on="0"/>
        <pt x="177" y="-340" on="0"/>
        <pt x="-84" y="-340" on="0"/>
        <pt x="-146" y="-270" on="1"/>
        <pt x="-168" y="-245" on="0"/>
        <pt x="-168" y="-209" on="1"/>
        <pt x="-168" y="-149" on="0"/>
        <pt x="-105" y="-149" on="1"/>
        <pt x="-72" y="-149" on="0"/>
        <pt x="-21" y="-180" on="0"/>
        <pt x="4" y="-198" on="1"/>
        <pt x="69" y="-248" on="0"/>
        <pt x="110" y="-248" on="1"/>
        <pt x="174" y="-248" on="0"/>
        <pt x="208" y="-169" on="1"/>
        <pt x="222" y="-133" on="0"/>
        <pt x="276" y="156" on="0"/>
        <pt x="325" y="343" on="1"/>
        <pt x="396" y="611" on="1"/>
        <pt x="415" y="684" on="0"/>
      </contour>
    </TTGlyph>
    <TTGlyph name="e" xMin="71" yMin="-19" xMax="851" yMax="891">
      <contour>
        <pt x="249" y="422" on="1"/>
        <pt x="271" y="420" on="0"/>
        <pt x="317" y="420" on="0"/>
        <pt x="399" y="433" on="0"/>
        <pt x="443" y="446" on="1"/>
        <pt x="545" y="476" on="0"/>
        <pt x="686" y="589" on="0"/>
        <pt x="686" y="731" on="0"/>
        <pt x="602" y="818" on="0"/>
        <pt x="474" y="818" on="0"/>
        <pt x="367" y="739" on="0"/>
        <pt x="330" y="680" on="1"/>
        <pt x="259" y="565" on="0"/>
      </contour>
      <contour>
        <pt x="851" y="237" on="1"/>
        <pt x="665" y="-19" on="0"/>
        <pt x="450" y="-19" on="1"/>
        <pt x="293" y="-19" on="0"/>
        <pt x="71" y="225" on="0"/>
        <pt x="71" y="601" on="0"/>
        <pt x="354" y="891" on="0"/>
        <pt x="544" y="891" on="1"/>
        <pt x="652" y="891" on="0"/>
        <pt x="826" y="760" on="0"/>
        <pt x="826" y="528" on="0"/>
        <pt x="586" y="379" on="0"/>
        <pt x="348" y="356" on="1"/>
        <pt x="289" y="351" on="0"/>
        <pt x="248" y="348" on="1"/>
        <pt x="247" y="310" on="1"/>
        <pt x="247" y="223" on="0"/>
        <pt x="373" y="79" on="0"/>
        <pt x="465" y="79" on="1"/>
        <pt x="603" y="79" on="0"/>
        <pt x="719" y="209" on="1"/>
        <pt x="751" y="245" on="0"/>
        <pt x="781" y="282" on="1"/>
      </contour>
    </TTGlyph>
    <TTGlyph name="eacute" xMin="71" yMin="-19" xMax="876" yMax="1436">
      <component glyphName="e" x="0" y="0" flags="0x1204"/>
      <component glyphName="acute" x="370" y="0" flags="0x1004"/>
    </TTGlyph>
    <TTGlyph name="ecaron" xMin="71" yMin="-19" xMax="904" yMax="1465">
      <component glyphName="e" x="0" y="0" flags="0x1204"/>
      <component glyphName="caron" x="125" y="0" flags="0x1004"/>
    </TTGlyph>
    <TTGlyph name="ecircumflex" xMin="71" yMin="-19" xMax="879" yMax="1422">
      <component glyphName="e" x="0" y="0" flags="0x1204"/>
      <component glyphName="circumflex" x="110" y="0" flags="0x1004"/>
    </TTGlyph>
    <TTGlyph name="edieresis" xMin="71" yMin="-19" xMax="994" yMax="1300">
      <component glyphName="e" x="0" y="0" flags="0x1204"/>
      <component glyphName="dieresis" x="145" y="1" flags="0x1004"/>
    </TTGlyph>
    <TTGlyph name="egrave" xMin="71" yMin="-19" xMax="851" yMax="1437">
      <component glyphName="e" x="0" y="0" flags="0x1204"/>
      <component glyphName="grave" x="191" y="1" flags="0x1004"/>
    </TTGlyph>
    <TTGlyph name="eight" xMin="42" yMin="-211" xMax="858" yMax="1009">
      <contour>
        <pt x="728" y="858" on="0"/>
        <pt x="650" y="933" on="0"/>
        <pt x="583" y="933" on="1"/>
        <pt x="464" y="933" on="0"/>
        <pt x="354" y="828" on="0"/>
        <pt x="354" y="636" on="0"/>
        <pt x="440" y="538" on="1"/>
        <pt x="466" y="509" on="0"/>
        <pt x="497" y="487" on="1"/>
        <pt x="556" y="517" on="0"/>
        <pt x="650" y="607" on="0"/>
        <pt x="674" y="641" on="1"/>
        <pt x="728" y="720" on="0"/>
      </contour>
      <contour>
        <pt x="445" y="355" on="1"/>
        <pt x="187" y="215" on="0"/>
        <pt x="187" y="8" on="1"/>
        <pt x="187" y="-67" on="0"/>
        <pt x="282" y="-145" on="0"/>
        <pt x="348" y="-145" on="1"/>
        <pt x="461" y="-145" on="0"/>
        <pt x="534" y="-74" on="1"/>
        <pt x="605" y="-2" on="0"/>
        <pt x="605" y="157" on="0"/>
        <pt x="530" y="282" on="0"/>
      </contour>
      <contour>
        <pt x="858" y="776" on="1"/>
        <pt x="858" y="625" on="0"/>
        <pt x="666" y="492" on="1"/>
        <pt x="606" y="450" on="0"/>
        <pt x="563" y="433" on="1"/>
        <pt x="572" y="423" on="0"/>
        <pt x="611" y="393" on="0"/>
        <pt x="635" y="372" on="1"/>
        <pt x="778" y="250" on="0"/>
        <pt x="778" y="126" on="1"/>
        <pt x="778" y="-89" on="0"/>
        <pt x="548" y="-187" on="1"/>
        <pt x="389" y="-255" on="0"/>
        <pt x="228" y="-211" on="1"/>
        <pt x="42" y="-159" on="0"/>
        <pt x="42" y="3" on="1"/>
        <pt x="42" y="104" on="0"/>
        <pt x="118" y="208" on="1"/>
        <pt x="207" y="329" on="0"/>
        <pt x="375" y="421" on="1"/>
        <pt x="277" y="491" on="0"/>
        <pt x="223" y="613" on="1"/>
        <pt x="201" y="663" on="0"/>
        <pt x="201" y="722" on="1"/>
        <pt x="201" y="841" on="0"/>
        <pt x="423" y="1009" on="0"/>
        <pt x="721" y="1009" on="0"/>
        <pt x="858" y="897" on="0"/>
      </contour>
    </TTGlyph>
    <TTGlyph name="ellipsis" xMin="112" yMin="-3" xMax="1407" yMax="264">
      <contour>
        <pt x="1150" y="130" on="1"/>
        <pt x="1150" y="228" on="0"/>
        <pt x="1231" y="256" on="1"/>
        <pt x="1254" y="264" on="0"/>
        <pt x="1278" y="264" on="1"/>
        <pt x="1331" y="264" on="0"/>
        <pt x="1407" y="195" on="0"/>
        <pt x="1407" y="130" on="1"/>
        <pt x="1407" y="33" on="0"/>
        <pt x="1326" y="5" on="1"/>
        <pt x="1303" y="-3" on="0"/>
        <pt x="1278" y="-3" on="1"/>
        <pt x="1225" y="-3" on="0"/>
        <pt x="1150" y="66" on="0"/>
      </contour>
      <contour>
        <pt x="631" y="130" on="1"/>
        <pt x="631" y="228" on="0"/>
        <pt x="712" y="256" on="1"/>
        <pt x="735" y="264" on="0"/>
        <pt x="760" y="264" on="1"/>
        <pt x="812" y="264" on="0"/>
        <pt x="888" y="195" on="0"/>
        <pt x="888" y="130" on="1"/>
        <pt x="888" y="33" on="0"/>
        <pt x="807" y="5" on="1"/>
        <pt x="784" y="-3" on="0"/>
        <pt x="760" y="-3" on="1"/>
        <pt x="706" y="-3" on="0"/>
        <pt x="631" y="66" on="0"/>
      </contour>
      <contour>
        <pt x="112" y="130" on="1"/>
        <pt x="112" y="228" on="0"/>
        <pt x="193" y="256" on="1"/>
        <pt x="216" y="264" on="0"/>
        <pt x="240" y="264" on="1"/>
        <pt x="293" y="264" on="0"/>
        <pt x="369" y="195" on="0"/>
        <pt x="369" y="130" on="1"/>
        <pt x="369" y="33" on="0"/>
        <pt x="288" y="5" on="1"/>
        <pt x="265" y="-3" on="0"/>
        <pt x="240" y="-3" on="1"/>
        <pt x="187" y="-3" on="0"/>
        <pt x="112" y="66" on="0"/>
      </contour>
    </TTGlyph>
    <TTGlyph name="emacron" xMin="71" yMin="-19" xMax="851" yMax="1111">
      <component glyphName="e" x="0" y="0" flags="0x1204"/>
      <component glyphName="macron" x="41" y="-18" flags="0x1004"/>
    </TTGlyph>
    <TTGlyph name="emdash" xMin="130" yMin="452" xMax="1656" yMax="508">
      <contour>
        <pt x="1656" y="470" on="1"/>
        <pt x="1543" y="452" on="0"/>
        <pt x="1315" y="452" on="1"/>
        <pt x="159" y="452" on="1"/>
        <pt x="132" y="452" on="0"/>
        <pt x="130" y="488" on="1"/>
        <pt x="256" y="508" on="0"/>
        <pt x="472" y="508" on="1"/>
        <pt x="1628" y="508" on="1"/>
        <pt x="1656" y="496" on="0"/>
      </contour>
    </TTGlyph>
    <TTGlyph name="endash" xMin="132" yMin="452" xMax="937" yMax="507">
      <contour>
        <pt x="937" y="470" on="1"/>
        <pt x="937" y="452" on="0"/>
        <pt x="772" y="452" on="1"/>
        <pt x="160" y="452" on="1"/>
        <pt x="148" y="452" on="0"/>
        <pt x="132" y="474" on="0"/>
        <pt x="132" y="490" on="1"/>
        <pt x="210" y="507" on="0"/>
        <pt x="347" y="507" on="1"/>
        <pt x="906" y="507" on="1"/>
        <pt x="937" y="493" on="0"/>
      </contour>
    </TTGlyph>
    <TTGlyph name="eogonek" xMin="71" yMin="-355" xMax="851" yMax="891">
      <component glyphName="e" x="0" y="0" flags="0x1204"/>
      <component glyphName="ogonek" x="190" y="0" flags="0x1004"/>
    </TTGlyph>
    <TTGlyph name="equal" xMin="120" yMin="410" xMax="718" yMax="712">
      <contour>
        <pt x="228" y="412" on="1"/>
        <pt x="183" y="411" on="1"/>
        <pt x="120" y="411" on="0"/>
        <pt x="120" y="432" on="1"/>
        <pt x="120" y="468" on="0"/>
        <pt x="207" y="470" on="1"/>
        <pt x="207" y="470" on="0"/>
        <pt x="562" y="470" on="1"/>
        <pt x="669" y="470" on="0"/>
        <pt x="669" y="446" on="1"/>
        <pt x="669" y="410" on="0"/>
        <pt x="591" y="410" on="1"/>
        <pt x="540" y="412" on="1"/>
      </contour>
      <contour>
        <pt x="279" y="654" on="1"/>
        <pt x="234" y="653" on="1"/>
        <pt x="169" y="653" on="0"/>
        <pt x="169" y="674" on="1"/>
        <pt x="169" y="710" on="0"/>
        <pt x="256" y="712" on="1"/>
        <pt x="611" y="712" on="1"/>
        <pt x="718" y="712" on="0"/>
        <pt x="718" y="688" on="1"/>
        <pt x="718" y="652" on="0"/>
        <pt x="641" y="652" on="1"/>
        <pt x="591" y="654" on="1"/>
      </contour>
    </TTGlyph>
    <TTGlyph name="eth" xMin="47" yMin="-18" xMax="973" yMax="1249">
      <contour>
        <pt x="217" y="238" on="1"/>
        <pt x="217" y="37" on="0"/>
        <pt x="523" y="37" on="0"/>
        <pt x="616" y="234" on="1"/>
        <pt x="674" y="362" on="0"/>
        <pt x="674" y="621" on="0"/>
        <pt x="588" y="669" on="1"/>
        <pt x="558" y="686" on="0"/>
        <pt x="515" y="686" on="1"/>
        <pt x="439" y="686" on="0"/>
        <pt x="330" y="593" on="0"/>
        <pt x="308" y="546" on="1"/>
        <pt x="263" y="452" on="0"/>
        <pt x="217" y="290" on="0"/>
      </contour>
      <contour>
        <pt x="786" y="1054" on="1"/>
        <pt x="882" y="894" on="0"/>
        <pt x="882" y="549" on="0"/>
        <pt x="819" y="386" on="1"/>
        <pt x="712" y="109" on="0"/>
        <pt x="504" y="15" on="1"/>
        <pt x="431" y="-18" on="0"/>
        <pt x="350" y="-18" on="1"/>
        <pt x="200" y="-18" on="0"/>
        <pt x="47" y="139" on="0"/>
        <pt x="47" y="375" on="0"/>
        <pt x="113" y="496" on="1"/>
        <pt x="216" y="685" on="0"/>
        <pt x="390" y="752" on="1"/>
        <pt x="448" y="774" on="0"/>
        <pt x="497" y="774" on="1"/>
        <pt x="578" y="774" on="0"/>
        <pt x="668" y="716" on="0"/>
        <pt x="712" y="656" on="1"/>
        <pt x="741" y="656" on="1"/>
        <pt x="741" y="692" on="1"/>
        <pt x="741" y="877" on="0"/>
        <pt x="676" y="1005" on="1"/>
        <pt x="428" y="894" on="1"/>
        <pt x="428" y="896" on="1"/>
        <pt x="420" y="894" on="1"/>
        <pt x="401" y="894" on="0"/>
        <pt x="390" y="921" on="1"/>
        <pt x="461" y="974" on="0"/>
        <pt x="569" y="1021" on="1"/>
        <pt x="647" y="1055" on="1"/>
        <pt x="632" y="1073" on="1"/>
        <pt x="569" y="1148" on="0"/>
        <pt x="473" y="1197" on="1"/>
        <pt x="465" y="1200" on="0"/>
        <pt x="465" y="1204" on="1"/>
        <pt x="465" y="1215" on="0"/>
        <pt x="480" y="1232" on="1"/>
        <pt x="498" y="1249" on="0"/>
        <pt x="524" y="1249" on="1"/>
        <pt x="535" y="1248" on="1"/>
        <pt x="537" y="1248" on="1"/>
        <pt x="567" y="1239" on="0"/>
        <pt x="614" y="1190" on="0"/>
        <pt x="658" y="1137" on="0"/>
        <pt x="702" y="1097" on="0"/>
        <pt x="736" y="1097" on="0"/>
        <pt x="751" y="1102" on="1"/>
        <pt x="926" y="1174" on="1"/>
        <pt x="943" y="1174" on="0"/>
        <pt x="973" y="1161" on="0"/>
        <pt x="973" y="1153" on="1"/>
        <pt x="971" y="1148" on="1"/>
        <pt x="950" y="1119" on="0"/>
        <pt x="842" y="1078" on="0"/>
        <pt x="823" y="1070" on="1"/>
      </contour>
    </TTGlyph>
    <TTGlyph name="exclam" xMin="30" yMin="0" xMax="519" yMax="1236">
      <contour>
        <pt x="138" y="0" on="1"/>
        <pt x="30" y="0" on="0"/>
        <pt x="30" y="90" on="1"/>
        <pt x="30" y="165" on="0"/>
        <pt x="137" y="252" on="0"/>
        <pt x="241" y="252" on="0"/>
        <pt x="300" y="205" on="0"/>
        <pt x="300" y="161" on="1"/>
        <pt x="300" y="87" on="0"/>
        <pt x="192" y="0" on="0"/>
      </contour>
      <contour>
        <pt x="238" y="433" on="1"/>
        <pt x="211" y="433" on="1"/>
        <pt x="290" y="1082" on="1"/>
        <pt x="295" y="1130" on="0"/>
        <pt x="324" y="1166" on="1"/>
        <pt x="379" y="1236" on="0"/>
        <pt x="488" y="1236" on="0"/>
        <pt x="519" y="1191" on="0"/>
        <pt x="519" y="1120" on="0"/>
        <pt x="507" y="1090" on="1"/>
      </contour>
    </TTGlyph>
    <TTGlyph name="exclamdown" xMin="39" yMin="0" xMax="529" yMax="1236">
      <contour>
        <pt x="421" y="1236" on="1"/>
        <pt x="529" y="1236" on="0"/>
        <pt x="529" y="1146" on="1"/>
        <pt x="529" y="1072" on="0"/>
        <pt x="422" y="984" on="0"/>
        <pt x="318" y="984" on="0"/>
        <pt x="259" y="1031" on="0"/>
        <pt x="259" y="1075" on="1"/>
        <pt x="259" y="1149" on="0"/>
        <pt x="368" y="1236" on="0"/>
      </contour>
      <contour>
        <pt x="320" y="803" on="1"/>
        <pt x="348" y="803" on="1"/>
        <pt x="269" y="154" on="1"/>
        <pt x="261" y="103" on="0"/>
        <pt x="234" y="68" on="1"/>
        <pt x="180" y="0" on="0"/>
        <pt x="70" y="0" on="0"/>
        <pt x="39" y="45" on="0"/>
        <pt x="39" y="116" on="0"/>
        <pt x="51" y="146" on="1"/>
      </contour>
    </TTGlyph>
    <TTGlyph name="f" xMin="13" yMin="-316" xMax="882" yMax="1301">
      <contour>
        <pt x="13" y="-292" on="1"/>
        <pt x="99" y="-166" on="0"/>
        <pt x="203" y="282" on="1"/>
        <pt x="308" y="727" on="1"/>
        <pt x="104" y="727" on="1"/>
        <pt x="125" y="817" on="1"/>
        <pt x="329" y="817" on="1"/>
        <pt x="357" y="949" on="1"/>
        <pt x="412" y="1205" on="0"/>
        <pt x="566" y="1276" on="1"/>
        <pt x="622" y="1301" on="0"/>
        <pt x="672" y="1301" on="1"/>
        <pt x="765" y="1301" on="0"/>
        <pt x="882" y="1228" on="0"/>
        <pt x="882" y="1147" on="1"/>
        <pt x="882" y="1120" on="0"/>
        <pt x="838" y="1076" on="0"/>
        <pt x="779" y="1076" on="0"/>
        <pt x="750" y="1097" on="0"/>
        <pt x="729" y="1129" on="0"/>
        <pt x="720" y="1147" on="1"/>
        <pt x="682" y="1218" on="0"/>
        <pt x="641" y="1218" on="1"/>
        <pt x="567" y="1218" on="0"/>
        <pt x="481" y="1057" on="0"/>
        <pt x="481" y="879" on="0"/>
        <pt x="503" y="817" on="1"/>
        <pt x="744" y="817" on="1"/>
        <pt x="722" y="727" on="1"/>
        <pt x="483" y="727" on="1"/>
        <pt x="390" y="337" on="1"/>
        <pt x="364" y="227" on="0"/>
        <pt x="317" y="21" on="0"/>
        <pt x="250" y="-153" on="0"/>
        <pt x="147" y="-283" on="0"/>
        <pt x="64" y="-316" on="1"/>
      </contour>
    </TTGlyph>
    <TTGlyph name="ff" xMin="13" yMin="-329" xMax="1566" yMax="1248">
      <contour>
        <pt x="1283" y="1248" on="1"/>
        <pt x="1566" y="1248" on="0"/>
        <pt x="1566" y="1087" on="1"/>
        <pt x="1566" y="1060" on="0"/>
        <pt x="1522" y="1016" on="0"/>
        <pt x="1461" y="1016" on="0"/>
        <pt x="1427" y="1038" on="0"/>
        <pt x="1397" y="1071" on="0"/>
        <pt x="1382" y="1090" on="1"/>
        <pt x="1325" y="1165" on="0"/>
        <pt x="1259" y="1165" on="1"/>
        <pt x="1142" y="1165" on="0"/>
        <pt x="993" y="1019" on="0"/>
        <pt x="993" y="926" on="1"/>
        <pt x="993" y="874" on="0"/>
        <pt x="1017" y="817" on="1"/>
        <pt x="1352" y="817" on="1"/>
        <pt x="1325" y="727" on="1"/>
        <pt x="997" y="727" on="1"/>
        <pt x="904" y="337" on="1"/>
        <pt x="878" y="227" on="0"/>
        <pt x="831" y="21" on="0"/>
        <pt x="764" y="-153" on="0"/>
        <pt x="661" y="-283" on="0"/>
        <pt x="578" y="-316" on="1"/>
        <pt x="527" y="-292" on="1"/>
        <pt x="613" y="-166" on="0"/>
        <pt x="717" y="282" on="1"/>
        <pt x="822" y="727" on="1"/>
        <pt x="488" y="727" on="1"/>
        <pt x="390" y="324" on="1"/>
        <pt x="363" y="214" on="0"/>
        <pt x="317" y="8" on="0"/>
        <pt x="250" y="-166" on="0"/>
        <pt x="147" y="-296" on="0"/>
        <pt x="64" y="-329" on="1"/>
        <pt x="13" y="-305" on="1"/>
        <pt x="77" y="-211" on="0"/>
        <pt x="157" y="54" on="1"/>
        <pt x="187" y="153" on="0"/>
        <pt x="217" y="282" on="1"/>
        <pt x="322" y="727" on="1"/>
        <pt x="75" y="727" on="1"/>
        <pt x="99" y="817" on="1"/>
        <pt x="346" y="817" on="1"/>
        <pt x="366" y="899" on="1"/>
        <pt x="451" y="1239" on="0"/>
        <pt x="743" y="1239" on="1"/>
        <pt x="863" y="1239" on="0"/>
        <pt x="954" y="1188" on="1"/>
        <pt x="986" y="1170" on="0"/>
        <pt x="1009" y="1146" on="1"/>
        <pt x="1114" y="1248" on="0"/>
      </contour>
      <contour>
        <pt x="476" y="936" on="1"/>
        <pt x="476" y="881" on="0"/>
        <pt x="503" y="817" on="1"/>
        <pt x="843" y="817" on="1"/>
        <pt x="874" y="937" on="0"/>
        <pt x="920" y="1025" on="1"/>
        <pt x="891" y="1037" on="0"/>
        <pt x="833" y="1082" on="0"/>
        <pt x="723" y="1158" on="0"/>
        <pt x="671" y="1158" on="1"/>
        <pt x="671" y="1159" on="1"/>
        <pt x="608" y="1159" on="0"/>
        <pt x="476" y="1034" on="0"/>
      </contour>
    </TTGlyph>
    <TTGlyph name="ffi" xMin="13" yMin="-329" xMax="1650" yMax="1248">
      <contour>
        <pt x="1337" y="172" on="1"/>
        <pt x="1337" y="92" on="0"/>
        <pt x="1389" y="92" on="1"/>
        <pt x="1449" y="92" on="0"/>
        <pt x="1528" y="210" on="1"/>
        <pt x="1585" y="296" on="1"/>
        <pt x="1650" y="251" on="1"/>
        <pt x="1589" y="162" on="1"/>
        <pt x="1463" y="-19" on="0"/>
        <pt x="1323" y="-19" on="1"/>
        <pt x="1219" y="-19" on="0"/>
        <pt x="1185" y="93" on="1"/>
        <pt x="1175" y="126" on="0"/>
        <pt x="1175" y="215" on="0"/>
        <pt x="1205" y="318" on="0"/>
        <pt x="1220" y="370" on="1"/>
        <pt x="1325" y="727" on="1"/>
        <pt x="997" y="727" on="1"/>
        <pt x="904" y="337" on="1"/>
        <pt x="878" y="227" on="0"/>
        <pt x="831" y="21" on="0"/>
        <pt x="764" y="-153" on="0"/>
        <pt x="661" y="-283" on="0"/>
        <pt x="578" y="-316" on="1"/>
        <pt x="527" y="-292" on="1"/>
        <pt x="613" y="-166" on="0"/>
        <pt x="717" y="282" on="1"/>
        <pt x="822" y="727" on="1"/>
        <pt x="488" y="727" on="1"/>
        <pt x="390" y="324" on="1"/>
        <pt x="363" y="214" on="0"/>
        <pt x="317" y="8" on="0"/>
        <pt x="250" y="-166" on="0"/>
        <pt x="147" y="-296" on="0"/>
        <pt x="64" y="-329" on="1"/>
        <pt x="13" y="-305" on="1"/>
        <pt x="77" y="-211" on="0"/>
        <pt x="157" y="54" on="1"/>
        <pt x="187" y="153" on="0"/>
        <pt x="217" y="282" on="1"/>
        <pt x="322" y="727" on="1"/>
        <pt x="75" y="727" on="1"/>
        <pt x="99" y="817" on="1"/>
        <pt x="346" y="817" on="1"/>
        <pt x="366" y="899" on="1"/>
        <pt x="451" y="1239" on="0"/>
        <pt x="743" y="1239" on="1"/>
        <pt x="863" y="1239" on="0"/>
        <pt x="954" y="1188" on="1"/>
        <pt x="986" y="1170" on="0"/>
        <pt x="1009" y="1146" on="1"/>
        <pt x="1114" y="1248" on="0"/>
        <pt x="1283" y="1248" on="1"/>
        <pt x="1566" y="1248" on="0"/>
        <pt x="1566" y="1087" on="1"/>
        <pt x="1566" y="1060" on="0"/>
        <pt x="1522" y="1016" on="0"/>
        <pt x="1461" y="1016" on="0"/>
        <pt x="1427" y="1038" on="0"/>
        <pt x="1397" y="1071" on="0"/>
        <pt x="1382" y="1090" on="1"/>
        <pt x="1325" y="1165" on="0"/>
        <pt x="1259" y="1165" on="1"/>
        <pt x="1142" y="1165" on="0"/>
        <pt x="993" y="1019" on="0"/>
        <pt x="993" y="926" on="1"/>
        <pt x="993" y="874" on="0"/>
        <pt x="1017" y="817" on="1"/>
        <pt x="1486" y="817" on="1"/>
        <pt x="1495" y="711" on="1"/>
        <pt x="1352" y="258" on="1"/>
        <pt x="1337" y="211" on="0"/>
      </contour>
      <contour>
        <pt x="476" y="936" on="1"/>
        <pt x="476" y="881" on="0"/>
        <pt x="503" y="817" on="1"/>
        <pt x="843" y="817" on="1"/>
        <pt x="874" y="937" on="0"/>
        <pt x="920" y="1025" on="1"/>
        <pt x="891" y="1037" on="0"/>
        <pt x="833" y="1082" on="0"/>
        <pt x="723" y="1158" on="0"/>
        <pt x="671" y="1158" on="1"/>
        <pt x="671" y="1159" on="1"/>
        <pt x="608" y="1159" on="0"/>
        <pt x="476" y="1034" on="0"/>
      </contour>
    </TTGlyph>
    <TTGlyph name="ffl" xMin="-171" yMin="-302" xMax="1853" yMax="1241">
      <contour>
        <pt x="880" y="1148" on="0"/>
        <pt x="818" y="1170" on="0"/>
        <pt x="753" y="1170" on="0"/>
        <pt x="717" y="1141" on="0"/>
        <pt x="688" y="1096" on="0"/>
        <pt x="666" y="1038" on="0"/>
        <pt x="649" y="981" on="0"/>
        <pt x="636" y="930" on="0"/>
        <pt x="631" y="913" on="1"/>
        <pt x="604" y="817" on="1"/>
        <pt x="978" y="817" on="1"/>
        <pt x="1006" y="908" on="1"/>
        <pt x="1017" y="951" on="0"/>
        <pt x="1034" y="995" on="1"/>
        <pt x="1041" y="1015" on="1"/>
        <pt x="1020" y="1017" on="1"/>
        <pt x="1002" y="1018" on="0"/>
        <pt x="958" y="1076" on="0"/>
        <pt x="926" y="1114" on="0"/>
      </contour>
      <contour>
        <pt x="1617" y="1125" on="1"/>
        <pt x="1446" y="1134" on="0"/>
        <pt x="1378" y="1134" on="1"/>
        <pt x="1230" y="1134" on="0"/>
        <pt x="1169" y="913" on="1"/>
        <pt x="1142" y="817" on="1"/>
        <pt x="1531" y="817" on="1"/>
      </contour>
      <contour>
        <pt x="1539" y="173" on="1"/>
        <pt x="1539" y="93" on="0"/>
        <pt x="1592" y="93" on="1"/>
        <pt x="1652" y="93" on="0"/>
        <pt x="1731" y="211" on="1"/>
        <pt x="1788" y="297" on="1"/>
        <pt x="1853" y="252" on="1"/>
        <pt x="1792" y="163" on="1"/>
        <pt x="1666" y="-18" on="0"/>
        <pt x="1525" y="-18" on="1"/>
        <pt x="1420" y="-18" on="0"/>
        <pt x="1386" y="92" on="1"/>
        <pt x="1376" y="125" on="0"/>
        <pt x="1376" y="187" on="0"/>
        <pt x="1385" y="238" on="0"/>
        <pt x="1398" y="291" on="0"/>
        <pt x="1414" y="345" on="0"/>
        <pt x="1421" y="372" on="1"/>
        <pt x="1510" y="727" on="1"/>
        <pt x="1128" y="727" on="1"/>
        <pt x="1032" y="324" on="1"/>
        <pt x="1012" y="241" on="0"/>
        <pt x="978" y="83" on="0"/>
        <pt x="957" y="14" on="1"/>
        <pt x="911" y="-140" on="0"/>
        <pt x="745" y="-302" on="0"/>
        <pt x="583" y="-302" on="1"/>
        <pt x="518" y="-302" on="0"/>
        <pt x="472" y="-278" on="1"/>
        <pt x="381" y="-231" on="0"/>
        <pt x="374" y="-163" on="1"/>
        <pt x="369" y="-117" on="1"/>
        <pt x="405" y="-101" on="1"/>
        <pt x="430" y="-90" on="0"/>
        <pt x="482" y="-90" on="0"/>
        <pt x="522" y="-134" on="0"/>
        <pt x="560" y="-187" on="0"/>
        <pt x="602" y="-231" on="0"/>
        <pt x="631" y="-231" on="1"/>
        <pt x="632" y="-231" on="1"/>
        <pt x="680" y="-231" on="0"/>
        <pt x="739" y="-171" on="0"/>
        <pt x="784" y="-48" on="0"/>
        <pt x="825" y="142" on="0"/>
        <pt x="856" y="273" on="1"/>
        <pt x="963" y="727" on="1"/>
        <pt x="590" y="727" on="1"/>
        <pt x="494" y="324" on="1"/>
        <pt x="467" y="212" on="0"/>
        <pt x="419" y="7" on="0"/>
        <pt x="384" y="-78" on="1"/>
        <pt x="367" y="-118" on="1"/>
        <pt x="344" y="-154" on="1"/>
        <pt x="250" y="-302" on="0"/>
        <pt x="44" y="-302" on="1"/>
        <pt x="-27" y="-302" on="0"/>
        <pt x="-76" y="-276" on="1"/>
        <pt x="-171" y="-225" on="0"/>
        <pt x="-171" y="-149" on="1"/>
        <pt x="-171" y="-120" on="0"/>
        <pt x="-122" y="-90" on="0"/>
        <pt x="-59" y="-90" on="0"/>
        <pt x="-18" y="-134" on="0"/>
        <pt x="21" y="-187" on="0"/>
        <pt x="63" y="-231" on="0"/>
        <pt x="140" y="-231" on="0"/>
        <pt x="198" y="-170" on="0"/>
        <pt x="242" y="-43" on="0"/>
        <pt x="284" y="151" on="0"/>
        <pt x="316" y="284" on="1"/>
        <pt x="423" y="727" on="1"/>
        <pt x="215" y="727" on="1"/>
        <pt x="236" y="817" on="1"/>
        <pt x="444" y="817" on="1"/>
        <pt x="465" y="901" on="1"/>
        <pt x="508" y="1066" on="0"/>
        <pt x="684" y="1239" on="0"/>
        <pt x="823" y="1239" on="1"/>
        <pt x="1029" y="1239" on="0"/>
        <pt x="1085" y="1151" on="1"/>
        <pt x="1096" y="1131" on="1"/>
        <pt x="1112" y="1148" on="1"/>
        <pt x="1168" y="1198" on="0"/>
        <pt x="1360" y="1241" on="0"/>
        <pt x="1552" y="1241" on="1"/>
        <pt x="1792" y="1241" on="0"/>
        <pt x="1792" y="1160" on="1"/>
        <pt x="1792" y="1145" on="0"/>
        <pt x="1547" y="236" on="0"/>
        <pt x="1539" y="193" on="0"/>
      </contour>
    </TTGlyph>
    <TTGlyph name="fi" xMin="13" yMin="-316" xMax="1166" yMax="1248">
      <contour>
        <pt x="853" y="172" on="1"/>
        <pt x="853" y="92" on="0"/>
        <pt x="905" y="92" on="1"/>
        <pt x="965" y="92" on="0"/>
        <pt x="1044" y="210" on="1"/>
        <pt x="1101" y="296" on="1"/>
        <pt x="1166" y="251" on="1"/>
        <pt x="1105" y="162" on="1"/>
        <pt x="979" y="-19" on="0"/>
        <pt x="839" y="-19" on="1"/>
        <pt x="735" y="-19" on="0"/>
        <pt x="701" y="93" on="1"/>
        <pt x="691" y="126" on="0"/>
        <pt x="691" y="215" on="0"/>
        <pt x="721" y="318" on="0"/>
        <pt x="736" y="370" on="1"/>
        <pt x="841" y="727" on="1"/>
        <pt x="483" y="727" on="1"/>
        <pt x="390" y="337" on="1"/>
        <pt x="364" y="227" on="0"/>
        <pt x="317" y="21" on="0"/>
        <pt x="250" y="-153" on="0"/>
        <pt x="147" y="-283" on="0"/>
        <pt x="64" y="-316" on="1"/>
        <pt x="13" y="-292" on="1"/>
        <pt x="99" y="-166" on="0"/>
        <pt x="203" y="282" on="1"/>
        <pt x="308" y="727" on="1"/>
        <pt x="104" y="727" on="1"/>
        <pt x="125" y="817" on="1"/>
        <pt x="329" y="817" on="1"/>
        <pt x="389" y="1042" on="0"/>
        <pt x="597" y="1248" on="0"/>
        <pt x="769" y="1248" on="1"/>
        <pt x="1052" y="1248" on="0"/>
        <pt x="1052" y="1087" on="1"/>
        <pt x="1052" y="1060" on="0"/>
        <pt x="1008" y="1016" on="0"/>
        <pt x="947" y="1016" on="0"/>
        <pt x="913" y="1038" on="0"/>
        <pt x="883" y="1071" on="0"/>
        <pt x="868" y="1090" on="1"/>
        <pt x="811" y="1165" on="0"/>
        <pt x="745" y="1165" on="1"/>
        <pt x="628" y="1165" on="0"/>
        <pt x="479" y="1019" on="0"/>
        <pt x="479" y="926" on="1"/>
        <pt x="479" y="874" on="0"/>
        <pt x="503" y="817" on="1"/>
        <pt x="1002" y="817" on="1"/>
        <pt x="1011" y="711" on="1"/>
        <pt x="868" y="258" on="1"/>
        <pt x="853" y="209" on="0"/>
      </contour>
    </TTGlyph>
    <TTGlyph name="five" xMin="-17" yMin="-206" xMax="792" yMax="941">
      <contour>
        <pt x="196" y="332" on="1"/>
        <pt x="151" y="332" on="0"/>
        <pt x="151" y="351" on="1"/>
        <pt x="151" y="363" on="0"/>
        <pt x="154" y="375" on="1"/>
        <pt x="292" y="861" on="1"/>
        <pt x="298" y="882" on="0"/>
        <pt x="314" y="891" on="0"/>
        <pt x="354" y="891" on="0"/>
        <pt x="380" y="888" on="1"/>
        <pt x="519" y="872" on="0"/>
        <pt x="640" y="872" on="1"/>
        <pt x="702" y="872" on="0"/>
        <pt x="740" y="941" on="1"/>
        <pt x="792" y="941" on="1"/>
        <pt x="754" y="783" on="1"/>
        <pt x="743" y="739" on="0"/>
        <pt x="687" y="720" on="0"/>
        <pt x="604" y="720" on="1"/>
        <pt x="344" y="720" on="1"/>
        <pt x="324" y="720" on="0"/>
        <pt x="316" y="692" on="1"/>
        <pt x="300" y="640" on="0"/>
        <pt x="271" y="541" on="0"/>
        <pt x="261" y="504" on="1"/>
        <pt x="255" y="481" on="1"/>
        <pt x="305" y="481" on="1"/>
        <pt x="480" y="481" on="0"/>
        <pt x="653" y="325" on="0"/>
        <pt x="653" y="203" on="1"/>
        <pt x="653" y="134" on="0"/>
        <pt x="579" y="-11" on="0"/>
        <pt x="514" y="-70" on="1"/>
        <pt x="366" y="-206" on="0"/>
        <pt x="164" y="-206" on="1"/>
        <pt x="25" y="-206" on="0"/>
        <pt x="-8" y="-122" on="1"/>
        <pt x="-17" y="-101" on="0"/>
        <pt x="-17" y="-50" on="0"/>
        <pt x="25" y="-5" on="0"/>
        <pt x="60" y="-5" on="1"/>
        <pt x="126" y="-5" on="0"/>
        <pt x="219" y="-111" on="1"/>
        <pt x="219" y="-114" on="0"/>
        <pt x="300" y="-114" on="0"/>
        <pt x="406" y="-71" on="0"/>
        <pt x="442" y="-37" on="1"/>
        <pt x="517" y="32" on="0"/>
        <pt x="517" y="214" on="0"/>
        <pt x="390" y="337" on="0"/>
        <pt x="267" y="337" on="1"/>
      </contour>
    </TTGlyph>
    <TTGlyph name="fl" xMin="13" yMin="-316" xMax="1193" yMax="1264">
      <contour>
        <pt x="969" y="1168" on="1"/>
        <pt x="858" y="1198" on="0"/>
        <pt x="729" y="1198" on="0"/>
        <pt x="692" y="1191" on="1"/>
        <pt x="573" y="1168" on="0"/>
        <pt x="519" y="938" on="1"/>
        <pt x="488" y="817" on="1"/>
        <pt x="869" y="817" on="1"/>
      </contour>
      <contour>
        <pt x="880" y="172" on="1"/>
        <pt x="880" y="92" on="0"/>
        <pt x="932" y="92" on="1"/>
        <pt x="992" y="92" on="0"/>
        <pt x="1071" y="210" on="1"/>
        <pt x="1128" y="296" on="1"/>
        <pt x="1193" y="251" on="1"/>
        <pt x="1132" y="162" on="1"/>
        <pt x="1006" y="-19" on="0"/>
        <pt x="866" y="-19" on="1"/>
        <pt x="798" y="-19" on="0"/>
        <pt x="719" y="84" on="0"/>
        <pt x="719" y="212" on="0"/>
        <pt x="750" y="315" on="0"/>
        <pt x="764" y="371" on="1"/>
        <pt x="856" y="727" on="1"/>
        <pt x="483" y="727" on="1"/>
        <pt x="390" y="337" on="1"/>
        <pt x="364" y="227" on="0"/>
        <pt x="317" y="21" on="0"/>
        <pt x="250" y="-153" on="0"/>
        <pt x="147" y="-283" on="0"/>
        <pt x="64" y="-316" on="1"/>
        <pt x="13" y="-292" on="1"/>
        <pt x="99" y="-166" on="0"/>
        <pt x="203" y="282" on="1"/>
        <pt x="308" y="727" on="1"/>
        <pt x="104" y="727" on="1"/>
        <pt x="125" y="817" on="1"/>
        <pt x="329" y="817" on="1"/>
        <pt x="359" y="927" on="1"/>
        <pt x="395" y="1062" on="0"/>
        <pt x="424" y="1110" on="1"/>
        <pt x="476" y="1199" on="0"/>
        <pt x="646" y="1264" on="0"/>
        <pt x="811" y="1264" on="1"/>
        <pt x="1142" y="1245" on="0"/>
        <pt x="1142" y="1183" on="1"/>
        <pt x="1142" y="1160" on="0"/>
        <pt x="888" y="233" on="0"/>
        <pt x="880" y="192" on="0"/>
      </contour>
    </TTGlyph>
    <TTGlyph name="florin" xMin="13" yMin="-316" xMax="882" yMax="1301">
      <contour>
        <pt x="13" y="-292" on="1"/>
        <pt x="99" y="-166" on="0"/>
        <pt x="203" y="282" on="1"/>
        <pt x="308" y="727" on="1"/>
        <pt x="104" y="727" on="1"/>
        <pt x="125" y="817" on="1"/>
        <pt x="329" y="817" on="1"/>
        <pt x="357" y="949" on="1"/>
        <pt x="412" y="1205" on="0"/>
        <pt x="566" y="1276" on="1"/>
        <pt x="622" y="1301" on="0"/>
        <pt x="672" y="1301" on="1"/>
        <pt x="765" y="1301" on="0"/>
        <pt x="882" y="1228" on="0"/>
        <pt x="882" y="1147" on="1"/>
        <pt x="882" y="1120" on="0"/>
        <pt x="838" y="1076" on="0"/>
        <pt x="779" y="1076" on="0"/>
        <pt x="750" y="1097" on="0"/>
        <pt x="729" y="1129" on="0"/>
        <pt x="720" y="1147" on="1"/>
        <pt x="682" y="1218" on="0"/>
        <pt x="641" y="1218" on="1"/>
        <pt x="567" y="1218" on="0"/>
        <pt x="481" y="1057" on="0"/>
        <pt x="481" y="879" on="0"/>
        <pt x="503" y="817" on="1"/>
        <pt x="744" y="817" on="1"/>
        <pt x="722" y="727" on="1"/>
        <pt x="483" y="727" on="1"/>
        <pt x="390" y="337" on="1"/>
        <pt x="364" y="227" on="0"/>
        <pt x="317" y="21" on="0"/>
        <pt x="250" y="-153" on="0"/>
        <pt x="147" y="-283" on="0"/>
        <pt x="64" y="-316" on="1"/>
      </contour>
    </TTGlyph>
    <TTGlyph name="foundryicon" xMin="65" yMin="89" xMax="1232" yMax="1217">
      <contour>
        <pt x="801" y="1194" on="1"/>
        <pt x="788" y="1116" on="0"/>
        <pt x="788" y="1037" on="1"/>
        <pt x="794" y="847" on="1"/>
        <pt x="794" y="832" on="1"/>
        <pt x="899" y="825" on="0"/>
        <pt x="977" y="825" on="1"/>
        <pt x="1147" y="832" on="1"/>
        <pt x="1218" y="832" on="0"/>
        <pt x="1232" y="815" on="1"/>
        <pt x="1226" y="810" on="0"/>
        <pt x="1199" y="794" on="0"/>
        <pt x="1093" y="731" on="0"/>
        <pt x="904" y="579" on="0"/>
        <pt x="829" y="534" on="1"/>
        <pt x="815" y="525" on="0"/>
        <pt x="815" y="491" on="1"/>
        <pt x="815" y="439" on="0"/>
        <pt x="840" y="232" on="0"/>
        <pt x="840" y="188" on="1"/>
        <pt x="840" y="89" on="0"/>
        <pt x="810" y="89" on="1"/>
        <pt x="802" y="89" on="0"/>
        <pt x="770" y="145" on="1"/>
        <pt x="699" y="269" on="0"/>
        <pt x="662" y="314" on="1"/>
        <pt x="596" y="392" on="0"/>
        <pt x="536" y="392" on="1"/>
        <pt x="508" y="392" on="0"/>
        <pt x="172" y="129" on="0"/>
        <pt x="141" y="129" on="1"/>
        <pt x="131" y="129" on="0"/>
        <pt x="131" y="133" on="1"/>
        <pt x="131" y="136" on="1"/>
        <pt x="142" y="176" on="0"/>
        <pt x="330" y="485" on="0"/>
        <pt x="337" y="514" on="1"/>
        <pt x="337" y="518" on="1"/>
        <pt x="337" y="558" on="0"/>
        <pt x="178" y="722" on="1"/>
        <pt x="163" y="738" on="0"/>
        <pt x="145" y="758" on="0"/>
        <pt x="113" y="780" on="0"/>
        <pt x="65" y="813" on="0"/>
        <pt x="65" y="852" on="0"/>
        <pt x="146" y="852" on="0"/>
        <pt x="253" y="832" on="0"/>
        <pt x="310" y="830" on="1"/>
        <pt x="509" y="822" on="1"/>
        <pt x="657" y="1065" on="1"/>
        <pt x="667" y="1081" on="0"/>
        <pt x="682" y="1107" on="1"/>
        <pt x="748" y="1217" on="0"/>
        <pt x="779" y="1217" on="1"/>
        <pt x="783" y="1217" on="0"/>
        <pt x="801" y="1201" on="0"/>
      </contour>
    </TTGlyph>
    <TTGlyph name="four" xMin="-4" yMin="-248" xMax="913" yMax="872">
      <contour>
        <pt x="119" y="185" on="1"/>
        <pt x="512" y="185" on="1"/>
        <pt x="645" y="740" on="1"/>
      </contour>
      <contour>
        <pt x="65" y="81" on="1"/>
        <pt x="-4" y="81" on="0"/>
        <pt x="-4" y="120" on="1"/>
        <pt x="-4" y="148" on="0"/>
        <pt x="30" y="184" on="1"/>
        <pt x="618" y="810" on="1"/>
        <pt x="638" y="831" on="0"/>
        <pt x="661" y="856" on="0"/>
        <pt x="686" y="872" on="0"/>
        <pt x="725" y="872" on="1"/>
        <pt x="831" y="872" on="1"/>
        <pt x="669" y="186" on="1"/>
        <pt x="913" y="186" on="1"/>
        <pt x="887" y="82" on="1"/>
        <pt x="649" y="82" on="1"/>
        <pt x="579" y="-248" on="1"/>
        <pt x="415" y="-248" on="1"/>
        <pt x="489" y="82" on="1"/>
      </contour>
    </TTGlyph>
    <TTGlyph name="foursuperior" xMin="63" yMin="323" xMax="765" yMax="1216">
      <contour>
        <pt x="570" y="1149" on="1"/>
        <pt x="140" y="721" on="1"/>
        <pt x="460" y="721" on="1"/>
      </contour>
      <contour>
        <pt x="110" y="652" on="1"/>
        <pt x="63" y="652" on="0"/>
        <pt x="63" y="676" on="1"/>
        <pt x="63" y="693" on="0"/>
        <pt x="89" y="719" on="1"/>
        <pt x="544" y="1172" on="1"/>
        <pt x="559" y="1187" on="0"/>
        <pt x="576" y="1205" on="0"/>
        <pt x="594" y="1216" on="0"/>
        <pt x="625" y="1216" on="1"/>
        <pt x="704" y="1216" on="1"/>
        <pt x="584" y="721" on="1"/>
        <pt x="765" y="721" on="1"/>
        <pt x="748" y="654" on="1"/>
        <pt x="570" y="654" on="1"/>
        <pt x="535" y="532" on="0"/>
        <pt x="492" y="323" on="1"/>
        <pt x="363" y="323" on="1"/>
        <pt x="444" y="654" on="1"/>
      </contour>
    </TTGlyph>
    <TTGlyph name="fraction" xMin="-33" yMin="-54" xMax="841" yMax="1385">
      <contour>
        <pt x="0" y="-54" on="1"/>
        <pt x="-23" y="-52" on="1"/>
        <pt x="-33" y="-52" on="1"/>
        <pt x="-30" y="10" on="0"/>
        <pt x="24" y="101" on="1"/>
        <pt x="601" y="1081" on="1"/>
        <pt x="612" y="1100" on="0"/>
        <pt x="640" y="1163" on="1"/>
        <pt x="692" y="1277" on="0"/>
        <pt x="762" y="1385" on="0"/>
        <pt x="817" y="1385" on="0"/>
        <pt x="841" y="1372" on="1"/>
        <pt x="731" y="1151" on="0"/>
        <pt x="385" y="574" on="0"/>
        <pt x="191" y="253" on="0"/>
        <pt x="97" y="82" on="0"/>
        <pt x="84" y="56" on="1"/>
        <pt x="28" y="-54" on="0"/>
      </contour>
    </TTGlyph>
    <TTGlyph name="g" xMin="-72" yMin="-354" xMax="1063" yMax="897">
      <contour>
        <pt x="669" y="-186" on="1"/>
        <pt x="669" y="-98" on="0"/>
        <pt x="234" y="-16" on="1"/>
        <pt x="208" y="-16" on="0"/>
        <pt x="163" y="-42" on="1"/>
        <pt x="67" y="-98" on="0"/>
        <pt x="67" y="-167" on="1"/>
        <pt x="86" y="-285" on="0"/>
        <pt x="345" y="-288" on="1"/>
        <pt x="378" y="-289" on="0"/>
        <pt x="402" y="-289" on="1"/>
        <pt x="669" y="-289" on="0"/>
      </contour>
      <contour>
        <pt x="390" y="320" on="1"/>
        <pt x="425" y="299" on="0"/>
        <pt x="474" y="299" on="1"/>
        <pt x="564" y="299" on="0"/>
        <pt x="672" y="477" on="0"/>
        <pt x="672" y="588" on="1"/>
        <pt x="672" y="743" on="0"/>
        <pt x="572" y="802" on="1"/>
        <pt x="538" y="823" on="0"/>
        <pt x="490" y="823" on="1"/>
        <pt x="401" y="823" on="0"/>
        <pt x="290" y="644" on="0"/>
        <pt x="290" y="536" on="1"/>
        <pt x="290" y="379" on="0"/>
      </contour>
      <contour>
        <pt x="781" y="725" on="1"/>
        <pt x="830" y="620" on="0"/>
        <pt x="830" y="550" on="1"/>
        <pt x="830" y="414" on="0"/>
        <pt x="650" y="240" on="0"/>
        <pt x="505" y="240" on="1"/>
        <pt x="438" y="240" on="0"/>
        <pt x="350" y="267" on="0"/>
        <pt x="342" y="267" on="1"/>
        <pt x="309" y="267" on="0"/>
        <pt x="221" y="228" on="0"/>
        <pt x="221" y="161" on="0"/>
        <pt x="269" y="124" on="0"/>
        <pt x="349" y="95" on="0"/>
        <pt x="452" y="71" on="0"/>
        <pt x="506" y="57" on="1"/>
        <pt x="641" y="22" on="0"/>
        <pt x="708" y="-20" on="1"/>
        <pt x="802" y="-78" on="0"/>
        <pt x="811" y="-172" on="1"/>
        <pt x="811" y="-326" on="0"/>
        <pt x="508" y="-350" on="1"/>
        <pt x="465" y="-354" on="0"/>
        <pt x="377" y="-354" on="0"/>
        <pt x="264" y="-350" on="0"/>
        <pt x="208" y="-344" on="1"/>
        <pt x="-72" y="-311" on="0"/>
        <pt x="-72" y="-162" on="1"/>
        <pt x="-72" y="-61" on="0"/>
        <pt x="120" y="-19" on="1"/>
        <pt x="170" y="-8" on="0"/>
        <pt x="215" y="2" on="1"/>
        <pt x="120" y="40" on="1"/>
        <pt x="53" y="67" on="0"/>
        <pt x="53" y="195" on="0"/>
        <pt x="161" y="252" on="1"/>
        <pt x="200" y="272" on="0"/>
        <pt x="256" y="288" on="1"/>
        <pt x="284" y="296" on="1"/>
        <pt x="262" y="317" on="1"/>
        <pt x="132" y="441" on="0"/>
        <pt x="132" y="716" on="0"/>
        <pt x="322" y="891" on="0"/>
        <pt x="624" y="891" on="0"/>
        <pt x="752" y="763" on="1"/>
        <pt x="858" y="897" on="0"/>
        <pt x="964" y="897" on="1"/>
        <pt x="1000" y="897" on="0"/>
        <pt x="1063" y="845" on="0"/>
        <pt x="1063" y="808" on="1"/>
        <pt x="1063" y="758" on="0"/>
        <pt x="1007" y="758" on="1"/>
        <pt x="996" y="758" on="0"/>
        <pt x="972" y="769" on="0"/>
        <pt x="918" y="792" on="0"/>
        <pt x="902" y="792" on="1"/>
        <pt x="855" y="792" on="0"/>
      </contour>
    </TTGlyph>
    <TTGlyph name="gcedilla" xMin="-72" yMin="-354" xMax="1063" yMax="1428">
      <component glyphName="g" x="0" y="0" flags="0x1204"/>
      <component glyphName="commaaccent" x="885" y="867" scale="-0.999938964844" flags="0x1004"/>
    </TTGlyph>
    <TTGlyph name="germandbls" xMin="-72" yMin="-17" xMax="1044" yMax="1254">
      <contour>
        <pt x="285" y="182" on="1"/>
        <pt x="285" y="108" on="0"/>
        <pt x="432" y="104" on="1"/>
        <pt x="436" y="104" on="0"/>
        <pt x="436" y="34" on="0"/>
        <pt x="422" y="34" on="1"/>
        <pt x="-65" y="34" on="1"/>
        <pt x="-72" y="34" on="0"/>
        <pt x="-72" y="72" on="0"/>
        <pt x="-55" y="104" on="0"/>
        <pt x="-52" y="104" on="1"/>
        <pt x="21" y="104" on="0"/>
        <pt x="51" y="121" on="1"/>
        <pt x="110" y="154" on="0"/>
        <pt x="130" y="239" on="1"/>
        <pt x="251" y="785" on="1"/>
        <pt x="292" y="982" on="0"/>
        <pt x="539" y="1254" on="0"/>
        <pt x="712" y="1254" on="1"/>
        <pt x="850" y="1254" on="0"/>
        <pt x="1018" y="1138" on="0"/>
        <pt x="1018" y="1043" on="1"/>
        <pt x="1018" y="863" on="0"/>
        <pt x="832" y="772" on="1"/>
        <pt x="776" y="745" on="0"/>
        <pt x="715" y="724" on="1"/>
        <pt x="715" y="694" on="1"/>
        <pt x="870" y="672" on="0"/>
        <pt x="1044" y="494" on="0"/>
        <pt x="1044" y="231" on="0"/>
        <pt x="836" y="-17" on="0"/>
        <pt x="683" y="-17" on="1"/>
        <pt x="605" y="-17" on="0"/>
        <pt x="573" y="5" on="1"/>
        <pt x="520" y="40" on="0"/>
        <pt x="520" y="117" on="0"/>
        <pt x="565" y="169" on="0"/>
        <pt x="619" y="169" on="0"/>
        <pt x="630" y="150" on="0"/>
        <pt x="630" y="130" on="1"/>
        <pt x="630" y="107" on="1"/>
        <pt x="630" y="21" on="0"/>
        <pt x="703" y="21" on="1"/>
        <pt x="760" y="21" on="0"/>
        <pt x="851" y="216" on="0"/>
        <pt x="851" y="361" on="1"/>
        <pt x="851" y="553" on="0"/>
        <pt x="685" y="642" on="1"/>
        <pt x="634" y="670" on="0"/>
        <pt x="573" y="689" on="1"/>
        <pt x="580" y="716" on="0"/>
        <pt x="589" y="718" on="1"/>
        <pt x="711" y="734" on="0"/>
        <pt x="858" y="907" on="0"/>
        <pt x="858" y="1032" on="1"/>
        <pt x="858" y="1109" on="0"/>
        <pt x="761" y="1195" on="0"/>
        <pt x="691" y="1195" on="1"/>
        <pt x="568" y="1195" on="0"/>
        <pt x="500" y="1074" on="1"/>
        <pt x="457" y="997" on="0"/>
        <pt x="424" y="841" on="1"/>
        <pt x="290" y="226" on="1"/>
        <pt x="285" y="201" on="0"/>
      </contour>
    </TTGlyph>
</ttFont>
